<svg height="512pt" viewBox="0 0 512 512" width="512pt" xmlns="http://www.w3.org/2000/svg"><path d="m496.320312 0h-45.675781c-8.660156 0-15.679687 7.019531-15.679687 15.679688 0 8.660156 7.019531 15.679687 15.679687 15.679687h29.996094v29.996094c0 8.660156 7.019531 15.679687 15.679687 15.679687 8.660157 0 15.679688-7.019531 15.679688-15.679687v-45.675781c0-8.660157-7.019531-15.679688-15.679688-15.679688zm0 0"/><path d="m496.320312 276.085938c-8.660156 0-15.679687 7.019531-15.679687 15.679687v29.996094h-29.996094c-8.660156 0-15.679687 7.019531-15.679687 15.679687s7.019531 15.679688 15.679687 15.679688h45.675781c8.660157 0 15.679688-7.019532 15.679688-15.679688v-45.675781c0-8.660156-7.019531-15.679687-15.679688-15.679687zm0 0"/><path d="m174.558594 77.035156c8.660156 0 15.679687-7.019531 15.679687-15.679687v-29.996094h29.996094c8.660156 0 15.679687-7.019531 15.679687-15.679687 0-8.660157-7.019531-15.679688-15.679687-15.679688h-45.675781c-8.660156 0-15.679688 7.019531-15.679688 15.679688v45.675781c0 8.660156 7.019532 15.679687 15.679688 15.679687zm0 0"/><path d="m245.046875 229.949219-237.394531 237.394531c-10.203125 10.203125-10.203125 26.738281 0 36.941406s26.738281 10.203125 36.941406 0l237.394531-237.394531-10.023437-26.917969zm0 0"/><path d="m463.601562 209.5625-34.699218-53.746094c-2.390625-3.722656-3.113282-8.289062-1.964844-12.566406l16.441406-61.269531c2.1875-8.15625-5.277344-15.621094-13.433594-13.429688l-61.261718 16.449219c-4.273438 1.148438-8.84375.425781-12.5625-1.964844l-53.75-34.699218c-7.113282-4.589844-16.527344.269531-16.898438 8.730468l-2.796875 63.210938c-.199219 4.507812-2.320312 8.699218-5.832031 11.53125l-49.96875 40.210937c-6.625 5.332031-4.921875 15.847657 3.046875 18.816407l39.511719 14.726562c31.175781 11.609375 25.34375 5.796875 36.941406 36.941406l14.726562 39.511719c2.96875 7.96875 13.484376 9.671875 18.816407 3.046875l40.210937-49.96875c2.832032-3.511719 7.023438-5.632812 11.53125-5.832031l63.210938-2.796875c8.460937-.375 13.320312-9.785156 8.730468-16.902344zm0 0"/></svg>