<svg width="26" height="32" viewBox="0 0 26 32" fill="none" xmlns="http://www.w3.org/2000/svg">
<path d="M24.5 10H23.5C22.673 10 22 10.673 22 11.5V11.5855C21.418 11.792 21 12.348 21 13V13.5855C21 13.986 21.156 14.363 21.4395 14.6465L21.975 15.182L21.436 19.7635C19.974 17.4035 17.614 15.6975 14.884 15.071L14.6605 14.4C15.39 14.1985 15.9885 13.683 16.288 13H16.5C17.603 13 18.5 12.103 18.5 11V8.5C19.0515 8.5 19.5 8.0515 19.5 7.5V6.5C19.5 5.9485 19.0515 5.5 18.5 5.5H18.413C17.935 2.62 15.4715 0.5 12.5 0.5C9.52855 0.5 7.06505 2.62 6.58705 5.5H6.50005C5.94855 5.5 5.50005 5.9485 5.50005 6.5V7.5C5.50005 8.0515 5.94855 8.5 6.50005 8.5V11C6.50005 12.103 7.39704 13 8.50004 13H8.71204C9.01204 13.683 9.61055 14.199 10.3395 14.4L10.1155 15.0715C8.98505 15.3305 7.90755 15.8095 6.95505 16.4665L5.97005 13.408C5.96705 13.3915 5.96755 13.375 5.96405 13.3585C5.71305 12.305 4.22255 11.754 2.56255 12.106C1.53205 12.3245 0.671045 12.844 0.259045 13.4945C0.0235454 13.8665 -0.0534547 14.2625 0.0365453 14.6405C0.0880453 14.8575 0.194545 15.052 0.342045 15.2225L3.76805 20.354C3.26555 21.509 3.00005 22.7315 3.00005 24C3.00005 26.132 4.22205 27.9805 6.00005 28.893V29.5C6.00005 30.603 6.89704 31.5 8.00004 31.5H9.50004H11H19V24.9535C19.728 25.918 20.859 26.5 22.1005 26.5C24.2505 26.5 26 24.7505 26 22.601V11.5C26 10.673 25.327 10 24.5 10ZM22 13C22 12.7245 22.224 12.5 22.5 12.5H23V11.5C23 11.2245 23.224 11 23.5 11H24.5C24.776 11 25 11.2245 25 11.5V14.5H22.707L22.1465 13.9395C22.052 13.845 22 13.719 22 13.5855V13ZM14 29.5V30.5H12.722C12.894 30.2045 13 29.866 13 29.5H14ZM14.5 28.5H11.5V26.207L12.0605 25.6465C12.154 25.5535 12.2825 25.5 12.414 25.5H13C13.276 25.5 13.5 25.7245 13.5 26V26.5H14.5C14.776 26.5 15 26.7245 15 27V28C15 28.2755 14.776 28.5 14.5 28.5ZM13.6395 14.5L13.9395 15.4L12.5 17.1995L11.06 15.3995L11.36 14.4995H13.6395V14.5ZM11.065 17.0065C11.043 17.006 11.022 17 11 17H8.00004C7.99504 17 7.99055 17.0015 7.98555 17.0015C8.70655 16.5725 9.49055 16.252 10.309 16.0615L11.065 17.0065ZM8.00004 18H9.26855C9.09755 18.2945 9.00004 18.636 9.00004 19V19.5H10V19C10 18.4485 10.4485 18 11 18C11.5515 18 12 18.4485 12 19C12 19.5515 11.5515 20 11 20H8.00004C7.44854 20 7.00005 19.5515 7.00005 19C7.00005 18.4485 7.44854 18 8.00004 18ZM7.00005 20.722C7.29555 20.894 7.63404 21 8.00004 21H11C11.366 21 11.7045 20.894 12 20.722V24.565C11.759 24.6345 11.5355 24.757 11.3535 24.9395L10.793 25.5H9.00004C8.30005 25.5 7.61555 25.333 7.00005 25.0275V20.722ZM14 24.8875C13.734 24.6485 13.385 24.5 13 24.5V19C13 18.764 12.9515 18.5405 12.876 18.33L14 16.9255V24.8875ZM16.5 12V10C17.0515 10 17.5 10.4485 17.5 11C17.5 11.5515 17.0515 12 16.5 12ZM17.5 9.278C17.2045 9.106 16.866 9 16.5 9V8.5H17.5V9.278ZM17.398 5.5H14V1.729C15.7175 2.261 17.035 3.686 17.398 5.5ZM13 1.525V5.5H12V1.525C12.1645 1.509 12.331 1.5 12.5 1.5C12.669 1.5 12.8355 1.509 13 1.525ZM11 1.729V5.5H7.60205C7.96505 3.686 9.28255 2.261 11 1.729ZM6.49955 6.5H18.5V7.5H6.50005L6.49955 6.5ZM8.50004 8.5V9C8.13404 9 7.79555 9.106 7.50005 9.278V8.5H8.50004ZM7.50005 11C7.50005 10.4485 7.94854 10 8.50004 10V12C7.94854 12 7.50005 11.5515 7.50005 11ZM9.50004 12V8.5H15.5V12C15.5 12.827 14.827 13.5 14 13.5H11C10.173 13.5 9.50004 12.827 9.50004 12ZM1.10355 14.03C1.36655 13.615 2.02055 13.244 2.77055 13.0845C3.05605 13.024 3.32305 12.9975 3.56605 12.9975C4.27355 12.9975 4.77755 13.2215 4.94155 13.4775L4.99055 13.6295C5.00255 13.732 4.97605 13.845 4.89655 13.9705C4.63355 14.3855 3.97955 14.7565 3.22955 14.916C2.19755 15.1345 1.41805 14.907 1.12855 14.6015L1.03055 14.4545C1.02455 14.4395 1.01255 14.4255 1.00855 14.4105C0.982545 14.2985 1.01455 14.171 1.10355 14.03ZM2.45255 15.9995C2.76755 15.9995 3.09905 15.9655 3.43755 15.8935C4.24105 15.723 4.93854 15.3685 5.40354 14.9125L6.35504 17.867C6.13204 18.1895 6.00005 18.579 6.00005 19V21.897L2.04805 15.978C2.17955 15.991 2.31405 15.9995 2.45255 15.9995ZM4.00005 24C4.00005 23.0905 4.14755 22.2055 4.43805 21.359L6.00005 23.6985V24.344C5.78205 24.149 5.57804 23.937 5.40004 23.7L4.60005 24.3C5.63305 25.6775 7.27804 26.5 9.00004 26.5H10.5V28.5H8.50004C6.01855 28.5 4.00005 26.481 4.00005 24ZM9.50004 30.5H8.00004C7.44854 30.5 7.00005 30.0515 7.00005 29.5V29.287C7.47755 29.4225 7.97954 29.5 8.50004 29.5H12C12 30.0515 11.5515 30.5 11 30.5H9.50004ZM22.1005 25.5C20.9955 25.5 20.002 24.886 19.5075 23.8975L19 22.882V21H18V30.5H15V29.408C15.5805 29.201 16 28.651 16 28V27C16 26.349 15.5805 25.799 15 25.592V16.132C17.7115 16.862 19.985 18.776 21.155 21.3495L21.2305 21.515L21.004 23.442L21.997 23.5585L22.9445 15.5H25V22.601C25 24.1995 23.699 25.5 22.1005 25.5Z" fill="#333333"/>
</svg>
