<svg width="26" height="32" viewBox="0 0 26 32" fill="none" xmlns="http://www.w3.org/2000/svg">
<path d="M22.2376 20.9062L20.3595 20.3548L16.2735 17.686V17.0745C17.4565 16.1821 18.2689 14.8182 18.4199 13.2548C19.0132 13.1593 19.4678 12.6437 19.4678 12.024V10.3424C19.4678 10.3359 19.4671 10.3295 19.4668 10.323V8.19289C19.7032 8.02364 19.8532 7.74795 19.8532 7.4387V5.48933L22.673 5.00902C23.1364 4.93008 23.4697 4.56202 23.5024 4.09308C23.535 3.62414 23.2561 3.21339 22.8082 3.07095L13.3021 0.0473281C13.1037 -0.0157969 12.8942 -0.0157344 12.696 0.0472656L3.1898 3.07095C2.74186 3.21339 2.46286 3.62414 2.49555 4.09302C2.5163 4.39095 2.65867 4.64783 2.87842 4.81608V7.36527H2.85517C2.31986 7.36527 1.88436 7.80077 1.88436 8.33608V9.60145L1.25767 13.2797C1.14936 13.9159 1.63936 14.4982 2.28623 14.4982H4.40805C5.05348 14.4982 5.54517 13.9173 5.43661 13.2796L4.80992 9.60145V8.33608C4.80992 7.80077 4.37442 7.36527 3.83911 7.36527H3.81592V5.09258L6.1468 5.48958V7.4387C6.1468 7.74664 6.29611 8.02189 6.53136 8.19139L6.53223 10.3426V12.024C6.53223 12.6438 6.9868 13.1593 7.58011 13.2548C7.73105 14.8173 8.54255 16.1806 9.72442 17.073V17.6874L5.6393 20.3557L3.76273 20.9065C1.75467 21.4959 0.336795 23.3395 0.336795 25.4825V26.8795C0.336795 27.1383 0.546607 27.3482 0.805545 27.3482C1.06448 27.3482 1.27429 27.1384 1.27429 26.8795V25.4825C1.27429 23.7935 2.40611 22.2816 4.0268 21.806L5.7753 21.2928L12.7607 25.4436C12.9025 25.5278 13.0901 25.5323 13.2395 25.4436L20.2254 21.2925L21.9737 21.8058C23.5941 22.2815 24.7259 23.7933 24.7259 25.4821V30.0095C24.7259 30.5902 24.2535 31.0626 23.6728 31.0626H21.6067V29.0421C21.6067 28.7833 21.3969 28.5734 21.138 28.5734C20.8791 28.5734 20.6692 28.7832 20.6692 29.0421V31.0626H5.32873V29.0421C5.32873 28.7833 5.11892 28.5734 4.85998 28.5734C4.60105 28.5734 4.39123 28.7832 4.39123 29.0421V31.0626H2.3273C1.74661 31.0626 1.27417 30.5902 1.27417 30.0095V29.0706C1.27417 28.8118 1.06436 28.6019 0.80542 28.6019C0.546482 28.6019 0.33667 28.8117 0.33667 29.0706V30.0095C0.33667 31.1071 1.22961 32 2.32723 32H23.6727C24.7703 32 25.6632 31.1071 25.6632 30.0095V25.4821C25.6632 23.3896 24.2937 21.5099 22.2376 20.9062ZM4.40798 13.5607H2.28623C2.22067 13.5607 2.17067 13.5021 2.18179 13.4371L2.74867 10.1098H3.94555L4.51242 13.437C4.52348 13.502 4.47386 13.5607 4.40798 13.5607ZM3.87242 8.33608V9.17239H2.82173V8.33608C2.82173 8.31764 2.83667 8.3027 2.85511 8.3027H3.83898C3.85748 8.30264 3.87242 8.31764 3.87242 8.33608ZM11.3235 23.3232L11.5101 23.61L6.72455 20.7664L9.76211 18.7823C9.89986 20.3986 10.4326 21.9539 11.3235 23.3232ZM11.3203 21.2998C12.4236 21.4565 13.5757 21.4566 14.6797 21.2998C14.4664 21.8246 14.2035 22.3311 13.8907 22.812L13 24.181L12.1093 22.812C11.7965 22.3311 11.5336 21.8246 11.3203 21.2998ZM14.6764 23.3232C15.5674 21.9539 16.1001 20.3986 16.2378 18.7823L19.2754 20.7663L14.4899 23.61L14.6764 23.3232ZM17.4184 8.36745H18.5294V9.87358H17.9779C17.6694 9.87358 17.4183 9.62258 17.4183 9.31402V8.36745H17.4184ZM3.47392 3.96433L12.9802 0.940578C12.9924 0.936703 13.0055 0.936641 13.0179 0.940641L22.5242 3.96433C22.5438 3.97058 22.5707 3.97908 22.5673 4.02789C22.5639 4.07664 22.536 4.08133 22.5157 4.08483L19.3727 4.62014L18.1927 4.4742C17.9359 4.44239 17.7018 4.62502 17.67 4.88189C17.6382 5.13883 17.8208 5.37283 18.0777 5.40458L18.9158 5.50827V7.43002L7.08423 7.42958V5.5082L11.9347 4.90802C12.6412 4.8207 13.3574 4.8207 14.0634 4.90802L15.8992 5.13508C16.1561 5.16689 16.3902 4.98433 16.422 4.72745C16.4538 4.47052 16.2712 4.23652 16.0144 4.2047L14.1785 3.97764C13.3962 3.88083 12.6025 3.88083 11.8196 3.97764L6.62623 4.62027L3.4823 4.08483C3.46192 4.08133 3.43411 4.07664 3.43067 4.02789C3.4273 3.97908 3.45423 3.97052 3.47392 3.96433ZM7.46942 9.87358L7.4688 8.36745H8.58161V9.31408C8.58161 9.62258 8.33061 9.87364 8.02198 9.87364H7.46942V9.87358ZM8.50111 13.0138C8.47698 12.6321 8.15973 12.3331 7.77892 12.3331C7.60836 12.3331 7.46961 12.1944 7.46961 12.0239V10.8111H8.02198C8.84742 10.8111 9.51905 10.1395 9.51905 9.31408V8.36745H16.4809V9.31408C16.4809 10.1395 17.1525 10.8111 17.9779 10.8111H18.5303V12.0239C18.5303 12.1944 18.3915 12.3331 18.221 12.3331C17.8402 12.3331 17.5229 12.6321 17.4988 13.0139C17.3495 15.3807 15.3734 17.2348 12.9999 17.2348C10.6265 17.2348 8.65042 15.3807 8.50111 13.0138ZM13 18.1722C13.8337 18.1722 14.626 17.9816 15.3361 17.6426V17.9397C15.3361 18.7411 15.228 19.5317 15.0198 20.2942C13.7459 20.5371 12.3057 20.5469 10.9802 20.2942C10.772 19.5318 10.6639 18.7412 10.6639 17.9397C10.6639 17.9298 10.6625 17.9201 10.6619 17.9103C10.6617 17.9083 10.6619 17.9064 10.6618 17.9045V17.6417C11.3724 17.9812 12.1655 18.1722 13 18.1722Z" fill="#333333"/>
</svg>
