<svg width="32" height="32" viewBox="0 0 32 32" fill="none" xmlns="http://www.w3.org/2000/svg">
<path d="M29.875 12.5H24.5V10.5312C24.5 9.618 23.757 8.875 22.8438 8.875H22.0052V6.125H22.0037C22.0036 5.96238 21.9416 5.80256 21.8221 5.68306L16.3221 0.183062C16.2091 0.0699375 16.0528 0 15.8802 0H0.625C0.279813 0 0 0.279875 0 0.625V28C0 28.3451 0.279813 28.625 0.625 28.625H6.25V29.875C6.25 31.0467 7.20325 32 8.375 32H16.3125C16.6577 32 16.9375 31.7201 16.9375 31.375C16.9375 31.0299 16.6577 30.75 16.3125 30.75H8.375C7.8925 30.75 7.5 30.3575 7.5 29.875V20.7077L16.5 23.3251V23.9375C16.5 25.3849 17.6776 26.5625 19.125 26.5625C20.5724 26.5625 21.75 25.3849 21.75 23.9375V23.3251L30.75 20.7077V29.875C30.75 30.3575 30.3575 30.75 29.875 30.75H21.9375C21.5923 30.75 21.3125 31.0299 21.3125 31.375C21.3125 31.7201 21.5923 32 21.9375 32H29.875C31.0467 32 32 31.0467 32 29.875V14.625C32 13.4532 31.0467 12.5 29.875 12.5ZM23.25 10.5312V12.5H15V10.5312C15 10.3073 15.1823 10.125 15.4062 10.125H22.8438C23.0678 10.125 23.25 10.3073 23.25 10.5312ZM16.5052 2.13394L19.8713 5.5H16.5052V2.13394ZM1.25 27.375V1.25H15.2552V6.125C15.2552 6.47013 15.535 6.75 15.8802 6.75H20.7552V8.875H15.4062C14.493 8.875 13.75 9.618 13.75 10.5312V12.5H8.375C7.20325 12.5 6.25 13.4532 6.25 14.625V27.375H1.25ZM19.125 25.3125C18.3668 25.3125 17.75 24.6957 17.75 23.9375V22.0625H20.5V23.9375C20.5 24.6957 19.8832 25.3125 19.125 25.3125ZM21.125 20.8125H17.125C16.7798 20.8125 16.5 21.0924 16.5 21.4375V22.0232L7.5 19.4059V14.625C7.5 14.1425 7.8925 13.75 8.375 13.75H29.875C30.3575 13.75 30.75 14.1425 30.75 14.625V19.4059L21.75 22.0232V21.4375C21.75 21.0924 21.4702 20.8125 21.125 20.8125Z" fill="#333333"/>
</svg>
