<svg width="26" height="20" viewBox="0 0 26 20" fill="none" xmlns="http://www.w3.org/2000/svg">
<path d="M12.1359 15.6483C8.43888 15.6483 5.46069 12.6701 5.46069 8.97303C5.46069 5.27597 8.43888 2.29779 12.1359 2.29779C15.833 2.29779 18.8112 5.27597 18.8112 8.97303C18.8112 12.6701 15.833 15.6483 12.1359 15.6483ZM12.1359 3.32475C9.00371 3.32475 6.48765 5.8408 6.48765 8.97303C6.48765 12.1053 9.00371 14.6213 12.1359 14.6213C15.2682 14.6213 17.7842 12.1053 17.7842 8.97303C17.7842 5.8408 15.2682 3.32475 12.1359 3.32475Z" fill="#999999"/>
<path d="M17.1069 13.218L21.718 17.829L20.9919 18.5551L16.3809 13.944L17.1069 13.218Z" fill="#999999"/>
</svg>
