<svg width="32" height="32" viewBox="0 0 32 32" fill="none" xmlns="http://www.w3.org/2000/svg">
<path d="M5.5 22.5H6.5V23.5H5.5V22.5Z" fill="#333333"/>
<path d="M7.5 22.5H8.5V23.5H7.5V22.5Z" fill="#333333"/>
<path d="M3.5 22.5H4.5V23.5H3.5V22.5Z" fill="#333333"/>
<path d="M29 4.5H27.472C27.487 4.3725 27.5 4.245 27.5 4.1155V4C27.5 2.9695 26.717 2.119 25.715 2.0115C24.679 1.0355 23.332 0.5 21.9025 0.5C20.8945 0.5 19.9045 0.774 19.04 1.293C18.09 1.863 17.5 2.905 17.5 4.013V4.1155C17.5 4.245 17.513 4.3725 17.528 4.5H3C1.6215 4.5 0.5 5.6215 0.5 7V23C0.5 24.3785 1.6215 25.5 3 25.5H11.981C11.897 26.2975 11.4825 27.0205 10.833 27.5H8.5C7.673 27.5 7 28.173 7 29V30C7 30.827 7.673 31.5 8.5 31.5H23.5C24.327 31.5 25 30.827 25 30V29C25 28.173 24.327 27.5 23.5 27.5H21.167C20.5175 27.0205 20.103 26.2975 20.019 25.5H29C30.3785 25.5 31.5 24.3785 31.5 23V7C31.5 5.6215 30.3785 4.5 29 4.5ZM29 5.5C29.827 5.5 30.5 6.173 30.5 7V20.5H29.5V14.2985C29.5 12.9985 28.7775 11.8295 27.615 11.2485C27.311 11.0965 26.9865 10.9905 26.6505 10.9345L24.5 10.5765V9.726C24.9935 9.283 25.3385 8.681 25.4545 8H26C26.827 8 27.5 7.327 27.5 6.5C27.5 6.143 27.3695 5.8195 27.1605 5.5615C27.1705 5.5405 27.183 5.521 27.193 5.5H29ZM24.2175 11.543L24.424 11.5775L24.131 13.9235L23.1605 12.953L24.2175 11.543ZM22.5 9.4965C21.397 9.4965 20.5 8.5995 20.5 7.4965V5.975C21.233 5.8985 21.9215 5.619 22.5 5.164C23.0785 5.619 23.767 5.8985 24.5 5.975V7.4965C24.5 8.599 23.603 9.4965 22.5 9.4965ZM22.5 10.4965C22.851 10.4965 23.1865 10.4325 23.5 10.3215V10.8335L22.5 12.167L21.5 10.8335V10.3215C21.8135 10.4325 22.149 10.4965 22.5 10.4965ZM20.7825 11.543L21.84 12.953L20.8695 13.9235L20.5765 11.5775L20.7825 11.543ZM19.589 11.742L20.1305 16.0765L22.5 13.707L24.8695 16.0765L25.411 11.742L26.486 11.921C26.724 11.961 26.953 12.0355 27.168 12.143C27.9895 12.554 28.5 13.38 28.5 14.2985V20.5H16.5V14.2985C16.5 13.38 17.0105 12.554 17.8325 12.1425C18.047 12.035 18.2765 11.9605 18.514 11.921L19.589 11.742ZM25.5 6H26C26.2755 6 26.5 6.2245 26.5 6.5C26.5 6.7755 26.2755 7 26 7H25.5V6ZM18.5 4.013C18.5 3.2545 18.904 2.541 19.5545 2.1505C20.2635 1.725 21.0755 1.5 21.9025 1.5C23.1215 1.5 24.2675 1.9745 25.1465 2.8535L25.293 3H25.5C26.0515 3 26.5 3.4485 26.5 4V4.1155C26.5 4.434 26.431 4.744 26.3045 5.0315C26.206 5.011 26.1045 5 26 5H25.5V4.9965H24.9145C24.136 4.9965 23.404 4.6935 22.8535 4.143L22.5 3.7895L22.1465 4.143C21.596 4.6935 20.8645 4.9965 20.0855 4.9965H19.5V5H19C18.8955 5 18.794 5.011 18.6955 5.0315C18.569 4.744 18.5 4.434 18.5 4.1155V4.013ZM19 7C18.7245 7 18.5 6.7755 18.5 6.5C18.5 6.2245 18.7245 6 19 6H19.5V7H19ZM3 5.5H17.807C17.817 5.521 17.829 5.5405 17.8395 5.5615C17.6305 5.819 17.5 6.143 17.5 6.5C17.5 7.327 18.173 8 19 8H19.5455C19.6615 8.681 20.0065 9.283 20.5 9.726V10.5765L18.349 10.935C18.013 10.991 17.6885 11.097 17.385 11.2485C16.2225 11.83 15.5 12.9985 15.5 14.2985V20.5H1.5V7C1.5 6.173 2.173 5.5 3 5.5ZM24 29V30C24 30.2755 23.7755 30.5 23.5 30.5H8.5C8.2245 30.5 8 30.2755 8 30V29C8 28.7245 8.2245 28.5 8.5 28.5H23.5C23.7755 28.5 24 28.7245 24 29ZM19.765 27.5H12.235C12.664 26.9225 12.924 26.232 12.981 25.5H19.0185C19.076 26.232 19.336 26.9225 19.765 27.5ZM29 24.5H3C2.173 24.5 1.5 23.827 1.5 23V21.5H30.5V23C30.5 23.827 29.827 24.5 29 24.5Z" fill="#333333"/>
<path d="M6.809 13.5C7.011 13.5 7.2135 13.452 7.3945 13.362L9.776 12.171C10.2225 11.948 10.5 11.4995 10.5 11C10.5 10.5005 10.2225 10.052 9.7765 9.829L7.3945 8.638C7.2135 8.548 7.011 8.5 6.809 8.5C6.087 8.5 5.5 9.087 5.5 9.809V12.191C5.5 12.913 6.087 13.5 6.809 13.5ZM6.5 9.809C6.5 9.6385 6.6385 9.5 6.809 9.5C6.8565 9.5 6.9045 9.511 6.947 9.5325L9.329 10.7235C9.4345 10.7765 9.5 10.882 9.5 11C9.5 11.118 9.4345 11.2235 9.329 11.2765L6.947 12.4675C6.752 12.565 6.5 12.409 6.5 12.191V9.809Z" fill="#333333"/>
<path d="M4 15.5H12C12.827 15.5 13.5 14.827 13.5 14V8C13.5 7.173 12.827 6.5 12 6.5H4C3.173 6.5 2.5 7.173 2.5 8V14C2.5 14.827 3.173 15.5 4 15.5ZM3.5 8C3.5 7.7245 3.7245 7.5 4 7.5H12C12.2755 7.5 12.5 7.7245 12.5 8V14C12.5 14.2755 12.2755 14.5 12 14.5H4C3.7245 14.5 3.5 14.2755 3.5 14V8Z" fill="#333333"/>
<path d="M2.5 16.5H3.5V17.5H2.5V16.5Z" fill="#333333"/>
<path d="M4.5 16.5H13.5V17.5H4.5V16.5Z" fill="#333333"/>
<path d="M2.5 18.5H13.5V19.5H2.5V18.5Z" fill="#333333"/>
</svg>
