<svg width="32" height="28" viewBox="0 0 32 28" fill="none" xmlns="http://www.w3.org/2000/svg">
<path d="M30.6562 23.6249H29.7173C29.8377 23.3902 29.9062 23.1246 29.9062 22.8431L29.9056 6.59345C29.9056 5.64576 29.1346 4.8747 28.1869 4.8747H25.6562V4.3022C25.6562 3.85076 25.289 3.48345 24.8375 3.48345H24.0617V1.13126C24.0617 0.866948 23.9331 0.617635 23.7179 0.464261C23.5026 0.310948 23.2249 0.270948 22.9751 0.357385L21.4986 0.867948C21.2539 0.952573 21.1242 1.21945 21.2087 1.46414C21.2934 1.70876 21.5601 1.83882 21.8049 1.75395L23.1241 1.29776V12.5714L16.4688 14.873V3.59932L19.9148 2.40764C20.1595 2.32301 20.2892 2.05614 20.2046 1.81145C20.12 1.56682 19.8534 1.43689 19.6084 1.52164L16 2.76945L9.02494 0.357385C8.77506 0.270885 8.49744 0.310948 8.28213 0.464261C8.06688 0.617635 7.93831 0.866948 7.93831 1.13126V3.48339H7.1625C6.711 3.48339 6.34375 3.8507 6.34375 4.30214V4.87526H3.8125C2.86475 4.87526 2.09375 5.64632 2.09375 6.59401L2.09381 8.26095C2.09381 8.51989 2.30369 8.7297 2.56256 8.7297C2.82144 8.7297 3.03131 8.51982 3.03131 8.26095L3.03125 6.59407C3.03125 6.16326 3.38169 5.81282 3.8125 5.81282H6.34375V6.75032H4.4375C4.31319 6.75032 4.19394 6.7997 4.10606 6.88764C4.01813 6.97551 3.96875 7.09476 3.96875 7.21907L3.96937 22.2187C3.96937 22.4776 4.17925 22.6874 4.43813 22.6874L27.5625 22.6868C27.6868 22.6868 27.8061 22.6374 27.894 22.5495C27.9819 22.4616 28.0312 22.3424 28.0312 22.2181L28.0306 7.21845C28.0306 6.95951 27.8207 6.7497 27.5619 6.7497H25.6562V5.8122H28.1869C28.6177 5.8122 28.9681 6.16264 28.9681 6.59345L28.9688 22.8431C28.9688 23.2739 28.6183 23.6243 28.1875 23.6243L3.81312 23.6249C3.38231 23.6249 3.03187 23.2745 3.03187 22.8437L3.03144 10.2668C3.03144 10.0079 2.82156 9.79807 2.56269 9.79807C2.30381 9.79807 2.09394 10.0079 2.09394 10.2668L2.09437 22.8437C2.09437 23.1249 2.16269 23.3904 2.283 23.6249H1.34375C0.602813 23.6249 0 24.2278 0 24.9687V26.3437C0 27.0847 0.602813 27.6875 1.34375 27.6875H19.9801C20.239 27.6875 20.4488 27.4777 20.4488 27.2188C20.4488 26.9598 20.239 26.75 19.9801 26.75H1.34375C1.11975 26.75 0.9375 26.5678 0.9375 26.3438V24.9688C0.9375 24.7448 1.11975 24.5625 1.34375 24.5625H12.8438V24.8919C12.8438 25.5374 13.3689 26.0626 14.0144 26.0626H17.9856C18.6311 26.0626 19.1562 25.5374 19.1562 24.8919V24.5625H30.6562C30.8803 24.5625 31.0625 24.7448 31.0625 24.9688V26.3438C31.0625 26.5678 30.8803 26.75 30.6562 26.75H22.0266C21.7676 26.75 21.5578 26.9598 21.5578 27.2188C21.5578 27.4777 21.7676 27.6875 22.0266 27.6875H30.6562C31.3972 27.6875 32 27.0847 32 26.3438V24.9688C32 24.2278 31.3972 23.6249 30.6562 23.6249ZM23.5106 13.4298C23.8402 13.3157 24.0617 13.0047 24.0617 12.6559V4.42095H24.7188V15.0623H18.7897L23.5106 13.4298ZM8.87581 1.29776L15.5312 3.59932V14.873L8.87581 12.5714V1.29776ZM7.28125 4.42095H7.93831V12.656C7.93831 13.0048 8.15981 13.3158 8.48956 13.4299L13.2102 15.0624H7.28125V4.42095ZM27.0931 7.6872L27.0938 21.7493L4.90681 21.7499L4.90625 7.68782H6.34375V15.1811C6.34375 15.6325 6.711 15.9998 7.1625 15.9998H24.8375C25.289 15.9998 25.6562 15.6325 25.6562 15.1811V7.6872H27.0931ZM18.2188 24.8918C18.2188 25.0204 18.1141 25.125 17.9856 25.125H14.0144C13.8859 25.125 13.7812 25.0204 13.7812 24.8918V24.5624H18.2188V24.8918Z" fill="#333333"/>
</svg>
