<svg width="19" height="19" viewBox="0 0 19 19" fill="none" xmlns="http://www.w3.org/2000/svg">
<path d="M17.4365 0H1.43652C1.17131 0 0.916953 0.105357 0.729417 0.292893C0.54188 0.48043 0.436523 0.734784 0.436523 1V3.59C0.436523 4.113 0.649524 4.627 1.01952 4.997L6.43652 10.414V18C6.43672 18.1704 6.4804 18.3379 6.56342 18.4867C6.64645 18.6354 6.76607 18.7605 6.91097 18.8502C7.05586 18.9398 7.22124 18.9909 7.39143 18.9988C7.56162 19.0066 7.731 18.9709 7.88352 18.895L11.8835 16.895C12.2225 16.725 12.4365 16.379 12.4365 16V10.414L17.8535 4.997C18.2235 4.627 18.4365 4.113 18.4365 3.59V1C18.4365 0.734784 18.3312 0.48043 18.1436 0.292893C17.9561 0.105357 17.7017 0 17.4365 0ZM10.7295 9.293C10.6365 9.38571 10.5627 9.4959 10.5124 9.61724C10.4621 9.73857 10.4363 9.86866 10.4365 10V15.382L8.43652 16.382V10C8.43671 9.86866 8.41092 9.73857 8.36064 9.61724C8.31035 9.4959 8.23657 9.38571 8.14352 9.293L2.43652 3.59V2H16.4375L16.4395 3.583L10.7295 9.293Z" fill="#333333"/>
</svg>
