<svg xmlns="http://www.w3.org/2000/svg" xmlns:xlink="http://www.w3.org/1999/xlink" width="30" height="26" viewBox="0 0 30 26">
    <defs>
        <path id="pf0f49b8wa" d="M0 25L27.806 25 27.806 0.078 0 0.078z"/>
    </defs>
    <g fill="none" fill-rule="evenodd">
        <g>
            <g>
                <g>
                    <g>
                        <g>
                            <g>
                                <g stroke="#000000" stroke-linejoin="round">
                                    <path d="M18.469 5L12.66 0.218 0.084 9.873" transform="translate(-303 -19) translate(51) translate(232) translate(0 14) translate(17) translate(4 5) translate(0 1)"/>
                                    <path d="M28 9.873L19.964 3.873 12 9.873" transform="translate(-303 -19) translate(51) translate(232) translate(0 14) translate(17) translate(4 5) translate(0 1)"/>
                                </g>
                                <g transform="translate(-303 -19) translate(51) translate(232) translate(0 14) translate(17) translate(4 5)">
                                    <path stroke="#000000" stroke-linejoin="round" d="M3.796 8L3.796 24.851 24.452 24.851 24.452 8.198"/>
                                    <mask id="plbrzkt47b" fill="#fff">
                                        <use xlink:href="#pf0f49b8wa"/>
                                    </mask>
                                    <path stroke="#000000" stroke-linejoin="round" d="M11.556 24.851L16.666 24.851 16.666 15.069 11.556 15.069z" mask="url(#plbrzkt47b)"/>
                                </g>
                            </g>
                        </g>
                    </g>
                </g>
            </g>
        </g>
    </g>
</svg>
