<svg xmlns="http://www.w3.org/2000/svg" width="20" height="20" fill="none" viewBox="0 0 20 20">
    <path fill="#6264A7" d="M12.146 3.146c.196-.195.512-.195.708 0l3 3c.195.196.195.512 0 .708l-3 3c-.196.195-.512.195-.708 0-.195-.196-.195-.512 0-.708L14.293 7H4.5c-.276 0-.5-.224-.5-.5s.224-.5.5-.5h9.793l-2.147-2.146c-.195-.196-.195-.512 0-.708zm-4.292 7c.195.196.195.512 0 .708L5.707 13H15.5c.276 0 .5.224.5.5s-.224.5-.5.5H5.707l2.147 2.146c.195.196.195.512 0 .708-.196.195-.512.195-.708 0l-3-3c-.195-.196-.195-.512 0-.708l3-3c.196-.195.512-.195.708 0z"/>
</svg>
