<svg xmlns="http://www.w3.org/2000/svg" width="20" height="20" fill="none" viewBox="0 0 20 20">
    <path fill="#6264A7" d="M7 11c.552 0 1-.448 1-1s-.448-1-1-1-1 .448-1 1 .448 1 1 1zm1 2c0 .552-.448 1-1 1s-1-.448-1-1 .448-1 1-1 1 .448 1 1zm2-2c.552 0 1-.448 1-1s-.448-1-1-1-1 .448-1 1 .448 1 1 1zm1 2c0 .552-.448 1-1 1s-1-.448-1-1 .448-1 1-1 1 .448 1 1zm2-2c.552 0 1-.448 1-1s-.448-1-1-1-1 .448-1 1 .448 1 1 1zm4-5.5C17 4.12 15.88 3 14.5 3h-9C4.12 3 3 4.12 3 5.5v9C3 15.88 4.12 17 5.5 17h9c1.38 0 2.5-1.12 2.5-2.5v-9zM4 7h12v7.5c0 .828-.672 1.5-1.5 1.5h-9c-.828 0-1.5-.672-1.5-1.5V7zm1.5-3h9c.828 0 1.5.672 1.5 1.5V6H4v-.5C4 4.672 4.672 4 5.5 4z"/>
</svg>
