<svg xmlns="http://www.w3.org/2000/svg" width="16" height="16" fill="none" viewBox="0 0 16 16">
    <path fill="#212121" d="M3.714 5.258C3.523 4 4.41 2.87 5.765 2.456c.5-.153 1.031.11 1.214.598l.435 1.16c.143.382.04.812-.26 1.088L5.86 6.487c-.13.119-.187.298-.152.47l.012.052.031.13c.029.11.072.266.132.45.12.368.312.862.597 1.355.285.494.617.907.875 1.195.13.144.242.26.324.339.04.04.073.07.097.093l.04.036c.131.117.314.156.482.103l1.673-.527c.389-.122.813.004 1.072.319l.792.961c.33.4.29.988-.089 1.341-1.037.967-2.463 1.165-3.455.368-.957-.77-2.083-1.912-3.024-3.529-.943-1.621-1.37-3.17-1.554-4.385zm3.043 1.765l1.072-.984c.601-.552.807-1.412.521-2.176l-.434-1.16C7.547 1.72 6.477 1.193 5.473 1.5c-1.683.515-3.034 2.024-2.748 3.909.2 1.316.661 2.99 1.678 4.738 1.013 1.741 2.227 2.974 3.262 3.805 1.488 1.195 3.474.787 4.764-.415.766-.714.844-1.9.179-2.708l-.792-.962c-.518-.63-1.367-.881-2.144-.636l-1.389.437c-.053-.055-.115-.12-.182-.196-.229-.254-.514-.61-.754-1.027-.24-.415-.406-.84-.512-1.165-.032-.096-.058-.183-.078-.256z"/>
</svg>
