<svg width="22" height="16" viewBox="0 0 22 16" fill="none" xmlns="http://www.w3.org/2000/svg">
<path d="M13.5 8C13.5 8.18008 13.4032 8.34624 13.2465 8.43502L10.6198 9.92351C10.1198 10.2068 9.5 9.84566 9.5 9.27099V6.72907C9.5 6.1544 10.1198 5.79323 10.6198 6.07654L13.2465 7.56499C13.4032 7.65377 13.5 7.81993 13.5 8ZM11 2C7.68629 2 5 4.68629 5 8C5 11.3137 7.68629 14 11 14C14.3137 14 17 11.3137 17 8C17 4.68629 14.3137 2 11 2ZM6 8C6 5.23858 8.23858 3 11 3C13.7614 3 16 5.23858 16 8C16 10.7614 13.7614 13 11 13C8.23858 13 6 10.7614 6 8Z" fill="#212121"/>
</svg>
