<svg xmlns="http://www.w3.org/2000/svg" width="16" height="16" fill="none" viewBox="0 0 16 16">
    <path fill="#212121" d="M6.5 7v4c0 .276.224.5.5.5s.5-.224.5-.5V7c0-.276-.224-.5-.5-.5s-.5.224-.5.5zM9 6.5c.276 0 .5.224.5.5v4c0 .276-.224.5-.5.5s-.5-.224-.5-.5V7c0-.276.224-.5.5-.5zM10 4h3c.276 0 .5.224.5.5s-.224.5-.5.5h-.553l-.752 6.776C11.554 13.042 10.484 14 9.21 14H6.79c-1.274 0-2.344-.958-2.485-2.224L3.552 5H3c-.276 0-.5-.224-.5-.5S2.724 4 3 4h3c0-1.105.895-2 2-2s2 .895 2 2zM8 3c-.552 0-1 .448-1 1h2c0-.552-.448-1-1-1zM4.559 5l.74 6.666c.085.76.727 1.334 1.491 1.334h2.42c.764 0 1.406-.575 1.49-1.334L11.442 5H4.56z"/>
</svg>
