<svg xmlns="http://www.w3.org/2000/svg" width="12" height="14" fill="none" viewBox="0 0 12 14">
    <path fill="#6264A7" d="M5.48 9.022c-.03-.08-.056-.187-.079-.317-.022-.13-.034-.259-.034-.386 0-.198.04-.377.117-.537.082-.163.181-.314.298-.454.12-.14.25-.275.386-.405.14-.13.269-.257.386-.381.12-.124.22-.254.298-.39.08-.137.122-.287.122-.45 0-.146-.03-.273-.088-.38-.059-.111-.14-.203-.244-.274-.101-.075-.219-.13-.352-.166-.13-.036-.27-.054-.42-.054-.485 0-.947.217-1.387.65V4.35c.534-.313 1.088-.47 1.66-.47.264 0 .513.035.748.103.234.069.44.17.615.303.176.134.314.3.415.498.1.199.151.43.151.694 0 .25-.042.473-.127.668-.084.196-.192.376-.322.542-.127.163-.265.308-.415.435-.146.127-.285.254-.415.38-.127.128-.233.26-.317.396-.085.137-.127.288-.127.455 0 .14.018.266.053.38.036.114.072.21.108.288H5.48zm.556 2.066c-.185 0-.35-.064-.493-.19-.137-.124-.205-.277-.205-.46 0-.185.068-.338.205-.459.14-.13.304-.195.493-.195.186 0 .348.065.488.195.137.12.205.274.205.46 0 .182-.068.335-.205.459-.143.126-.306.19-.488.19z"/>
    <circle cx="6" cy="7.25" r="5.5" stroke="#6264A7"/>
</svg>
