<svg width="21" height="16" viewBox="0 0 21 16" fill="none" xmlns="http://www.w3.org/2000/svg">
<path d="M11.4958 8C12.3242 8 12.9958 8.67157 12.9958 9.5L12.995 10.2484C13.0979 12.0849 11.6833 13.0008 9.06019 13.0008C6.44552 13.0008 5 12.0969 5 10.2746V9.5C5 8.67157 5.67157 8 6.5 8H11.4958ZM15.4964 8C16.3248 8 16.9964 8.67157 16.9964 9.5L16.9956 10.0266C17.0861 11.674 15.8362 12.5 13.5516 12.5C13.2415 12.5 12.9499 12.4849 12.6777 12.4547C12.9683 12.1873 13.1848 11.8681 13.3228 11.4974L13.5516 11.5C15.3358 11.5 16.0491 11.0286 15.9964 10.054V9.5C15.9964 9.22386 15.7725 9 15.4964 9L13.4328 8.99998C13.3315 8.60667 13.1137 8.26018 12.8182 7.99959L15.4964 8ZM11.4958 9H6.5C6.22386 9 6 9.22386 6 9.5V10.2746C6 11.4206 6.92794 12.0008 9.06019 12.0008C11.184 12.0008 12.0598 11.4337 11.9958 10.2763V9.5C11.9958 9.22386 11.7719 9 11.4958 9ZM9 2C10.3809 2 11.5004 3.11947 11.5004 4.5004C11.5004 5.88134 10.3809 7.00081 9 7.00081C7.61906 7.00081 6.49959 5.88134 6.49959 4.5004C6.49959 3.11947 7.61906 2 9 2ZM14 3C15.1046 3 16 3.89543 16 5C16 6.10457 15.1046 7 14 7C12.8954 7 12 6.10457 12 5C12 3.89543 12.8954 3 14 3ZM9 3C8.17135 3 7.4996 3.67175 7.4996 4.5004C7.4996 5.32906 8.17135 6.00081 9 6.00081C9.82865 6.00081 10.5004 5.32906 10.5004 4.5004C10.5004 3.67175 9.82865 3 9 3ZM14 4C13.4477 4 13 4.44772 13 5C13 5.55228 13.4477 6 14 6C14.5523 6 15 5.55228 15 5C15 4.44772 14.5523 4 14 4Z" fill="#212121"/>
</svg>
