<svg xmlns="http://www.w3.org/2000/svg" width="20" height="20" fill="none" viewBox="0 0 20 20">
    <path fill="#6264A7" d="M18 4.5v5.757c-.307-.253-.642-.474-1-.657V4.5c0-.276-.224-.5-.5-.5H12c-.828 0-1.5.672-1.5 1.5v5.225c-.409.433-.748.933-1 1.48V5.5C9.5 4.672 8.828 4 8 4H3.5c-.276 0-.5.224-.5.5v11c0 .276.224.5.5.5H8c.432 0 .822-.183 1.095-.475.069.362.172.711.308 1.045-.4.271-.883.43-1.403.43H3.5c-.828 0-1.5-.672-1.5-1.5v-11C2 3.672 2.672 3 3.5 3H8c.818 0 1.544.393 2 1 .456-.607 1.182-1 2-1h4.5c.828 0 1.5.672 1.5 1.5z"/>
    <path fill="#6264A7" d="M13.01 14c.047-1.128.25-2.123.54-2.85.167-.417.353-.722.535-.914.18-.19.32-.236.415-.236.094 0 .235.046.415.236.182.192.368.497.535.914.29.727.493 1.722.54 2.85h-2.98zM12.621 10.779c.064-.16.134-.314.208-.459-1.51.604-2.616 2.003-2.802 3.68h1.982c.047-1.234.268-2.36.612-3.221zM16.378 10.779c-.064-.16-.133-.314-.208-.459 1.51.604 2.617 2.003 2.802 3.68H16.99c-.047-1.234-.267-2.36-.612-3.221zM16.99 15h1.982c-.185 1.677-1.291 3.076-2.802 3.68.075-.145.144-.299.208-.459.345-.862.565-1.987.612-3.221zM14.915 18.764c-.18.19-.32.236-.415.236-.095 0-.235-.046-.415-.236-.182-.192-.368-.497-.535-.914-.29-.727-.493-1.722-.54-2.85h2.98c-.047 1.128-.25 2.123-.54 2.85-.167.417-.353.722-.535.913zM10.027 15c.186 1.677 1.292 3.076 2.802 3.68-.074-.145-.144-.299-.208-.459-.344-.862-.565-1.987-.612-3.221h-1.982z"/>
</svg>
