<svg xmlns="http://www.w3.org/2000/svg" width="131" height="35" fill="none" viewBox="0 0 131 35">
    <g clip-path="url(#clip0)">
        <path fill="#fff" d="M8.88 23.281c-3.152-4.427-2.126-10.573 2.274-13.743 3.404-2.453 7.982-2.453 11.386 0l4.653-4.681C20.206-.871 9.935.176 4.242 7.205c-4.906 6.041-4.906 14.715 0 20.757l4.637-4.681zM24.874 11.96c3.092 4.472 1.992 10.603-2.438 13.714-3.36 2.363-7.834 2.348-11.193 0l-4.668 4.695c6.987 5.713 17.273 4.651 22.952-2.392 4.875-6.027 4.875-14.67 0-20.698l-4.653 4.681zM68.77 1.746h-6.837V33.45h6.837V1.746zM57.28 26.975H44.51V1.746h-6.837V33.45H57.28v-6.475zM80.81 1.746h-7.268L85.835 33.45h7.27L80.81 1.746zM130.46 8.072V1.746h-20.707V33.45h20.603l.015-6.475h-13.869v-6.356h12.739v-6.326h-12.739V8.072h13.958zM94.903 28.814L105.62 1.746h-7.284l-7.03 17.766 3.597 9.302z"/>
    </g>
    <defs>
        <clipPath id="clip0">
            <path fill="#fff" d="M0 0H131V34.195H0z" transform="translate(0 .464)"/>
        </clipPath>
    </defs>
</svg>
