<svg xmlns="http://www.w3.org/2000/svg" width="18" height="20" fill="none" viewBox="0 0 18 20">
    <path fill="#6264A7" d="M9.663 10.607c-.082-.012-.166-.019-.251-.019H3.647c-.91 0-1.647.738-1.647 1.647v1.236c0 1.691 1.72 2.882 4.53 2.882.603 0 1.155-.055 1.652-.158-.115-.248-.209-.51-.278-.78-.407.074-.866.114-1.375.114-2.405 0-3.705-.9-3.705-2.058v-1.236c0-.454.368-.823.823-.823H8.8c.251-.304.541-.575.863-.805zm2.631-.842c1.137 0 2.059-.922 2.059-2.06 0-1.136-.922-2.058-2.059-2.058s-2.059.922-2.059 2.059.922 2.059 2.06 2.059zm-1.235-2.06c0-.681.553-1.234 1.235-1.234s1.235.553 1.235 1.235-.553 1.235-1.235 1.235-1.235-.553-1.235-1.235zm-1.647-.823C9.412 5.29 8.122 4 6.529 4 4.938 4 3.647 5.29 3.647 6.882s1.29 2.883 2.882 2.883 2.883-1.29 2.883-2.883zm-4.941 0c0-1.137.921-2.058 2.058-2.058 1.137 0 2.06.921 2.06 2.058 0 1.137-.923 2.06-2.06 2.06s-2.058-.923-2.058-2.06zM16 14.294C16 16.341 14.34 18 12.294 18c-2.047 0-3.706-1.66-3.706-3.706 0-2.047 1.66-3.706 3.706-3.706 2.047 0 3.706 1.66 3.706 3.706zm-1.768-1.526c-.16-.161-.421-.161-.582 0l-2.18 2.18-.532-.533c-.16-.161-.421-.161-.582 0-.16.16-.16.421 0 .582l.823.824c.161.16.422.16.583 0l2.47-2.471c.161-.16.161-.421 0-.582z"/>
</svg>
