<svg xmlns="http://www.w3.org/2000/svg" width="10" height="10" fill="none" viewBox="0 0 10 10">
    <path fill="#6BB700" d="M5 0c.459 0 .9.06 1.323.18.423.121.82.29 1.192.508.37.219.708.48 1.01.787.306.302.568.64.787 1.01.218.371.387.769.507 1.192C9.94 4.1 10 4.54 10 5c0 .456-.06.897-.18 1.323-.121.423-.29.82-.508 1.192-.219.37-.48.71-.787 1.015-.302.303-.64.563-1.01.782-.371.218-.77.387-1.197.507C5.895 9.94 5.456 10 5 10c-.456 0-.897-.06-1.323-.18-.423-.121-.82-.29-1.192-.508-.37-.219-.71-.479-1.015-.782-.303-.306-.563-.644-.782-1.015C.47 7.144.301 6.746.181 6.323.06 5.897 0 5.456 0 5c0-.456.06-.895.18-1.318.121-.427.29-.826.508-1.197.219-.37.479-.708.782-1.01.306-.306.644-.568 1.015-.787.371-.218.769-.387 1.192-.507C4.103.06 4.544 0 5 0zm1.646 3.555c-.13 0-.241.045-.333.136L4.546 5.47l-.63-.625c-.091-.091-.2-.137-.327-.137-.062 0-.12.013-.176.04-.055.025-.106.06-.151.107-.043.042-.077.09-.103.146-.026.055-.039.114-.039.176 0 .13.046.24.137.332l.957.957c.091.091.202.137.332.137s.24-.046.332-.137l2.1-2.11c.09-.09.136-.201.136-.332 0-.061-.013-.12-.039-.175-.026-.056-.062-.105-.107-.147-.043-.045-.091-.081-.147-.107-.055-.026-.114-.04-.175-.04z"/>
</svg>
