<svg xmlns="http://www.w3.org/2000/svg" width="16" height="20" fill="none" viewBox="0 0 16 20">
    <path fill="#6264A7" d="M3.6 4C2.716 4 2 4.737 2 5.647v9.882c0 .91.716 1.648 1.6 1.648h3.406c-.203-.253-.38-.53-.526-.824H3.6c-.442 0-.8-.369-.8-.824V5.647c0-.455.358-.823.8-.823H10c.442 0 .8.368.8.823v4.136c.275.026.542.077.8.152V5.647C11.6 4.737 10.884 4 10 4H3.6zm1.6 6.588c0 .455-.358.824-.8.824-.442 0-.8-.369-.8-.824 0-.455.358-.823.8-.823.442 0 .8.368.8.823zm8.8 3.706C14 16.341 12.388 18 10.4 18s-3.6-1.66-3.6-3.706c0-2.047 1.612-3.706 3.6-3.706s3.6 1.66 3.6 3.706zm-5.483-.291l-.002.002c-.037.039-.065.084-.085.131-.019.048-.03.1-.03.156v.005c0 .054.011.107.03.155.02.048.049.094.087.133l1.6 1.647c.156.161.41.161.566 0 .156-.16.156-.421 0-.582l-.917-.944H12c.22 0 .4-.184.4-.412 0-.227-.18-.412-.4-.412H9.766l.917-.944c.156-.16.156-.421 0-.582-.156-.16-.41-.16-.566 0l-1.6 1.647z"/>
</svg>
