<svg width="97" height="70" viewBox="0 0 97 70" fill="none" xmlns="http://www.w3.org/2000/svg">
<g clip-path="url(#clip0)">
<path d="M48.6033 1.91606C62.1469 5.287 73.3631 12.9147 80.3205 20.6408C87.3276 28.4899 90.1254 36.4375 87.9713 43.2778C85.7925 50.1919 79.1073 55.2852 70.5157 59.665C61.8745 63.9218 51.3021 67.4649 40.4574 68.4984C19.2135 71.0819 1.5598 57.7704 0.0742195 34.5675C-1.46088 11.463 21.021 -5.66242 48.6033 1.91606Z" fill="#EAF4FE"/>
<path d="M49.0035 13.1618C43.9054 9.86127 37.826 8.78625 31.9274 10.1087C26.0243 11.4585 20.9622 15.0659 17.7087 20.2806C14.4866 25.4726 13.4297 31.6289 14.7302 37.5997C17.4419 50.039 29.5913 57.8779 41.7705 55.1016C47.7006 53.7564 52.7357 50.1443 55.9893 44.9297C59.2113 39.7377 60.2682 33.5814 58.9677 27.6106C57.6449 21.6079 54.1015 16.4623 49.0035 13.1618ZM52.4143 42.6238C49.7654 46.8722 45.6753 49.8019 40.8637 50.9171C30.9577 53.1833 21.0841 46.8069 18.8946 36.711C17.8239 31.8504 18.6885 26.8441 21.3329 22.6231C23.9818 18.3748 28.0719 15.4451 32.8789 14.3572C37.6858 13.2694 42.6077 14.1451 46.756 16.8313C50.9043 19.5176 53.7819 23.6753 54.848 28.5633C55.8964 33.3919 55.0317 38.3983 52.4143 42.6238Z" fill="#30363D"/>
<path opacity="0.2" d="M21.3564 22.654C18.7436 26.8522 17.879 31.8585 18.9273 36.6872C21.126 46.7282 30.9503 53.0681 40.8518 50.8292C45.6318 49.7367 49.7219 46.807 52.3663 42.5861C54.9791 38.3879 55.8391 33.4089 54.7954 28.5529C53.7247 23.6923 50.874 19.5392 46.7211 16.8803C42.5728 14.1941 37.6779 13.323 32.8979 14.4155C28.0686 15.4714 23.9784 18.401 21.3564 22.654Z" fill="white"/>
<path opacity="0.2" d="M31.8597 48.8795C27.8557 46.3017 25.092 42.2743 24.0468 37.5844C23.0285 32.8992 23.8618 28.0817 26.3732 24.0041C28.9115 19.9311 32.8521 17.0861 37.4925 16.0246L37.5194 16.0292C39.309 15.6045 41.1291 15.495 42.9303 15.6641C39.7709 14.5001 36.3749 14.2537 33.0026 15.0262L32.9756 15.0216C28.3623 16.0877 24.3992 18.9007 21.8564 23.0011C19.3181 27.074 18.4848 31.8915 19.53 36.5814C20.5482 41.2666 23.3389 45.2986 27.3429 47.8764C29.7955 49.4543 32.5198 50.4025 35.3362 50.6336C34.138 50.1737 32.9582 49.6041 31.8597 48.8795Z" fill="white"/>
<path d="M41.0948 51.9591C30.6084 54.3527 20.1829 47.5977 17.8638 36.9402C16.7307 31.7851 17.6416 26.5029 20.4362 22.0522C23.2354 17.5742 27.5798 14.4613 32.65 13.3052L32.2428 11.4314C32.2159 11.4268 32.2159 11.4268 32.2113 11.4542C26.6512 12.7232 21.8971 16.1319 18.8584 21.0478C15.7974 25.9317 14.7949 31.7618 16.0433 37.3877C18.6061 49.0735 30.0311 56.4797 41.5513 53.8695L41.0948 51.9591Z" fill="#474F59"/>
<path d="M60.7251 44.6038C59.2799 43.6512 57.8615 42.7031 56.4209 41.7231C55.7452 41.2971 54.9651 41.1632 54.2736 41.3263C53.9751 41.9515 53.6273 42.54 53.2796 43.1285C52.9003 43.7398 52.4988 44.3191 52.0703 44.8937C52.229 45.5974 52.6659 46.2924 53.3416 46.7184C54.7869 47.671 56.2275 48.6511 57.6728 49.6037C59.0688 50.5197 60.3233 49.805 61.1723 48.3725C62.0213 46.94 62.1257 45.4925 60.7251 44.6038Z" fill="#30363D"/>
<path d="M56.4682 50.8754L82.6797 67.8354L87.646 59.8817L61.4345 42.9216L56.4682 50.8754Z" fill="#2B83FD"/>
<path d="M58.9741 46.856L85.1807 63.8066L87.2309 60.523L61.0243 43.5724L58.9741 46.856Z" fill="#0063CB"/>
<path d="M63.2907 44.1403L58.3303 52.0867L56.454 50.8906L61.4191 42.9167L63.2907 44.1403Z" fill="#E5E8EC"/>
<path d="M59.1855 47.4561L60.4746 48.29L62.6742 44.7665L61.3851 43.9326L59.1855 47.4561Z" fill="#CDD5D7"/>
<path d="M89.4961 61.0874C90.281 64.6621 88.0495 68.2267 84.5361 69.0335C83.9138 68.6165 83.287 68.2269 82.6647 67.81C84.327 65.1628 85.9893 62.5156 87.6246 59.8639C88.2469 60.2808 88.8692 60.6978 89.4961 61.0874Z" fill="#E5E8EC"/>
<path d="M85.2073 64.2817L86.8184 65.3242L89.0181 61.801L87.407 60.7585L85.2073 64.2817Z" fill="#CDD5D7"/>
</g>
<defs>
<clipPath id="clip0">
<rect width="97" height="70" fill="white"/>
</clipPath>
</defs>
</svg>
