<svg width="12" height="12" viewBox="0 0 12 12" fill="none" xmlns="http://www.w3.org/2000/svg">
<path d="M0.5 0C0.223858 0 0 0.223858 0 0.5C0 0.776142 0.223858 1 0.5 1H0.745699C0.968939 1 1.16513 1.14799 1.22646 1.36264L2.81202 6.91208C2.996 7.55603 3.58458 8 4.2543 8H8.82297C9.43632 8 9.98789 7.62657 10.2157 7.05709L11.69 3.37139C11.9527 2.71453 11.4689 2 10.7615 2H2.44858L2.18798 1.08792C2.004 0.443966 1.41542 0 0.745699 0H0.5ZM3.77354 6.63736L2.73429 3H10.7615L9.28721 6.6857C9.21127 6.87552 9.02742 7 8.82297 7H4.2543C4.03106 7 3.83487 6.85201 3.77354 6.63736ZM4.5 12C5.32843 12 6 11.3284 6 10.5C6 9.67157 5.32843 9 4.5 9C3.67157 9 3 9.67157 3 10.5C3 11.3284 3.67157 12 4.5 12ZM4.5 11C4.22386 11 4 10.7761 4 10.5C4 10.2239 4.22386 10 4.5 10C4.77614 10 5 10.2239 5 10.5C5 10.7761 4.77614 11 4.5 11ZM8.5 12C9.32843 12 10 11.3284 10 10.5C10 9.67157 9.32843 9 8.5 9C7.67157 9 7 9.67157 7 10.5C7 11.3284 7.67157 12 8.5 12ZM8.5 11C8.22386 11 8 10.7761 8 10.5C8 10.2239 8.22386 10 8.5 10C8.77614 10 9 10.2239 9 10.5C9 10.7761 8.77614 11 8.5 11Z" fill="white"/>
</svg>
