<svg width="104" height="80" viewBox="0 0 104 80" fill="none" xmlns="http://www.w3.org/2000/svg">
<path d="M42.3186 8.93701C62.569 12.8134 96.0117 7.67391 94.6252 29.8872C94.4992 40.4711 87.735 54.7137 81.265 63.1199C74.3748 71.9617 67.7367 74.967 58.1996 72.2665C39.4617 66.5172 6.69125 52.8408 9.50614 30.3227C10.3884 19.2161 15.6401 11.1148 20.8077 8.37079C26.3955 5.23481 31.8993 7.49969 42.3186 8.93701Z" fill="#EAF4FE"/>
<path d="M95.9503 7.03994C95.9503 7.03994 92.4758 7.35214 91.3785 5.97843C90.2813 4.60472 93.512 5.04181 92.0491 6.04087C90.5861 7.03993 87.3553 5.22914 88.2697 3.60566C89.1231 1.98219 90.4642 1.23289 91.8052 2.23195C93.0853 3.16857 92.0491 3.73055 91.5614 2.79393C91.0737 1.85731 93.0853 -0.453022 94.7312 2.85637C96.438 6.10332 95.5236 6.35308 94.9141 4.23008C94.3655 2.04463 95.7065 0.670921 96.6818 3.23101C97.6572 5.79111 96.1332 7.03993 95.7675 5.91599C95.4017 4.79205 98.6325 2.35684 98.8763 4.54228C99.1201 6.72773 99.303 9.28782 97.7181 9.35026C96.1332 9.4127 99.8516 3.6681 101.376 8.3512C102.839 13.0343 99.8516 11.5982 99.7907 10.5366C99.6688 9.47515 105.216 11.4733 100.949 12.9719C96.6209 14.4705 98.2667 12.6597 97.901 11.5982C97.5353 10.5366 101.497 13.3465 99.364 15.5944C97.2305 17.8423 95.1579 17.4052 95.5846 15.0949C96.0113 12.7221 98.4496 13.9709 97.6572 15.9066C96.8647 17.8423 98.0839 19.0287 98.5106 19.216C98.9982 19.4033 95.5237 20.8395 94.8531 18.9662C94.1216 16.9681 93.2073 7.66435 95.9503 7.03994Z" fill="#163F59"/>
<path d="M90.7077 5.29199L88.6961 7.91453V8.91359L86.9893 11.2864L87.7817 12.6601L87.416 16.8436C87.416 16.8436 87.1112 19.0915 89.1837 18.2798C91.2563 17.468 91.2563 17.468 91.2563 17.468C91.2563 17.468 92.9631 23.0878 91.8049 24.0868C90.5858 25.0859 89.7324 26.2098 90.22 26.8342C90.6467 27.3962 91.8049 26.9591 93.0241 26.8342C95.1576 26.5845 96.6206 27.0216 97.5349 27.0216C98.2055 27.084 97.2911 26.6469 97.1082 25.2108C96.9253 23.8371 95.7672 15.5948 95.7672 15.5948C95.7672 15.5948 96.1329 15.7197 96.6206 15.5324C97.1082 15.2826 99.4246 13.5342 98.6322 12.4727C97.9007 11.4112 96.1938 11.9108 95.6452 12.9098C95.0966 13.9089 94.0603 12.8474 94.3042 10.7244C94.548 8.60138 98.7541 7.35255 93.9384 6.6657C90.8296 6.16617 90.7077 5.29199 90.7077 5.29199Z" fill="#E9D6B8"/>
<path d="M73.2731 28.6442L62.3008 18.4038C62.3008 18.4038 61.5693 19.278 61.8741 20.1522C62.6056 22.4001 65.6535 25.7094 67.3603 27.6451C69.6767 30.2052 72.6636 32.3282 72.6636 32.3282L73.2731 28.6442Z" fill="#E9D6B8"/>
<path d="M62.3017 21.1517L60.8997 19.9653C60.8997 19.9653 60.2292 19.4033 59.6196 18.5291C59.071 17.6549 59.3758 16.7808 60.1073 16.0315C60.8387 15.2822 61.3874 15.2197 61.3874 15.2197C61.3874 15.2197 62.6065 15.7817 62.4236 16.8432C62.2408 17.9047 63.338 20.3399 62.9113 20.5272C62.6065 20.7146 62.3017 21.1517 62.3017 21.1517Z" fill="#E9D6B8"/>
<path d="M61.9353 15.4065L60.5943 13.9079L59.1922 12.5342L59.0703 12.9713L59.8628 14.0328L60.2895 16.3431L60.8381 16.0309L61.9353 15.4065Z" fill="#E9D6B8"/>
<path d="M59.3758 14.595L57.9128 13.8457L57.6689 14.1579L58.9491 15.2194L59.9244 16.7804L60.8387 16.0312L59.3758 14.595Z" fill="#E9D6B8"/>
<path d="M57.3643 14.8447L58.5834 15.4067L59.4368 15.6565L60.0464 16.4682L59.4978 17.2799L58.8882 16.3433L57.4252 15.3443L57.3643 14.8447Z" fill="#E9D6B8"/>
<path d="M57.1201 16.1562L59.4365 16.7807L59.8022 17.4051L59.4365 17.967L58.5221 17.2802L57.242 16.5933L57.1201 16.1562Z" fill="#E9D6B8"/>
<path d="M63.6432 21.1522C62.9117 20.3405 63.0337 19.2165 63.0337 19.2165C63.0337 19.2165 63.3994 16.2818 62.9727 15.8447C62.546 15.3452 62.3022 14.0964 62.3022 14.0964C62.3022 14.0964 61.9364 13.6593 61.8145 14.7832C61.6926 15.5325 61.8755 16.2194 61.8755 16.2194C61.8755 16.2194 61.083 17.7804 61.144 18.3424C61.2659 19.4039 63.1556 21.2771 63.1556 21.2771C63.1556 21.2771 63.7651 21.2147 63.6432 21.1522Z" fill="#E9D6B8"/>
<path d="M86.3801 25.7102L81.3206 26.9591L76.5659 27.8957L64.7402 19.7783L61.9971 24.6487L75.5906 35.9506L91.6224 33.8276C91.6224 33.8276 94.1217 29.8314 95.3408 24.9609C96.2552 21.4642 87.3554 25.5854 86.3801 25.7102Z" fill="#12344A"/>
<path d="M85.2828 45.5684L71.5674 46.0055C71.5674 46.0055 81.7473 52.2496 85.4657 49.1275C89.1232 45.943 85.2828 45.5684 85.2828 45.5684Z" fill="#E9D6B8"/>
<path d="M91.8052 23.3385L92.3538 23.9005L96.6209 21.4028L102.778 25.961C102.778 25.961 103.936 30.2071 103.997 38.6991C104.058 47.2535 103.326 77.8498 103.326 77.8498L87.4772 79.161L85.7704 67.547L87.843 79.161L84.978 77.6624C83.5759 76.9131 82.7225 75.3521 82.9054 73.7286C83.9417 63.4258 87.6601 26.6479 91.8052 23.3385Z" fill="#12344A"/>
<path d="M67.3003 48.3134L68.6414 48.813L74.0056 47.0022L71.9331 43.0684L71.2016 44.2547L69.3119 44.1923L66.9346 47.5641L67.3003 48.3134Z" fill="#E9D6B8"/>
<path d="M93.9385 23.713L91.8049 23.3384L89.6105 26.1482L89.3057 34.2656L91.6221 30.0196L94.4261 25.3989L93.9385 23.713Z" fill="#D1DBEA"/>
<path d="M92.2315 23.5244L91.9268 26.2718L97.8396 22.9L97.1691 20.9019L92.2315 23.5244Z" fill="#B0BFDE"/>
<path d="M91.9275 22.7144L92.2323 23.5261L91.0741 26.0862L90.9521 23.8383L91.9275 22.7144Z" fill="#B0BFDE"/>
<path d="M97.4129 21.1509L91.9877 27.395L89.3056 34.2636L86.5625 46.9391L92.9021 30.7044L92.2316 30.2049L93.2678 29.518C93.2678 29.518 95.3404 26.4584 96.9862 24.8974C98.6931 23.3363 98.693 23.0241 98.693 23.0241L97.4129 21.1509Z" fill="#194866"/>
<path d="M100.705 25.6494C100.705 25.6494 103.936 27.3353 102.351 32.2058C99.73 40.5104 94.2438 47.379 93.2075 48.7527C92.1713 50.1264 88.7576 52.9987 86.1974 52.3743C84.6125 51.9996 75.9566 51.5626 75.9566 51.5626L75.5908 45.6306L85.2831 45.5682L86.1974 45.3809C86.1974 45.3809 89.5501 39.9485 92.2932 34.7034C95.0972 29.4583 100.705 25.6494 100.705 25.6494Z" fill="#194866"/>
<path d="M90.1587 32.2666C90.1587 32.2666 90.7683 23.8995 91.256 23.4C91.7436 22.9004 90.0368 24.3366 90.0368 24.3366L89.6101 26.1474L89.0615 28.3328L87.9033 41.8201L90.1587 32.2666Z" fill="#194866"/>
<path d="M96.3166 65.4839H88.7578V67.1698H96.3166V65.4839Z" fill="#194866"/>
<path d="M28.0433 20.5304L34.9925 19.1567C34.9925 19.1567 40.052 25.9004 41.8197 34.3924C43.6485 42.8844 44.8676 59.1192 46.3306 65.8628C47.7936 72.6065 48.1593 74.5422 47.184 74.9168C43.4046 76.2281 30.2988 74.3548 23.5325 76.6027C16.7662 78.8506 32.3713 76.2905 30.4207 63.3652C28.4091 50.3149 28.0433 20.5304 28.0433 20.5304Z" fill="#12344A"/>
<path d="M32.9196 24.8361C32.9196 24.8361 28.7136 27.084 35.1751 40.0718C41.5756 53.122 44.1968 51.1239 44.1968 51.1239L47.7323 50.3122L53.2185 40.946L48.9515 38.0112L48.2809 38.3859C48.2809 38.3859 47.2447 38.0737 47.0008 37.1995C46.757 36.2629 44.6235 32.5164 41.8194 24.7737C37.6134 12.9723 33.7121 24.399 32.9196 24.8361Z" fill="#163F59"/>
<path d="M52.2441 41.2603C52.2441 41.2603 60.0466 44.8194 64.6184 44.9443C67.6663 45.0067 61.6925 49.0654 55.4748 50.2518C49.3181 51.5006 46.8188 51.3757 45.2949 49.2527C43.8319 47.1297 52.2441 41.2603 52.2441 41.2603Z" fill="#705836"/>
<path d="M44.3192 40.0133L46.3308 38.2025L47.1842 37.5156C47.5499 38.2025 48.3424 38.3898 48.3424 38.3898L46.5746 39.4513L44.7459 41.0748L43.0391 44.0095L44.3192 40.0133Z" fill="#194866"/>
<path d="M42.6729 56.8083L26.0924 57.8698L17.3145 34.829C17.3145 34.829 11.7064 20.9046 20.2405 20.0304C28.7746 19.0938 38.8326 19.9055 38.8326 19.9055C38.8326 19.9055 42.0023 23.2149 42.6729 56.8083Z" fill="#7DC2F5"/>
<path d="M31.0303 22.3403C31.0303 22.3403 40.8444 35.7652 41.3321 52.3746C41.3931 53.6859 40.1739 54.8098 40.1739 54.8098L38.0404 53.3112C38.1013 53.3112 35.2973 34.891 31.0303 22.3403Z" fill="#163F59"/>
<path d="M30.3603 21.9662L30.1774 24.901L24.5693 20.9047L25.057 19.7808L30.3603 21.9662Z" fill="#8DCFFF"/>
<path d="M31.7003 19.9668L32.6147 20.5912L32.9195 23.6508L30.6641 22.0274L31.7003 19.9668Z" fill="#8DCFFF"/>
<path d="M36.2124 7.979C36.2124 8.22877 37.1268 10.102 37.3096 10.4142C37.4925 10.7889 37.7363 11.2259 37.6754 11.3508C37.6144 11.4757 37.3096 11.8504 37.1268 12.0377C37.0048 12.1626 36.3953 12.787 36.2124 11.8504C36.0905 10.9137 36.2124 7.979 36.2124 7.979Z" fill="#705836"/>
<path d="M27.1296 7.604C26.4591 7.604 25.9105 8.22842 25.9714 8.91527C25.9714 9.60213 26.581 10.1641 27.2515 10.1017" fill="#E9D6B8"/>
<path d="M63.8256 45.5051L68.5803 42.1333L71.811 42.2582C71.811 42.2582 72.2377 43.0075 71.2014 43.6319C70.1652 44.3187 68.7631 44.5685 68.7631 44.5685L66.8734 48.0028C66.8734 48.0028 69.0679 49.0643 69.6165 48.7521C70.1652 48.4399 72.2377 47.191 72.2377 47.191C72.2377 47.191 71.2014 50.0633 69.8604 50.1882C68.5193 50.3131 67.0563 50.438 66.081 50.3131C65.0447 50.2507 64.4961 47.3159 63.4598 46.8788C62.3626 46.5042 63.8256 45.5051 63.8256 45.5051Z" fill="#705836"/>
<path d="M23.2277 19.1567C23.2277 19.1567 30.9693 35.2666 31.2741 39.3253C31.5789 43.384 35.0534 61.5544 29.8111 78.4135C29.0796 80.8487 17.6805 76.2905 17.6805 76.2905C19.7531 71.6074 21.4599 41.9478 17.3148 34.8919C10.6095 23.3403 10.6095 22.0915 23.2277 19.1567Z" fill="#163F59"/>
<path d="M25.9102 18.7188C25.9102 18.7188 24.8129 22.4652 25.9102 25.2751C27.0074 28.1474 31.6402 41.5723 31.6402 41.5723C31.6402 41.5723 26.8245 31.5817 24.0205 29.7709C21.2164 27.9601 25.1787 27.6479 25.1787 27.6479H22.4966L21.7041 20.9042L23.1061 19.2183L25.9102 18.7188Z" fill="#194866"/>
<path d="M30.2373 18.4697C30.2373 18.4697 38.1618 19.0941 39.32 19.7186C40.4782 20.343 43.2213 33.5181 43.2822 36.0782C43.3432 38.6383 44.6233 56.1843 45.3548 59.6185C46.0863 63.0528 43.2822 54.0613 42.5507 49.0035C41.8192 43.9458 38.6494 29.7092 35.6625 26.0251C32.7366 22.3411 32.7975 21.2796 32.7975 21.2796L30.2373 18.4697Z" fill="#194866"/>
<path d="M35.9683 2.98178C35.9683 2.98178 38.1018 14.9705 35.5416 16.6564C35.4197 16.7189 33.53 16.9686 32.6156 17.9677C31.7622 18.9043 31.7622 19.9034 31.4575 20.278C31.3355 20.4029 31.0307 21.2771 30.8479 21.5268C29.9335 22.5259 29.0191 21.402 28.4096 21.2146C26.9466 20.7151 25.5446 20.4029 25.5446 19.7785C25.5446 19.0916 27.1904 14.5334 27.0685 13.5968C26.6418 10.9743 23.472 6.29117 27.739 2.91934C29.0192 1.98272 35.6026 2.23249 35.9683 2.98178Z" fill="#705836"/>
<path d="M35.6035 16.4716C35.6035 16.4716 35.2377 16.2843 34.5062 15.9096C34.2624 15.7847 33.5919 15.4101 33.2261 15.3476C31.5803 14.973 31.6412 15.1603 30.6659 14.7232C29.5687 14.2237 27.4961 12.7251 27.4961 12.7251C27.4961 12.7251 28.2276 13.9115 28.5324 14.411C29.081 15.2852 29.8125 15.7223 30.483 15.9096C33.2871 16.8462 33.1651 17.096 33.5309 17.0336C33.5309 17.0336 33.7138 16.9087 35.6035 16.4716Z" fill="#705836"/>
<path d="M27.4952 2.42168C29.5678 0.486002 34.0177 0.548443 37.2484 3.29586C37.2484 3.29586 37.1875 4.04516 36.2122 4.66957C36.2122 4.66957 34.2615 2.48412 31.4575 3.04609C28.4705 3.67051 30.665 4.98178 30.0554 5.79351C29.5068 6.48037 29.0192 7.04234 29.0192 7.04234L28.6534 8.79069L27.861 8.91558C27.861 8.91558 27.3124 7.10478 26.9466 7.66675C26.5199 8.3536 26.8247 9.72731 26.8856 9.91464C26.8856 10.102 26.9466 10.4142 26.8856 10.4766C26.8247 10.539 27.1295 11.5381 27.0076 13.3489C26.6418 13.4113 26.1542 12.9118 25.8494 11.7879C25.1179 9.41511 24.996 4.79445 27.4952 2.42168Z" fill="#163F59"/>
<path d="M35.4805 11.4747C35.4805 11.4747 36.8825 10.9752 37.0044 11.0376C37.1263 11.0376 37.4921 11.1001 37.553 11.225C37.553 11.3498 37.3702 11.7869 36.6996 12.224C36.5777 12.3489 36.6387 11.9742 35.4805 11.4747Z" fill="#705836"/>
<path d="M32.2499 18.7817L37.2485 24.339L36.2731 24.901L37.6752 25.5878C37.6752 25.5878 40.784 34.954 41.0888 36.3902C41.4545 37.8263 43.0394 48.1291 43.2223 50.5019C43.4052 52.8747 40.0525 34.8916 38.3457 31.3324C36.6389 27.7733 32.3719 23.2151 32.4328 22.5282C32.4938 21.8414 31.8232 18.9066 31.8232 18.9066" fill="#163F59"/>
<path d="M8.71982 51.062L17.5587 70.9184C17.5587 70.9184 16.0347 71.5428 15.0594 70.7935C12.4382 68.7329 7.62259 63.0508 5.85482 59.8038C3.41652 55.4329 1.89258 50.5625 1.89258 50.5625L8.71982 51.062Z" fill="#705836"/>
<path d="M15.3637 71.1675C15.9123 71.9793 18.8382 72.6037 18.8382 72.6037L20.667 70.0436L19.3869 70.1685L18.2896 68.1079L15.6075 69.4192C15.6075 69.4192 15.0589 70.668 15.3637 71.1675Z" fill="#705836"/>
<path d="M18.3512 34.0162L9.93901 50.0012L8.6589 50.3134L9.14656 51.5622L2.07549 51.6246L0.00292969 45.5054L11.8897 23.8383C11.8897 23.8383 13.2307 22.3397 15.73 21.2157C17.4977 20.404 22.3134 27.5847 19.8141 31.581C19.0826 32.8298 18.534 33.704 18.3512 34.0162Z" fill="#163F59"/>
<path d="M2.31836 47.5679C2.31836 47.5679 6.82922 49.3162 9.20656 50.1904L8.65794 50.3153L9.1456 51.5641H6.7073L3.23272 51.0022L2.92793 49.566L3.96421 49.5036L2.31836 47.5679Z" fill="#194866"/>
</svg>
