<svg width="10" height="11" viewBox="0 0 10 11" fill="none" xmlns="http://www.w3.org/2000/svg">
<path d="M4.89823 0.312511L5 0.305664C5.3797 0.305664 5.69349 0.587818 5.74315 0.953893L5.75 1.05566V4.55566H9.25C9.6297 4.55566 9.94349 4.83782 9.99315 5.20389L10 5.30566C10 5.68536 9.71785 5.99916 9.35177 6.04882L9.25 6.05566H5.75V9.55566C5.75 9.93536 5.46785 10.2492 5.10177 10.2988L5 10.3057C4.6203 10.3057 4.30651 10.0235 4.25685 9.65743L4.25 9.55566V6.05566H0.75C0.370304 6.05566 0.0565091 5.77351 0.00684667 5.40743L0 5.30566C0 4.92597 0.282154 4.61217 0.648229 4.56251L0.75 4.55566H4.25V1.05566C4.25 0.675968 4.53215 0.362173 4.89823 0.312511L5 0.305664L4.89823 0.312511Z" fill="white"/>
</svg>
