<svg width="36" height="36" viewBox="0 0 36 36" fill="none" xmlns="http://www.w3.org/2000/svg">
<path d="M25.619 17.2381C30.2477 17.2381 34 20.9904 34 25.619C34 30.2477 30.2477 34 25.619 34C20.9904 34 17.2381 30.2477 17.2381 25.619C17.2381 20.9904 20.9904 17.2381 25.619 17.2381ZM5.04762 18.7604L18.4715 18.7622C17.8219 19.4391 17.2676 20.208 16.8301 21.0475L5.04762 21.0461L4.89424 21.0613C4.7047 21.0999 4.57524 21.2027 4.50819 21.2686C4.44236 21.3356 4.33947 21.4641 4.30095 21.654L4.28571 21.808V24.0952C4.28571 25.6328 4.97143 26.7192 6.44495 27.5116C7.70385 28.1896 9.49639 28.6001 11.4211 28.6593L11.9048 28.6667L12.3884 28.6593C13.7045 28.6188 14.9583 28.414 16.0226 28.0718C16.2117 28.8229 16.4887 29.5392 16.8404 30.2103C15.2399 30.7436 13.4752 30.9524 11.9048 30.9524C7.75675 30.9524 2.25096 29.4955 2.00831 24.4452L2 24.0952V21.808C2 20.1257 3.36533 18.7604 5.04762 18.7604ZM25.619 20.2881L25.4821 20.3004C25.1711 20.3568 24.9259 20.6021 24.8694 20.9131L24.8571 21.05V24.8565L21.0476 24.8571L20.9107 24.8694C20.5997 24.9259 20.3544 25.1711 20.298 25.4821L20.2857 25.619L20.298 25.756C20.3544 26.067 20.5997 26.3122 20.9107 26.3687L21.0476 26.381L24.8571 26.3803V30.1905L24.8694 30.3274C24.9259 30.6384 25.1711 30.8837 25.4821 30.9401L25.619 30.9524L25.756 30.9401C26.067 30.8837 26.3122 30.6384 26.3687 30.3274L26.381 30.1905V26.3803L30.1905 26.381L30.3274 26.3687C30.6384 26.3122 30.8837 26.067 30.9401 25.756L30.9524 25.619L30.9401 25.4821C30.8837 25.1711 30.6384 24.9259 30.3274 24.8694L30.1905 24.8571L26.381 24.8565V21.05L26.3687 20.9131C26.3122 20.6021 26.067 20.3568 25.756 20.3004L25.619 20.2881ZM11.9048 2C15.6914 2 18.7619 5.07048 18.7619 8.85714C18.7619 12.6438 15.6914 15.7143 11.9048 15.7143C8.1181 15.7143 5.04762 12.6438 5.04762 8.85714C5.04762 5.07048 8.1181 2 11.9048 2ZM25.619 5.04762C28.5646 5.04762 30.9524 7.43543 30.9524 10.381C30.9524 13.3265 28.5646 15.7143 25.619 15.7143C22.6735 15.7143 20.2857 13.3265 20.2857 10.381C20.2857 7.43543 22.6735 5.04762 25.619 5.04762ZM11.9048 4.28571C9.38438 4.28571 7.33333 6.33676 7.33333 8.85714C7.33333 11.3775 9.38438 13.4286 11.9048 13.4286C14.4251 13.4286 16.4762 11.3775 16.4762 8.85714C16.4762 6.33676 14.4251 4.28571 11.9048 4.28571ZM25.619 7.33333C23.9383 7.33333 22.5714 8.70019 22.5714 10.381C22.5714 12.0617 23.9383 13.4286 25.619 13.4286C27.2998 13.4286 28.6667 12.0617 28.6667 10.381C28.6667 8.70019 27.2998 7.33333 25.619 7.33333Z" fill="#6264A7"/>
</svg>
