<svg width="36" height="36" viewBox="0 0 36 36" fill="none" xmlns="http://www.w3.org/2000/svg">
<path d="M29.8929 5.71429C32.7135 5.71429 35 8.00083 35 10.8214V28.8929C35 31.7135 32.7135 34 29.8929 34H11.8214C9.00083 34 6.71429 31.7135 6.71429 28.8929V19.0744C7.45954 19.3851 8.24937 19.6101 9.07157 19.737L9.07143 28.8929C9.07143 29.2203 9.12867 29.5345 9.2337 29.8257L18.3834 20.8676C19.6925 19.5857 21.7489 19.5248 23.1291 20.6846L23.3308 20.8678L32.48 29.8273C32.5854 29.5356 32.6429 29.2209 32.6429 28.8929V10.8214C32.6429 9.30265 31.4116 8.07143 29.8929 8.07143L20.737 8.07157C20.6101 7.24937 20.3851 6.45954 20.0744 5.71429H29.8929ZM20.1638 22.4406L20.0325 22.5518L10.9076 31.4874C11.1935 31.5881 11.5011 31.6429 11.8214 31.6429H29.8929C30.2126 31.6429 30.5197 31.5883 30.8051 31.4879L21.6816 22.5519C21.2651 22.144 20.6216 22.1069 20.1638 22.4406ZM25.9676 11.2143C27.9222 11.2143 29.5066 12.7988 29.5066 14.7533C29.5066 16.7079 27.9222 18.2924 25.9676 18.2924C24.0131 18.2924 22.4286 16.7079 22.4286 14.7533C22.4286 12.7988 24.0131 11.2143 25.9676 11.2143ZM10.6429 1C15.4162 1 19.2857 4.86954 19.2857 9.64286C19.2857 14.4162 15.4162 18.2857 10.6429 18.2857C5.86954 18.2857 2 14.4162 2 9.64286C2 4.86954 5.86954 1 10.6429 1ZM25.9676 13.5714C25.3149 13.5714 24.7857 14.1006 24.7857 14.7533C24.7857 15.4061 25.3149 15.9352 25.9676 15.9352C26.6204 15.9352 27.1495 15.4061 27.1495 14.7533C27.1495 14.1006 26.6204 13.5714 25.9676 13.5714ZM10.6429 4.14165L10.5016 4.15431C10.1809 4.21253 9.92801 4.46542 9.8698 4.78614L9.85714 4.92737L9.85659 8.85594L5.92488 8.85714L5.78365 8.8698C5.46293 8.92801 5.21003 9.18091 5.15182 9.50162L5.13916 9.64286L5.15182 9.78409C5.21003 10.1048 5.46293 10.3577 5.78365 10.4159L5.92488 10.4286L9.85816 10.4274L9.85888 14.3626L9.87154 14.5039C9.92975 14.8246 10.1826 15.0775 10.5034 15.1357L10.6446 15.1483L10.7858 15.1357C11.1065 15.0775 11.3594 14.8246 11.4177 14.5039L11.4303 14.3626L11.4296 10.4274L15.3643 10.4286L15.5056 10.4159C15.8263 10.3577 16.0792 10.1048 16.1374 9.78409L16.15 9.64286L16.1374 9.50162C16.0792 9.18091 15.8263 8.92801 15.5056 8.8698L15.3643 8.85714L11.428 8.85594L11.4286 4.92737L11.4159 4.78614C11.3577 4.46542 11.1048 4.21253 10.7841 4.15431L10.6429 4.14165Z" fill="#6264A7"/>
</svg>
