<svg width="26" height="26" viewBox="0 0 26 26" fill="none" xmlns="http://www.w3.org/2000/svg">
<path d="M13 0C20.1797 0 26 5.8203 26 13C26 20.1797 20.1797 26 13 26C5.8203 26 0 20.1797 0 13C0 5.8203 5.8203 0 13 0ZM18.612 8.85047C18.3159 8.55433 17.848 8.53458 17.5289 8.79125L17.463 8.85047L10.8875 15.426L8.53702 13.0755C8.21972 12.7582 7.70528 12.7582 7.38798 13.0755C7.09183 13.3716 7.07208 13.8395 7.32875 14.1586L7.38798 14.2245L10.313 17.1495C10.6091 17.4457 11.077 17.4654 11.3961 17.2088L11.462 17.1495L18.612 9.99952C18.9293 9.68222 18.9293 9.16778 18.612 8.85047Z" fill="#13A10E"/>
</svg>
