<svg width="12" height="12" viewBox="0 0 12 12" fill="none" xmlns="http://www.w3.org/2000/svg">
<path d="M11.2441 3.375C11.2441 3.47656 11.207 3.56445 11.1328 3.63867L8.88281 5.88867C8.80859 5.96289 8.7207 6 8.61914 6C8.51758 6 8.42969 5.96289 8.35547 5.88867C8.28125 5.81445 8.24414 5.72656 8.24414 5.625C8.24414 5.52344 8.28125 5.43555 8.35547 5.36133L9.9668 3.75H1.49414C1.39258 3.75 1.30469 3.71289 1.23047 3.63867C1.15625 3.56445 1.11914 3.47656 1.11914 3.375C1.11914 3.27344 1.15625 3.18555 1.23047 3.11133C1.30469 3.03711 1.39258 3 1.49414 3H9.9668L8.35547 1.38867C8.28125 1.31445 8.24414 1.22656 8.24414 1.125C8.24414 1.02344 8.28125 0.935547 8.35547 0.861328C8.42969 0.787109 8.51758 0.75 8.61914 0.75C8.7207 0.75 8.80859 0.787109 8.88281 0.861328L11.1328 3.11133C11.207 3.18555 11.2441 3.27344 11.2441 3.375ZM3.74414 6.375C3.74414 6.47656 3.70703 6.56445 3.63281 6.63867L2.02734 8.25H10.4941C10.5957 8.25 10.6836 8.28711 10.7578 8.36133C10.832 8.43555 10.8691 8.52344 10.8691 8.625C10.8691 8.72656 10.832 8.81445 10.7578 8.88867C10.6836 8.96289 10.5957 9 10.4941 9H2.02734L3.63281 10.6113C3.70703 10.6855 3.74414 10.7734 3.74414 10.875C3.74414 10.9766 3.70703 11.0645 3.63281 11.1387C3.55859 11.2129 3.4707 11.25 3.36914 11.25C3.26758 11.25 3.17969 11.2129 3.10547 11.1387L0.855469 8.88867C0.78125 8.81445 0.744141 8.72656 0.744141 8.625C0.744141 8.52344 0.78125 8.43555 0.855469 8.36133L3.10547 6.11133C3.17969 6.03711 3.26758 6 3.36914 6C3.4707 6 3.55859 6.03711 3.63281 6.11133C3.70703 6.18555 3.74414 6.27344 3.74414 6.375Z" fill="black"/>
</svg>
