<svg width="7" height="12" viewBox="0 0 7 12" fill="none" xmlns="http://www.w3.org/2000/svg">
<path d="M1.49219 0.5C1.63281 0.5 1.75 0.546875 1.84375 0.640625L6.84375 5.64062C6.94271 5.73958 6.99219 5.85677 6.99219 5.99219C6.99219 6.13281 6.94271 6.2526 6.84375 6.35156L1.84375 11.3516C1.74479 11.4505 1.6276 11.5 1.49219 11.5C1.35677 11.5 1.23958 11.4505 1.14062 11.3516C1.04167 11.2474 0.992188 11.1276 0.992188 10.9922C0.992188 10.8568 1.04167 10.7396 1.14062 10.6406L5.78906 6L1.14062 1.35156C1.04167 1.2526 0.992188 1.13281 0.992188 0.992188C0.992188 0.856771 1.04167 0.742188 1.14062 0.648438C1.23958 0.549479 1.35677 0.5 1.49219 0.5Z" fill="black"/>
</svg>
