<svg width="8" height="8" viewBox="0 0 8 8" fill="none" xmlns="http://www.w3.org/2000/svg">
<path d="M7.60736 0C7.7137 0 7.80573 0.0388548 7.88344 0.116564C7.96114 0.194274 8 0.286299 8 0.392638C8 0.441718 7.98977 0.490798 7.96933 0.539877C7.95297 0.588957 7.92638 0.631902 7.88957 0.668712L4.55828 4L7.88957 7.33129C7.96319 7.40491 8 7.49693 8 7.60736C8 7.7137 7.96114 7.80573 7.88344 7.88344C7.80573 7.96114 7.7137 8 7.60736 8C7.55828 8 7.5092 7.99182 7.46012 7.97546C7.41104 7.95501 7.3681 7.92638 7.33129 7.88957L4 4.55828L0.668712 7.88957C0.595092 7.96319 0.503067 8 0.392638 8C0.286299 8 0.194274 7.96114 0.116564 7.88344C0.0388548 7.80573 0 7.7137 0 7.60736C0 7.49693 0.0368098 7.40491 0.110429 7.33129L3.44172 4L0.110429 0.668712C0.0736196 0.631902 0.0449898 0.588957 0.0245399 0.539877C0.00817996 0.490798 0 0.441718 0 0.392638C0 0.286299 0.0388548 0.194274 0.116564 0.116564C0.194274 0.0388548 0.286299 0 0.392638 0C0.503067 0 0.595092 0.0368098 0.668712 0.110429L4 3.44172L7.33129 0.110429C7.3681 0.0736196 7.41104 0.0470348 7.46012 0.0306748C7.5092 0.0102249 7.55828 0 7.60736 0Z" fill="#252423"/>
</svg>
