<svg xmlns="http://www.w3.org/2000/svg" width="13" height="12" fill="none" viewBox="0 0 13 12">
    <path fill="#212121" d="M3.2 2.1c-.608 0-1.1.492-1.1 1.1v4.4c0 .608.492 1.1 1.1 1.1h.55c.304 0 .55.246.55.55v1.172l2.445-1.63c.09-.06.196-.092.305-.092H9.8c.607 0 1.1-.492 1.1-1.1V3.2c0-.608-.492-1.1-1.1-1.1H3.2zM1 3.2C1 1.985 1.985 1 3.2 1h6.6c1.215 0 2.2.985 2.2 2.2v4.4c0 1.215-.985 2.2-2.2 2.2H7.217l-3.162 2.108c-.169.112-.386.123-.565.027-.178-.096-.29-.282-.29-.485V9.8C1.985 9.8 1 8.815 1 7.6V3.2z"/>
</svg>
