<svg xmlns="http://www.w3.org/2000/svg" width="20" height="20" fill="none" viewBox="0 0 20 20">
    <path fill="#212121" d="M8 6c.276 0 .5.224.5.5 0 .245-.177.45-.41.492L8 7H6c-1.657 0-3 1.343-3 3 0 1.59 1.238 2.892 2.803 2.994L6 13h2c.276 0 .5.224.5.5 0 .245-.177.45-.41.492L8 14H6c-2.21 0-4-1.79-4-4 0-2.136 1.673-3.88 3.78-3.994L6 6h2zm6 0c2.21 0 4 1.79 4 4 0 2.136-1.674 3.88-3.78 3.994L14 14h-2c-.276 0-.5-.224-.5-.5 0-.245.177-.45.41-.492L12 13h2c1.657 0 3-1.343 3-3 0-1.59-1.238-2.892-2.803-2.994L14 7h-2c-.276 0-.5-.224-.5-.5 0-.245.177-.45.41-.492L12 6h2zM6 9.5h8c.276 0 .5.224.5.5 0 .245-.177.45-.41.492L14 10.5H6c-.276 0-.5-.224-.5-.5 0-.245.177-.45.41-.492L6 9.5h8-8z"/>
</svg>
