<svg width="14" height="12" viewBox="0 0 14 12" fill="none" xmlns="http://www.w3.org/2000/svg">
<path d="M2.4448 0C3.02317 0 3.49258 0.448 3.49258 1V11C3.49258 11.552 3.02317 12 2.4448 12H1.04777C0.469402 12 0 11.552 0 11V1C0 0.448 0.469402 0 1.04777 0H2.4448ZM6.6359 0C7.21427 0 7.68367 0.448 7.68367 1V11C7.68367 11.552 7.21427 12 6.6359 12H5.23887C4.66049 12 4.19109 11.552 4.19109 11V1C4.19109 0.448 4.66049 0 5.23887 0H6.6359ZM11.7218 2.08253L13.9668 10.4285C14.1107 10.9632 13.7733 11.5085 13.2124 11.6459L11.902 11.9665C11.3411 12.1039 10.7704 11.7819 10.6265 11.2465L8.38149 2.90187C8.23759 2.36653 8.57498 1.82187 9.13588 1.68453L10.4463 1.36253C11.0072 1.22587 11.5779 1.54853 11.7218 2.08253Z" fill="#212121"/>
</svg>
