<svg width="20" height="18" viewBox="0 0 20 18" fill="none" xmlns="http://www.w3.org/2000/svg">
<path d="M13.989 1L12.486 2.5H3.25L3.10647 2.5058C2.20711 2.57881 1.5 3.33183 1.5 4.25V6.49L4.11033 4.85007C5.11458 4.21884 6.42578 4.47881 7.11805 5.41878L7.21264 5.55767C7.60754 6.18595 7.66532 6.96467 7.37644 7.6398L7.29699 7.80628L6.08926 10.0917C5.89573 10.4579 6.03572 10.9117 6.40194 11.1052C6.5952 11.2073 6.82159 11.2193 7.02228 11.1419L7.12021 11.0957L8.8792 10.1027C9.23925 9.89792 9.69714 10.0238 9.90192 10.3838C10.0896 10.7139 9.99953 11.1261 9.70588 11.3503L9.6208 11.4066L7.85592 12.4029C7.18921 12.7781 6.37751 12.7889 5.70109 12.4314C4.65021 11.8761 4.22026 10.6064 4.69297 9.53555L4.76305 9.39084L5.97078 7.10544C6.09599 6.86851 6.08527 6.58278 5.94267 6.3559C5.74228 6.03709 5.34143 5.92083 5.00673 6.06794L4.90856 6.12004L1.5 8.262V13.7546C1.5 14.7211 2.2835 15.5046 3.25 15.5046H16.75C17.7165 15.5046 18.5 14.7211 18.5 13.7546V6.443L20 4.946V13.7546C20 15.5495 18.5449 17.0046 16.75 17.0046H3.25C1.45507 17.0046 0 15.5495 0 13.7546V4.25C0 2.51697 1.35645 1.10075 3.06558 1.00514L3.25 1H13.989ZM19.1755 0.544861L19.3057 0.665494L19.4262 0.795735C20.1894 1.68738 20.1488 3.03053 19.3047 3.87411L15.0238 8.14775C14.7608 8.41029 14.4369 8.6036 14.081 8.71043L11.7535 9.40909C11.2245 9.56787 10.667 9.26777 10.5082 8.7388C10.4499 8.54478 10.452 8.33764 10.5141 8.14481L11.253 5.84996C11.3627 5.50946 11.5519 5.20001 11.8051 4.94728L16.0957 0.663665C16.9405 -0.179764 18.2841 -0.219185 19.1755 0.544861ZM17.1555 1.72519L12.8648 6.00881C12.7805 6.09305 12.7174 6.1962 12.6808 6.3097L12.2335 7.69887L13.6498 7.27376C13.7684 7.23815 13.8764 7.17371 13.9641 7.0862L18.2441 2.81339L18.3188 2.7269C18.5422 2.42599 18.5176 1.99885 18.2447 1.72582C17.9441 1.42497 17.4565 1.42469 17.1555 1.72519Z" fill="#6264A7"/>
</svg>
