<svg width="101" height="80" viewBox="0 0 101 80" fill="none" xmlns="http://www.w3.org/2000/svg">
<g clip-path="url(#clip0)">
<path d="M59.9731 4.22663C75.0118 9.96248 86.8022 20.287 93.72 30.1285C100.698 40.1512 102.803 49.6908 99.3746 57.2983C95.9457 64.9662 87.6444 69.9776 77.1774 73.8417C66.7105 77.5851 54.1381 80.2417 41.6259 79.9398C17.0226 80.0606 -1.38481 62.3096 0.0589096 35.321C1.44247 8.45305 29.4746 -8.27148 59.9731 4.22663Z" fill="#EAF4FE"/>
<path d="M46.6809 26.9885C49.5683 29.5848 51.8542 35.5621 55.283 56.7546C55.4033 57.4791 63.5243 62.7923 63.5243 62.7923L48.2449 65.9923L47.884 56.2716C47.884 56.2716 48.666 50.7772 48.6059 34.5961C48.6059 29.8867 46.5004 26.8074 46.6809 26.9885Z" fill="#2B83FD"/>
<path d="M38.7402 24.7547C30.8599 24.2716 21.0547 26.3245 19.4906 31.9396C17.686 38.4603 18.9492 61.283 13.1142 75.4113C12.8736 75.9547 13.2345 77.4641 14.3173 77.3433C20.5734 76.6188 39.6425 76.4377 39.6425 76.4377L48.4251 54.2188L49.8087 42.3848C49.8087 42.3848 50.711 28.4981 46.1392 25.7811C45.1166 25.2377 41.7479 24.9358 38.7402 24.7547Z" fill="#0063CB"/>
<path d="M60.3957 58.687C60.3957 58.687 62.8019 58.687 64.8472 59.8946C66.4112 60.8606 67.8549 62.9134 66.4112 64.0606C64.9675 65.2078 62.8019 66.2342 62.8019 66.2342C62.8019 66.2342 57.3278 66.4757 60.3957 58.687Z" fill="#C4D1E1"/>
<path d="M38.9208 54.2792C38.9208 54.2792 43.7331 62.1886 52.6962 63.3962C54.2602 63.5773 55.4032 64.966 54.7415 65.5094C53.8993 66.2339 52.6361 66.4754 50.4705 66.7773C45.8987 67.3207 39.5825 66.7169 34.7701 63.4566C27.6718 58.6264 25.3258 56.332 25.5664 53.4339C25.7468 50.5962 38.9208 54.2792 38.9208 54.2792Z" fill="#E9D6B8"/>
<path d="M20.6937 29.7059C19.2499 32.6644 18.7687 37.1927 19.671 43.4719C20.3929 48.3625 26.1678 55.7889 27.1904 58.204C27.3709 58.6267 27.9122 60.3172 27.9122 60.3172L33.6871 64.3021L43.1916 56.755L39.462 52.77L38.4995 52.9512C38.4995 52.9512 37.5972 50.5965 37.5972 49.6304C37.5972 48.6644 32.8449 36.4078 30.1981 28.5587C28.6943 24.0304 22.1374 26.8078 20.6937 29.7059Z" fill="#2B83FD"/>
<path d="M33.446 53.3738L36.3335 52.1663L37.5366 51.7437C37.717 52.4682 38.499 52.9512 38.499 52.9512L36.153 53.4946L33.5062 54.5814L30.5586 56.9361L33.446 53.3738Z" fill="#DBE4E9"/>
<path d="M51.2525 63.8791L54.8017 59.7734C54.8017 59.7734 57.0875 60.3772 57.1477 60.9206C57.2079 61.464 59.0125 63.4565 59.0125 63.4565L58.1102 66.5357L56.0048 67.2602C56.0048 67.2602 55.4032 66.6565 55.9446 66.1734C56.486 65.6904 55.2227 65.9923 54.8017 66.0527C54.3806 66.0527 51.0119 66.7168 51.2525 63.8791Z" fill="#E9D6B8"/>
<path d="M44.9365 67.381V66.415L84.2778 65.6904V66.6565C84.2778 66.6565 84.2778 66.6565 84.2778 66.7168L84.1575 66.898C83.6762 67.7433 82.7739 67.9244 81.7513 67.9244L47.5232 68.5282C46.5006 68.5282 45.5982 68.4074 45.0568 67.6225L44.9365 67.381Z" fill="#B6C2C9"/>
<path d="M54.4404 67.3818L54.3201 67.5629C54.1396 67.8044 53.9592 67.9252 53.7787 68.0459L47.7632 68.1667C46.7406 68.1667 45.8984 68.1063 45.4172 67.4421L45.2969 67.3214V66.8384L54.4404 66.6572V67.3818Z" fill="#D8E5ED"/>
<path d="M79.3952 65.9929L59.7285 66.3516L59.7405 67.0156L79.4072 66.6569L79.3952 65.9929Z" fill="#879BA6"/>
<path d="M54.6211 66.1741L59.3733 46.6722C59.4936 46.1288 60.035 45.7062 60.5163 45.7062L88.1273 45.2231C88.6687 45.2231 88.9695 45.6458 88.8492 46.1288L84.097 65.6307L54.6211 66.1741Z" fill="#D9E1E4"/>
<path d="M68.7774 56.3266C68.3342 58.2765 69.4423 59.7676 71.2153 59.6529C72.9882 59.6529 74.872 58.0471 75.3153 56.2119C75.7585 54.262 74.6504 52.7709 72.8774 52.8856C71.1045 52.8856 69.2207 54.4914 68.7774 56.3266Z" fill="#B6C2C9"/>
<path d="M43.1321 24.634C42.9517 26.5057 41.6884 28.1359 40.4853 28.1962C39.2822 28.1962 38.1393 28.1962 36.9362 28.1359C35.6729 28.0151 34.53 26.3849 34.3495 24.5132C34.1089 21.434 33.8683 18.3547 33.5675 15.2151C33.3871 13.3434 34.2894 9.66039 36.2143 8.5736C37.9588 7.60756 39.9439 7.60756 41.6884 8.63398C43.5532 9.78114 44.3954 13.4642 44.1548 15.3359C43.7938 18.4151 43.4329 21.5547 43.1321 24.634Z" fill="#E2C59C"/>
<path d="M42.7103 26.6262L40.2439 31.0338L31.5215 25.6602L33.5667 23.2451L42.7103 26.6262Z" fill="#C4D1E1"/>
<path d="M43.0709 25.1172L42.4092 26.7474L44.4544 30.2493L44.6349 27.4719L43.0709 25.1172Z" fill="#C4D1E1"/>
<path d="M42.2287 6.52058L42.7701 4.28662L43.7928 4.46775L46.4997 5.01115L48.1239 5.31304C49.9286 5.6753 51.0715 7.24511 50.6504 8.8753L50.109 11.1093L49.0864 10.9281L46.3794 10.3847L44.7552 10.0828C43.0107 9.72058 41.8678 8.15077 42.2287 6.52058Z" fill="#163F59"/>
<path d="M33.9269 19.1402C33.566 20.5893 34.5887 22.0383 36.2128 22.3402L42.7697 23.6082C44.3939 23.91 45.9579 23.0044 46.2587 21.5553L49.086 9.66098C49.4469 8.21193 48.4243 6.76287 46.8001 6.46098L40.2432 5.13268C38.619 4.83079 37.055 5.73645 36.7542 7.18551L33.9269 19.1402Z" fill="#E9D6B8"/>
<path d="M42.5898 4.22644C41.4469 3.98493 40.304 4.34719 39.5219 5.01134L38.4392 4.83021C37.0556 4.5887 35.672 5.37361 35.3713 6.64153L34.0479 12.317L35.8525 12.6793L36.3939 10.3849C36.6345 9.47927 37.597 8.93587 38.5595 9.117L39.5821 9.29814L42.2891 9.84153L43.9132 10.1434C45.7179 10.5057 47.4624 9.47927 47.8835 7.84908L48.485 5.43398L42.5898 4.22644Z" fill="#163F59"/>
<path d="M36.0327 14.1886C36.2131 13.4036 35.6717 12.6791 34.8296 12.498H34.7093C33.8671 12.3169 33.0249 12.7999 32.8445 13.5848L32.4234 15.2753C32.2429 16.0602 32.7843 16.7848 33.6265 16.9659H33.7468C34.4085 17.0867 35.01 16.8452 35.371 16.4225" fill="#E9D6B8"/>
</g>
<defs>
<clipPath id="clip0">
<rect width="101" height="80" fill="white"/>
</clipPath>
</defs>
</svg>
