<svg width="75" height="60" viewBox="0 0 75 60" fill="none" xmlns="http://www.w3.org/2000/svg">
<path d="M24.3575 1.56822C33.9349 0.0208807 43.7311 2.4844 50.9469 6.33238C58.2503 10.2618 62.9953 15.596 64.3073 21.5818C65.6411 27.6286 63.4982 33.6551 59.9121 39.7019C56.2605 45.6877 51.1656 51.7141 44.9118 55.8471C32.9072 64.4186 17.0104 59.5322 7.19241 41.9211C-2.60371 24.4525 4.56845 4.21498 24.3575 1.56822Z" fill="#EAF4FE"/>
<path d="M54.4252 32.7383H33.2148V52.4872H54.4252V32.7383Z" fill="#2B83FD"/>
<path d="M52.3245 34.6934H35.3125V50.5332H52.3245V34.6934Z" fill="#4E99FF"/>
<path d="M41.6113 39.5791C41.6113 40.3528 40.9335 40.984 40.1025 40.984C39.2716 40.984 38.5938 40.3528 38.5938 39.5791C38.5938 38.8055 39.2716 38.1743 40.1025 38.1743C40.9335 38.1539 41.6113 38.7851 41.6113 39.5791Z" fill="#2B83FD"/>
<path d="M45.6557 42.5117L48.3671 45.7082L51.0785 48.9047H45.6557H40.2109L42.9442 45.7082L45.6557 42.5117Z" fill="#2B83FD"/>
<path d="M40.5391 44.4253L42.4634 46.6649L44.3657 48.9044H40.5391H36.7344L38.6367 46.6649L40.5391 44.4253Z" fill="#2B83FD"/>
<path d="M35.5111 9.32422H14.3008V29.0731H35.5111V9.32422Z" fill="#B5D1DE"/>
<path d="M33.4104 11.2793H16.3984V27.1191H33.4104V11.2793Z" fill="#D8E5ED"/>
<path d="M28.5145 19.1371L25.0814 21.6821L21.6484 24.2067V19.1371V14.0879L25.0814 16.6125L28.5145 19.1371Z" fill="#B5D1DE"/>
<path d="M29.4541 32.7383H14.3008V46.8475H29.4541V32.7383Z" fill="#C5E1F9"/>
<path d="M27.9663 34.123H15.8086V45.443H27.9663V34.123Z" fill="#9AC7F7"/>
<path d="M19.1541 40.0273H17.6016V43.9568H19.1541V40.0273Z" fill="#C5E1F9"/>
<path d="M21.4939 37.8066H19.9414V43.9349H21.4939V37.8066Z" fill="#C5E1F9"/>
<path d="M23.8142 38.7246H22.2617V43.9367H23.8142V38.7246Z" fill="#C5E1F9"/>
<path d="M26.1541 36.2598H24.6016V43.9354H26.1541V36.2598Z" fill="#C5E1F9"/>
<path d="M10.4084 19.8301H0V29.5213H10.4084V19.8301Z" fill="#FFAB01"/>
<path d="M9.38028 20.7871H1.02734V28.5442H9.38028V20.7871Z" fill="#FEC12F"/>
<path d="M4.11191 23.1688C4.11191 23.5556 3.78392 23.861 3.36846 23.861C2.95299 23.861 2.625 23.5556 2.625 23.1688C2.625 22.782 2.95299 22.4766 3.36846 22.4766C3.78392 22.4969 4.11191 22.8023 4.11191 23.1688Z" fill="#FFAB01"/>
<path d="M6.10129 24.6152L7.41327 26.1829L8.74711 27.7506H6.10129H3.43359L4.76744 26.1829L6.10129 24.6152Z" fill="#FFAB01"/>
<path d="M3.5852 25.552L4.52545 26.6514L5.46571 27.7509H3.5852H1.72656L2.64495 26.6514L3.5852 25.552Z" fill="#FFAB01"/>
<path d="M70.9991 32.7383H58.7539V44.1397H70.9991V32.7383Z" fill="#FFAB01"/>
<path d="M69.775 33.8574H59.957V42.9989H69.775V33.8574Z" fill="#FEC12F"/>
<path d="M63.5852 36.6874C63.5852 37.1353 63.1916 37.5018 62.7106 37.5018C62.2295 37.5018 61.8359 37.1353 61.8359 36.6874C61.8359 36.2395 62.2295 35.873 62.7106 35.873C63.1916 35.873 63.5852 36.2395 63.5852 36.6874Z" fill="#FFAB01"/>
<path d="M65.9261 38.3789L67.4786 40.2316L69.053 42.064H65.9261H62.7773L64.3517 40.2316L65.9261 38.3789Z" fill="#FFAB01"/>
<path d="M62.9757 39.478L64.0909 40.7811L65.1842 42.0637H62.9757H60.7891L61.8824 40.7811L62.9757 39.478Z" fill="#FFAB01"/>
<path d="M71.0009 0H39.7539V29.094H71.0009V0Z" fill="#C5E1F9"/>
<path d="M67.8948 2.87109H42.8359V26.2033H67.8948V2.87109Z" fill="#9AC7F7"/>
<path d="M52.1092 10.0572C52.1092 11.1973 51.1033 12.1338 49.8788 12.1338C48.6543 12.1338 47.6484 11.1973 47.6484 10.0572C47.6484 8.91701 48.6543 7.98047 49.8788 7.98047C51.1252 7.98047 52.1092 8.91701 52.1092 10.0572Z" fill="#C5E1F9"/>
<path d="M58.0539 14.3945L62.0554 19.0976L66.0569 23.8211H58.0539H50.0508L54.0523 19.0976L58.0539 14.3945Z" fill="#C5E1F9"/>
<path d="M50.5337 17.2036L53.3545 20.5019L56.1534 23.8205H50.5337H44.9141L47.7348 20.5019L50.5337 17.2036Z" fill="#C5E1F9"/>
</svg>
