<svg width="70" height="60" viewBox="0 0 70 60" fill="none" xmlns="http://www.w3.org/2000/svg">
<path d="M51.8567 53.1628C37.9177 54.3942 11.9235 54.8717 3.79194 50.2176C-4.40914 45.4731 2.05319 20.9162 10.2948 15.7093C18.5655 10.5878 48.9182 11.98 57.8206 12.8646C80.0417 15.071 68.0908 51.7254 51.8567 53.1628Z" fill="#9AC7F7"/>
<path d="M48.0586 47.7286C48.0586 47.7286 48.6109 55.5354 59.5511 60C59.5511 60 53.896 49.1503 58.9989 43.8277C62.0308 40.6301 48.0586 47.7286 48.0586 47.7286Z" fill="#9AC7F7"/>
<path d="M44.087 8.97018C37.7313 0.507909 26.7681 -3.02864 16.239 3.05219C5.70995 9.13301 5.04429 19.4017 11.3826 27.8894C16.3374 34.5046 23.3414 33.7514 31.9314 36.6468C33.6331 37.2218 35.9369 42 35.9369 42L49.1055 34.3672C49.1055 34.3672 45.0536 30.6169 45.0999 29.0191C45.482 20.9436 49.0476 15.5904 44.087 8.97018Z" fill="#FEC12F"/>
<path d="M35.5234 41.8412L36.705 43.4307C37.1694 44.0566 37.7682 44.5953 38.4673 45.0159C39.1664 45.4366 39.952 45.731 40.7794 45.8824C41.6068 46.0337 42.4598 46.0391 43.2895 45.8981C44.1192 45.7571 44.9095 45.4726 45.6152 45.0607L48.298 43.4915C49.0038 43.0797 49.6111 42.5486 50.0855 41.9286C50.5598 41.3086 50.8918 40.6119 51.0624 39.8781C51.2331 39.1443 51.2391 38.3879 51.0802 37.6521C50.9212 36.9162 50.6004 36.2154 50.136 35.5895L48.9544 34L35.5234 41.8412Z" fill="#3D7AA8"/>
<path d="M19.8516 22L20.1411 18.3488L24.0263 19.5504L24.3158 15.9044L28.1953 17.106L28.4964 13.4548L32.3758 14.6564L32.6769 11L36.568 12.1964" stroke="#F4DA80" stroke-width="3.73" stroke-miterlimit="10"/>
<path d="M24.0312 23L33.1092 29.0866L40.7477 39" stroke="#F4DA80" stroke-width="3.73" stroke-miterlimit="10"/>
<path d="M34.4766 17L37.3871 26.3111L44.9243 36" stroke="#F4DA80" stroke-width="3.73" stroke-miterlimit="10"/>
<path d="M48.306 35.4629L39.7812 40.334L40.7119 41.5608L49.2366 36.6897L48.306 35.4629Z" fill="#34688F"/>
<path d="M47.5982 39.0559L41.4648 42.5605L42.3955 43.7874L48.5288 40.2827L47.5982 39.0559Z" fill="#34688F"/>
</svg>
