<svg xmlns="http://www.w3.org/2000/svg" width="20" height="20" fill="none" viewBox="0 0 20 20">
    <path fill="#212121" d="M16 15.571c0 .237-.192.429-.429.429H5.286C4.576 16 4 15.424 4 14.714V4.43C4 4.192 4.192 4 4.429 4c.236 0 .428.192.428.429v10.285c0 .237.192.429.429.429H15.57c.237 0 .429.192.429.428zm-4.286-9.428c0-.237.192-.429.429-.429h3.428c.237 0 .429.192.429.429V9.57c0 .237-.192.429-.429.429-.236 0-.428-.192-.428-.429V7.178L11.16 11.16c-.08.08-.19.126-.303.126-.114 0-.223-.045-.303-.126L9.143 9.75l-2.697 2.697c-.167.167-.439.167-.606 0-.168-.168-.168-.439 0-.606l3-3c.08-.08.19-.126.303-.126.114 0 .223.045.303.126l1.411 1.411 3.68-3.68h-2.394c-.237 0-.429-.191-.429-.428z"/>
</svg>
