<svg width="38" height="38" viewBox="0 0 38 38" fill="none" xmlns="http://www.w3.org/2000/svg">
<path d="M15.4408 22.7947C14.7888 23.5839 14.3642 24.5678 14.2671 25.6461L4.27362 25.6456C3.48766 25.6456 2.8505 26.2828 2.8505 27.0687V28.1665C2.8505 29.1845 3.21368 30.169 3.87473 30.9431C6.11224 33.5634 9.54488 34.9729 14.267 35.1339C14.3607 36.2173 14.7861 37.2061 15.4408 37.9985L15.196 38C9.21776 38 4.68354 36.2799 1.70703 32.7942C0.605292 31.504 0 29.8631 0 28.1665V27.0687C0 24.8068 1.75724 22.9553 3.98102 22.805L4.27362 22.7951L15.4408 22.7947ZM24.2226 18.0444H29.9236C31.1535 18.0444 32.1651 18.9791 32.2867 20.177L32.299 20.4198L32.2981 22.7945L34.6744 22.7953C36.5111 22.7953 38 24.2842 38 26.1209V34.6724C38 36.509 36.5111 37.998 34.6744 37.998H19.4717C17.635 37.998 16.1461 36.509 16.1461 34.6724V26.1209C16.1461 24.2842 17.635 22.7953 19.4717 22.7953L21.8463 22.7945L21.8471 20.4198C21.8471 19.1899 22.7819 18.1783 23.9797 18.0567L24.2226 18.0444H29.9236H24.2226ZM34.6744 25.6458H19.4717C19.2093 25.6458 18.9966 25.8585 18.9966 26.1209V34.6724C18.9966 34.9348 19.2093 35.1475 19.4717 35.1475H34.6744C34.9368 35.1475 35.1495 34.9348 35.1495 34.6724V26.1209C35.1495 25.8585 34.9368 25.6458 34.6744 25.6458ZM29.4485 20.8949H24.6976L24.6968 22.7945H29.4476L29.4485 20.8949ZM15.196 0C20.4436 0 24.6976 4.25405 24.6976 9.50169C24.6976 14.7493 20.4436 19.0034 15.196 19.0034C9.94833 19.0034 5.69428 14.7493 5.69428 9.50169C5.69428 4.25405 9.94833 0 15.196 0ZM15.196 2.85051C11.5226 2.85051 8.54478 5.82834 8.54478 9.50169C8.54478 13.175 11.5226 16.1529 15.196 16.1529C18.8693 16.1529 21.8471 13.175 21.8471 9.50169C21.8471 5.82834 18.8693 2.85051 15.196 2.85051Z" fill="#979797"/>
</svg>
