<svg width="16" height="8" viewBox="0 0 16 8" fill="none" xmlns="http://www.w3.org/2000/svg">
<path d="M14.9922 0C15.1276 0 15.2448 0.0494792 15.3438 0.148438C15.4427 0.247396 15.4922 0.364583 15.4922 0.5C15.4922 0.635417 15.4427 0.752604 15.3438 0.851562L8.34375 7.85156C8.24479 7.95052 8.1276 8 7.99219 8C7.85677 8 7.73958 7.95052 7.64062 7.85156L0.640625 0.851562C0.541667 0.752604 0.492188 0.635417 0.492188 0.5C0.492188 0.364583 0.541667 0.247396 0.640625 0.148438C0.739583 0.0494792 0.856771 0 0.992188 0C1.1276 0 1.24479 0.0494792 1.34375 0.148438L7.99219 6.78906L14.6406 0.148438C14.7396 0.0494792 14.8568 0 14.9922 0Z" fill="#484644"/>
</svg>
