<svg xmlns="http://www.w3.org/2000/svg" width="16" height="16" fill="none" viewBox="0 0 16 16">
    <path fill="#6264A7" d="M13.657 2.344c.78.78.78 2.047 0 2.828L6.27 12.559c-.32.32-.721.547-1.161.657l-2.291.573c-.366.091-.698-.24-.606-.607l.572-2.29c.11-.44.338-.841.658-1.162l7.386-7.386c.782-.781 2.048-.781 2.829 0zm-3.536 2.12L4.15 10.438c-.192.192-.329.433-.394.697l-.371 1.483 1.482-.371c.264-.066.505-.202.697-.395l5.972-5.972-1.414-1.414zm1.415-1.413l-.708.707 1.414 1.414.708-.707c.39-.39.39-1.024 0-1.414-.39-.39-1.024-.39-1.414 0z"/>
</svg>
