<svg xmlns="http://www.w3.org/2000/svg" width="16" height="16" fill="none" viewBox="0 0 16 16">
    <path fill="#6264A7" d="M13.657 2.343c.78.781.78 2.048 0 2.829L6.27 12.558c-.32.32-.721.548-1.161.658l-2.291.572c-.366.092-.698-.24-.606-.606l.572-2.291c.11-.44.338-.841.658-1.161l7.386-7.387c.782-.78 2.048-.78 2.829 0zM10.12 4.464L4.15 10.437c-.192.192-.329.433-.394.697l-.371 1.482 1.482-.37c.264-.066.505-.203.697-.395l5.972-5.973-1.414-1.414zm1.415-1.414l-.708.707 1.414 1.414.708-.707c.39-.39.39-1.023 0-1.414-.39-.39-1.024-.39-1.414 0z"/>
</svg>
