<svg width="10" height="14" viewBox="0 0 10 14" fill="none" xmlns="http://www.w3.org/2000/svg">
<path d="M2.08333 5.25C1.85321 5.25 1.66667 5.44588 1.66667 5.6875C1.66667 5.92912 1.85321 6.125 2.08333 6.125H7.91667C8.14678 6.125 8.33333 5.92912 8.33333 5.6875C8.33333 5.44588 8.14678 5.25 7.91667 5.25H2.08333ZM1.66667 8.3125C1.66667 8.07088 1.85321 7.875 2.08333 7.875H4.58333C4.81345 7.875 5 8.07088 5 8.3125C5 8.55412 4.81345 8.75 4.58333 8.75H2.08333C1.85321 8.75 1.66667 8.55412 1.66667 8.3125ZM2.08333 10.5C1.85321 10.5 1.66667 10.6959 1.66667 10.9375C1.66667 11.1791 1.85321 11.375 2.08333 11.375H6.25C6.48012 11.375 6.66667 11.1791 6.66667 10.9375C6.66667 10.6959 6.48012 10.5 6.25 10.5H2.08333ZM3.75 0C3.20574 0 2.74273 0.365228 2.57113 0.875H1.25C0.559644 0.875 0 1.46263 0 2.1875V12.6875C0 13.4124 0.559644 14 1.25 14H8.75C9.44036 14 10 13.4124 10 12.6875V2.1875C10 1.46263 9.44036 0.875 8.75 0.875H7.42887C7.25727 0.365228 6.79426 0 6.25 0H3.75ZM6.25 0.875C6.48012 0.875 6.66667 1.07088 6.66667 1.3125C6.66667 1.55412 6.48012 1.75 6.25 1.75H3.75C3.51988 1.75 3.33333 1.55412 3.33333 1.3125C3.33333 1.07088 3.51988 0.875 3.75 0.875H6.25ZM1.25 1.75H2.57113C2.74273 2.25977 3.20574 2.625 3.75 2.625H6.25C6.79426 2.625 7.25727 2.25977 7.42887 1.75H8.75C8.98012 1.75 9.16667 1.94588 9.16667 2.1875V12.6875C9.16667 12.9291 8.98012 13.125 8.75 13.125H1.25C1.01988 13.125 0.833333 12.9291 0.833333 12.6875V2.1875C0.833333 1.94588 1.01988 1.75 1.25 1.75Z" fill="#212121"/>
</svg>
