<svg width="12" height="12" viewBox="0 0 12 12" fill="none" xmlns="http://www.w3.org/2000/svg">
<path d="M10.6526 0.90625C10.788 0.90625 10.9052 0.955729 11.0042 1.05469C11.1031 1.15365 11.1526 1.27083 11.1526 1.40625C11.1526 1.46875 11.1396 1.53125 11.1135 1.59375C11.0927 1.65625 11.0589 1.71094 11.012 1.75781L6.76979 6L11.012 10.2422C11.1057 10.3359 11.1526 10.4531 11.1526 10.5938C11.1526 10.7292 11.1031 10.8464 11.0042 10.9453C10.9052 11.0443 10.788 11.0938 10.6526 11.0938C10.5901 11.0938 10.5276 11.0833 10.4651 11.0625C10.4026 11.0365 10.3479 11 10.301 10.9531L6.05885 6.71094L1.81667 10.9531C1.72292 11.0469 1.60573 11.0938 1.4651 11.0938C1.32969 11.0938 1.2125 11.0443 1.11354 10.9453C1.01458 10.8464 0.965103 10.7292 0.965103 10.5938C0.965103 10.4531 1.01198 10.3359 1.10573 10.2422L5.34792 6L1.10573 1.75781C1.05885 1.71094 1.02239 1.65625 0.996353 1.59375C0.97552 1.53125 0.965103 1.46875 0.965103 1.40625C0.965103 1.27083 1.01458 1.15365 1.11354 1.05469C1.2125 0.955729 1.32969 0.90625 1.4651 0.90625C1.60573 0.90625 1.72292 0.953125 1.81667 1.04688L6.05885 5.28906L10.301 1.04688C10.3479 1 10.4026 0.966146 10.4651 0.945312C10.5276 0.919271 10.5901 0.90625 10.6526 0.90625Z" fill="#252423"/>
</svg>
