<svg width="12" height="12" viewBox="0 0 12 12" fill="none" xmlns="http://www.w3.org/2000/svg">
<path d="M11.8536 0.853553C12.0488 0.658291 12.0488 0.341709 11.8536 0.146447C11.6583 -0.0488155 11.3417 -0.0488155 11.1464 0.146447L8 3.29289V1.5C8 1.22386 7.77614 1 7.5 1C7.22386 1 7 1.22386 7 1.5V4.4C7 4.73137 7.26863 5 7.6 5H10.5C10.7761 5 11 4.77614 11 4.5C11 4.22386 10.7761 4 10.5 4H8.70711L11.8536 0.853553ZM4.5 11C4.22386 11 4 10.7761 4 10.5V8.70711L0.853553 11.8536C0.658291 12.0488 0.341709 12.0488 0.146447 11.8536C-0.0488156 11.6583 -0.0488156 11.3417 0.146447 11.1464L3.29289 8H1.5C1.22386 8 1 7.77614 1 7.5C1 7.22386 1.22386 7 1.5 7H4.4C4.73137 7 5 7.26863 5 7.6V10.5C5 10.7761 4.77614 11 4.5 11Z" fill="#212121"/>
</svg>
