<svg width="75" height="60" viewBox="0 0 75 60" fill="none" xmlns="http://www.w3.org/2000/svg">
<g clip-path="url(#clip0)">
<path d="M48.9275 3.38882C44.067 4.40394 39.3458 8.25292 28.9888 6.22692C9.60761 2.42023 -6.02148 10.1309 2.2776 32.0511C10.5767 53.9713 26.7545 65.8122 42.6602 57.1456C54.3346 50.7842 52.7188 40.8868 60.8916 39.0681C76.1091 35.6843 78.5089 23.6298 70.5277 13.1128C62.5466 2.59576 55.3908 2.03745 48.9275 3.38882Z" fill="#EAF4FE"/>
<path d="M16.2076 23.4031L15.7422 24.0671L16.2076 23.4031Z" fill="#CED6D9"/>
<path d="M39.7773 6.73043C39.9317 6.6851 40.086 6.64431 40.2403 6.60352C40.086 6.64431 39.9317 6.6851 39.7773 6.73043Z" fill="#94999B"/>
<path d="M10.9616 18.3574L16.2061 23.4022L15.7407 24.0662L10.4961 19.0192C10.6504 18.7925 10.8047 18.5659 10.9616 18.3574Z" fill="#A9B0B2"/>
<path d="M8.77911 21.8086L14.0237 26.8533C13.847 27.1819 13.6702 27.5083 13.4985 27.8414L8.25391 22.7944C8.42317 22.4635 8.59989 22.1349 8.77911 21.8086Z" fill="#A9B0B2"/>
<path d="M8.77911 21.8086C8.59741 22.1372 8.42317 22.4681 8.25391 22.7944C8.42317 22.4635 8.59989 22.1349 8.77911 21.8086Z" fill="#94999B"/>
<path d="M7.32816 24.7473L12.5752 29.792L12.5454 29.86L7.30078 24.813C7.30078 24.7904 7.32069 24.7677 7.32816 24.7473Z" fill="#ADB4B6"/>
<path d="M34.9925 1.55793L40.2445 6.60267C40.0902 6.64346 39.9359 6.68425 39.7815 6.72958L34.5195 1.68258C34.6763 1.63725 34.8307 1.59646 34.985 1.55566" fill="#979D9F"/>
<path d="M38.3355 0.832031L43.5826 5.87903C43.3337 5.91983 43.0848 5.96289 42.8358 6.01048L37.5938 0.963475C37.8427 0.915884 38.0916 0.870558 38.3405 0.832031" fill="#393CA6"/>
<path d="M51.6602 5.69897C52.0908 5.75563 52.5164 5.82815 52.9296 5.90974C52.5139 5.83269 52.0958 5.75563 51.6602 5.69897Z" fill="#9969F3"/>
<path d="M5.25536 32.9421L10.5024 37.9914C10.5024 38.1274 10.4825 38.2634 10.475 38.3993L5.23047 33.3523C5.23047 33.2164 5.24789 33.0804 5.25536 32.9421Z" fill="#C8A756"/>
<path d="M5.25602 32.9421C5.25602 33.0804 5.23813 33.2164 5.23047 33.3523C5.23558 33.2164 5.24324 33.0827 5.25602 32.9421Z" fill="#F3CC68"/>
<path d="M5.21104 33.7932L10.4556 38.8402C10.413 40.3828 10.5802 41.9242 10.9534 43.4294L5.71135 38.3824C5.33812 36.8772 5.17091 35.3358 5.21353 33.7932" fill="#C8A756"/>
<path d="M38.335 0.832031L43.5821 5.87903L41.8696 13.3419L36.625 8.29489L38.335 0.832031Z" fill="#C5C7A0"/>
<path d="M47.6874 0.861887L52.942 5.90889C52.5288 5.8273 52.1031 5.75478 51.6725 5.69813L46.418 0.651123C46.8486 0.70778 47.2717 0.780301 47.6874 0.861887Z" fill="#734FB8"/>
<path d="M42.2081 8.16924L47.4651 13.2162C45.609 12.9809 43.723 13.0238 41.882 13.3432L36.625 8.29615C38.4658 7.97573 40.352 7.93286 42.2081 8.16924Z" fill="#F4901E"/>
<path d="M37.5933 0.964757C37.8422 0.917165 38.0911 0.87184 38.34 0.82878C41.3269 0.34153 43.7663 0.287139 46.4122 0.649744L42.2081 8.16926C40.352 7.93288 38.4658 7.97575 36.625 8.29617L38.335 0.833313C38.0861 0.878638 37.8422 0.917165 37.5933 0.964757Z" fill="#FEC12F"/>
<path d="M46.4087 0.647217L51.6533 5.69649L47.4516 13.216L42.207 8.169L46.4087 0.647217Z" fill="#3FB94A"/>
<path d="M48.832 11.1529L54.0766 16.2022C52.4686 14.652 50.2384 13.596 47.4555 13.2152L42.2109 8.16821C44.9963 8.54895 47.2215 9.6073 48.832 11.1529Z" fill="#96A2BD"/>
<path d="M24.869 23.0421L24.8989 23.0058C25.1826 22.6863 25.4788 22.3735 25.78 22.0653L25.9941 21.8387C26.1559 21.6755 26.3227 21.5191 26.4919 21.3582C26.7408 21.1316 26.9897 20.8869 27.2387 20.6557L27.7041 20.2478C27.953 20.0211 28.2243 19.7945 28.4907 19.5905C28.6425 19.4682 28.7944 19.3435 28.9487 19.2234C29.2723 18.9718 29.5983 18.7294 29.9294 18.4914C30.0389 18.4121 30.1484 18.3282 30.2604 18.2489C30.706 17.9384 31.1565 17.637 31.617 17.3424C31.9705 17.1158 32.3289 16.9073 32.6898 16.6988C32.7819 16.6444 32.8765 16.5923 32.9711 16.5401C33.2665 16.3754 33.5652 16.2145 33.8672 16.0574L34.1509 15.9124C34.5293 15.7205 34.9101 15.5369 35.2935 15.3617L35.4353 15.3005C35.7813 15.1441 36.1323 14.9968 36.4833 14.8472L36.7098 14.7543C37.0881 14.607 37.4689 14.4688 37.8473 14.3396L38.0813 14.2625C38.4273 14.1469 38.7757 14.0359 39.1267 13.9407L39.2885 13.8909C39.6718 13.7843 40.0551 13.6892 40.4385 13.6008L40.6874 13.5441C41.0782 13.4603 41.4665 13.3809 41.8548 13.3175L36.6226 8.29541C36.2343 8.35887 35.846 8.43819 35.4577 8.52204L35.1939 8.57869C34.8106 8.66708 34.4297 8.76226 34.0464 8.86878L33.8796 8.91864C33.5312 9.01835 33.1852 9.12487 32.8392 9.24045L32.6052 9.3175C32.2269 9.44592 31.8485 9.58417 31.4702 9.73223L31.2337 9.82742C30.8902 9.96566 30.5492 10.1107 30.2057 10.2625L30.0439 10.3351L29.9742 10.3645C29.6158 10.5277 29.2623 10.6999 28.9089 10.879C28.8118 10.9266 28.7172 10.9787 28.6201 11.0285C28.3214 11.1826 28.0252 11.3436 27.729 11.509L27.4453 11.6676C27.0993 11.8671 26.7583 12.0688 26.4197 12.2818L26.3699 12.3135C25.912 12.6013 25.4614 12.8982 25.0208 13.22C24.9063 13.2994 24.7943 13.3855 24.6823 13.4671C24.3538 13.6937 24.0252 13.9452 23.7066 14.1923C23.6518 14.2376 23.5946 14.2761 23.5398 14.3192C23.4403 14.3985 23.3457 14.4824 23.2461 14.5639C22.9823 14.777 22.7209 14.9968 22.462 15.2189C22.3052 15.3549 22.1484 15.4908 21.9966 15.6291C21.7394 15.8587 21.4904 16.0922 21.2498 16.3294C21.1528 16.42 21.0532 16.5061 20.9611 16.5968C20.869 16.6874 20.8192 16.7396 20.7495 16.8234C20.6798 16.9073 20.6101 16.9662 20.5379 17.0364C20.2368 17.3469 19.9381 17.6597 19.6518 17.9815L19.6369 17.9996C19.3531 18.3169 19.0818 18.641 18.813 18.9696L18.6338 19.1962C18.5765 19.2665 18.5168 19.3367 18.462 19.4092C18.2479 19.6835 18.0364 19.9577 17.8348 20.241C17.2396 21.0598 16.6961 21.9087 16.2069 22.7837C15.9779 23.1939 15.7663 23.6041 15.5697 24.0098V24.0302C15.4004 24.3769 15.2486 24.7237 15.1017 25.0681L15.0046 25.3106C14.8603 25.6619 14.7258 26.0132 14.6089 26.3599C14.6037 26.3799 14.597 26.3996 14.5889 26.4188C14.4794 26.752 14.3799 27.0806 14.2927 27.4069C14.2703 27.484 14.2479 27.5588 14.228 27.6336C14.1434 27.9712 14.0637 28.3134 13.999 28.6353C13.999 28.6851 13.9841 28.7327 13.9741 28.7803C13.9194 29.0772 13.8746 29.3718 13.8372 29.6642C13.8372 29.7321 13.8173 29.8024 13.8123 29.8681C13.8074 29.9338 13.7974 29.9633 13.7924 30.0086C13.78 30.1446 13.78 30.276 13.77 30.4143C13.7551 30.6115 13.7377 30.8132 13.7327 31.0103C13.7277 31.2075 13.7327 31.3435 13.7327 31.5112C13.7327 31.6789 13.7327 31.8942 13.7476 32.0845C13.7626 32.2749 13.7725 32.4109 13.7874 32.5718C13.8024 32.7327 13.8223 32.9412 13.8497 33.1225C13.8771 33.3038 13.9019 33.4398 13.9318 33.5961C13.9617 33.7525 13.9965 33.9474 14.0388 34.1197C14.0388 34.1718 14.0588 34.2307 14.0737 34.2851C14.121 34.4777 14.1782 34.6681 14.2355 34.8539L14.2529 34.9106C14.34 35.1848 14.4421 35.45 14.5516 35.7129C14.579 35.7786 14.6089 35.8443 14.6387 35.91C14.7383 36.1366 14.8453 36.3633 14.9623 36.5718C14.9797 36.6103 14.9996 36.6466 15.0196 36.6851L15.042 36.7304C15.1714 36.957 15.3083 37.1837 15.4527 37.3876C15.4875 37.4375 15.5199 37.4873 15.5547 37.5349C15.714 37.7616 15.8808 37.9882 16.0525 38.1899L16.1222 38.2715C16.2168 38.3803 16.3114 38.4981 16.411 38.5956C16.5105 38.693 16.6151 38.8063 16.7196 38.9083L21.9617 43.9372C21.7477 43.7309 21.546 43.5134 21.3519 43.289L21.2946 43.2233C21.1154 43.0125 20.9486 42.7904 20.7968 42.5638C20.7595 42.5162 20.7271 42.4664 20.6923 42.4165C20.5404 42.1899 20.3961 41.9632 20.2616 41.7162C20.2392 41.6754 20.2193 41.6324 20.1969 41.5916C20.0824 41.3808 19.9779 41.1632 19.8783 40.9434C19.8509 40.8754 19.8186 40.8074 19.7912 40.7395C19.6817 40.4788 19.5796 40.2137 19.4925 39.9395C19.4925 39.9191 19.4925 39.8987 19.4751 39.8783C19.4004 39.6516 19.3382 39.3956 19.2784 39.1508C19.2361 38.9786 19.2038 38.7995 19.1714 38.6228C19.1391 38.446 19.1117 38.31 19.0893 38.1514C19.0669 37.9927 19.0445 37.7842 19.027 37.5961C19.0096 37.408 18.9947 37.2766 18.9872 37.1157C18.9797 36.9548 18.9872 36.7304 18.9872 36.5355C18.9872 36.3406 18.9872 36.2069 18.9872 36.0392C18.9872 35.8715 19.0096 35.6426 19.0246 35.4454C19.0395 35.2483 19.0445 35.0806 19.0669 34.897C19.0669 34.8313 19.0843 34.7633 19.0893 34.6976C19.1291 34.4052 19.1739 34.1083 19.2287 33.8069C19.2287 33.7616 19.2436 33.714 19.2536 33.6664C19.3183 33.3355 19.3979 33.0001 19.485 32.6624C19.505 32.5854 19.5249 32.5083 19.5473 32.4358C19.6369 32.1095 19.734 31.7786 19.846 31.4477L19.8659 31.3888C19.9829 31.0421 20.1148 30.6908 20.2592 30.3372C20.2915 30.2579 20.3239 30.1786 20.3587 30.1106C20.5056 29.7571 20.6624 29.4035 20.8341 29.0477C21.03 28.6398 21.2424 28.2311 21.4714 27.8217C21.9513 26.9416 22.4848 26.0867 23.0694 25.2608C23.3183 24.9095 23.5921 24.565 23.8634 24.2251L24.0576 23.9985C24.3264 23.6676 24.5927 23.3503 24.869 23.0421Z" fill="#BFD8F1"/>
<path d="M5.21104 33.7932L10.4556 38.8402C10.413 40.3828 10.5802 41.9242 10.9534 43.4294L5.71135 38.3824C5.33812 36.8772 5.17091 35.3358 5.21353 33.7932" fill="#C8A756"/>
<path d="M5.71094 38.3823L10.9555 43.4293C11.2633 44.6601 11.7373 45.8514 12.3668 46.9761L7.11729 41.9313C6.4909 40.8051 6.01859 39.6132 5.71094 38.3823Z" fill="#C5A555"/>
<path d="M7.11826 41.9312L12.3678 46.9759C12.9107 47.9413 13.5793 48.8438 14.3591 49.6637L9.10458 44.619C8.32622 43.7988 7.65776 42.8973 7.11328 41.9334" fill="#C2A354"/>
<path d="M9.10547 44.6191L14.36 49.6639C14.5044 49.818 14.6537 49.9676 14.808 50.1171L9.55102 45.0724C9.39918 44.9251 9.24984 44.7755 9.10547 44.6191Z" fill="#BFA153"/>
<path d="M11.285 17.9055C16.9079 10.1413 25.4456 4.1787 34.5209 1.68353L34.9939 1.55888C35.2677 1.48409 35.539 1.4161 35.8153 1.34812C36.0119 1.30052 36.2036 1.25747 36.3977 1.21667C36.796 1.12829 37.1942 1.04217 37.5925 0.967382C37.8414 0.91979 38.0903 0.874464 38.3392 0.835938L36.6292 8.29879C29.6597 9.43193 22.3417 14.003 17.8388 20.2194C17.2437 21.0382 16.7002 21.8872 16.2109 22.7622C11.0037 32.0766 14.2197 40.6363 23.3722 41.8873C27.0187 42.3859 31.0511 41.6358 34.9167 39.9836L35.8675 46.6737C30.2745 49.0601 24.44 50.1275 19.1705 49.4068C18.5881 49.3275 18.028 49.2187 17.4754 49.0963C17.3335 49.0691 17.1942 49.0374 17.0548 49.0057C16.6416 48.906 16.2383 48.7927 15.8475 48.6771L15.2128 48.4709C15.0104 48.4029 14.8112 48.3273 14.6154 48.2442C8.41004 45.8238 5.06715 40.4437 5.21152 33.7854C5.21152 33.6154 5.21152 33.4817 5.22894 33.3457C5.24637 33.2097 5.24637 33.0738 5.25383 32.9355C5.43485 30.4779 5.99458 28.0557 6.91657 25.7401C7.05347 25.3956 7.17793 25.101 7.30238 24.8064L7.48658 24.3758C7.56374 24.1967 7.65584 24.02 7.73549 23.8432C7.85497 23.5894 7.9844 23.331 8.10388 23.0727C8.15366 22.9775 8.20593 22.8846 8.25323 22.7871C8.42249 22.4608 8.59672 22.1299 8.77843 21.8013C9.18665 21.0761 9.52517 20.4982 9.89854 19.9271C9.94583 19.8478 10.0006 19.7639 10.0504 19.6846C10.1947 19.458 10.3441 19.2313 10.4959 19.0047C10.6478 18.7781 10.8046 18.5514 10.9614 18.3429L11.285 17.9055Z" fill="#D4EDFF"/>
<path d="M60.1931 13.3494L65.4377 18.3964L56.9672 22.0088L51.7227 16.9618L60.1931 13.3494Z" fill="#2DBC42"/>
<path d="M59.957 12.0491L65.2041 17.0938C65.6181 18.9851 65.7263 20.9213 65.5252 22.8411L60.2781 17.7941C60.4818 15.8751 60.3736 13.9393 59.957 12.0491Z" fill="#613DCD"/>
<path d="M59.957 12.0491L65.2041 17.0938C65.6181 18.9851 65.7263 20.9213 65.5252 22.8411L60.2781 17.7941C60.4818 15.8751 60.3736 13.9393 59.957 12.0491Z" fill="#C9C4BB"/>
<path d="M56.1055 4.91553L61.3501 9.96253C63.2717 11.8118 64.5859 14.205 65.2032 17.0922C65.2953 17.516 65.375 17.9512 65.4372 18.3954L60.1926 13.3416C60.1304 12.8883 60.0507 12.4622 59.9561 12.0407C59.3289 9.15574 58.0271 6.76934 56.1055 4.91553Z" fill="#96A2BD"/>
<path d="M56.1055 4.91553L61.3501 9.96253C61.4944 10.1008 61.6338 10.2413 61.7707 10.3863L56.5261 5.33706C56.3867 5.19428 56.2473 5.05377 56.1055 4.91553Z" fill="#1F70BE"/>
<path d="M56.5273 5.33667L61.7719 10.395C62.5049 11.1717 63.1333 12.0253 63.6437 12.9378L58.4166 7.9021C57.9031 6.98617 57.2723 6.12883 56.5373 5.348" fill="#96A2BD"/>
<path d="M58.4141 7.90137L63.6412 12.937C64.2773 14.0822 64.7547 15.2949 65.0625 16.5472L59.8279 11.5002C59.523 10.2517 59.048 9.04272 58.4141 7.90137Z" fill="#96A2BD"/>
<path d="M59.8281 11.5007L65.0727 16.5477C65.1175 16.729 65.1598 16.9103 65.2021 17.0916C65.2942 17.5154 65.3739 17.9505 65.4361 18.3947L60.1915 13.3409C60.1293 12.8877 60.0497 12.4616 59.9551 12.0401C59.9152 11.8542 59.8729 11.6729 59.8281 11.4939" fill="#96A2BD"/>
<path d="M56.7702 28.3053L62.0123 33.3523L54.6221 32.3393L49.375 27.29L56.7702 28.3053Z" fill="#BB8F37"/>
<path d="M56.7691 28.3L62.0137 33.347C61.7648 33.8003 61.5159 34.2241 61.2446 34.6547L56 29.6077C56.2489 29.1771 56.5202 28.7442 56.7691 28.3Z" fill="#3BCAAB"/>
<path d="M56.7691 28.3L62.0112 33.3471C61.7623 33.8003 61.5134 34.2218 61.2446 34.6524L56 29.6054C56.2663 29.1748 56.5202 28.742 56.7691 28.3Z" fill="#5D6572"/>
<path d="M59.957 12.0491L65.2041 17.0938C65.6181 18.9851 65.7263 20.9213 65.5252 22.8411L60.2781 17.7941C60.4818 15.8751 60.3736 13.9393 59.957 12.0491Z" fill="#C9C9C9"/>
<path d="M60.2776 17.7927L65.5247 22.8397C65.1901 25.8645 64.3157 28.8192 62.936 31.5876L57.6914 26.5406C59.0704 23.7721 59.944 20.8174 60.2776 17.7927Z" fill="#CCCCCC"/>
<path d="M57.6923 26.5428L62.9369 31.5898C62.6531 32.1745 62.3469 32.7615 62.0184 33.3507C61.7695 33.8039 61.4882 34.2685 61.2119 34.7105L55.9648 29.6612C56.2436 29.2079 56.5149 28.7547 56.7738 28.3014C57.1057 27.7122 57.4119 27.1252 57.6923 26.5405" fill="#C9C9C9"/>
<path d="M62.0184 33.35C61.7695 33.8032 61.4882 34.2678 61.2119 34.7097L55.9648 29.6605C56.2436 29.2072 56.5149 28.754 56.7738 28.3007C59.7608 22.9455 60.8336 17.7625 60.2013 13.3433C61.9487 15.0248 63.6969 16.7072 65.4459 18.3903C66.0782 22.8118 65.0128 27.9948 62.0184 33.35Z" fill="#35A3BF"/>
<path d="M59.957 12.0491L65.2041 17.0938C65.6181 18.9851 65.7263 20.9213 65.5252 22.8411L60.2781 17.7941C60.4818 15.8751 60.3736 13.9393 59.957 12.0491Z" fill="#0450CF"/>
<path d="M60.2776 17.7927L65.5247 22.8397C65.1901 25.8645 64.3157 28.8192 62.936 31.5876L57.6914 26.5406C59.0704 23.7721 59.944 20.8174 60.2776 17.7927Z" fill="#0450CF"/>
<path d="M57.6923 26.5428L62.9369 31.5898C62.6531 32.1745 62.3469 32.7615 62.0184 33.3507C61.7695 33.8039 61.4882 34.2685 61.2119 34.7105L55.9648 29.6612C56.2436 29.2079 56.5149 28.7547 56.7738 28.3014C57.1057 27.7122 57.4119 27.1252 57.6923 26.5405" fill="#0450CF"/>
<path d="M51.7244 16.9701L60.1874 13.3599C60.1252 12.9067 60.0455 12.4806 59.9509 12.0591C61.0213 16.7389 60.0605 22.4205 56.7673 28.3128C56.5184 28.7661 56.2372 29.2193 55.9584 29.6726L55.9932 29.6137C56.2596 29.1831 56.5135 28.7502 56.7624 28.3083L49.3672 27.293C51.4481 23.5922 52.16 20.016 51.7244 16.9701Z" fill="#0561FC"/>
<path d="M46.4101 0.651123C46.8531 0.710046 47.2713 0.784834 47.687 0.864153C54.4076 2.14687 58.6391 6.01541 59.9584 12.0505C60.053 12.472 60.1326 12.9072 60.1948 13.3514L51.7244 16.9683C51.0623 12.3429 47.7268 8.92984 42.2109 8.17744L46.4101 0.651123Z" fill="#B0BFDE"/>
<path d="M41.1133 51.716C41.646 51.4894 42.1786 51.2628 42.7038 51.0044C42.1811 51.2492 41.6509 51.4864 41.1133 51.716Z" fill="#535C68"/>
<path d="M55.9638 29.6599L61.2108 34.7069C61.0117 35.0355 60.7976 35.3596 60.5861 35.6814L60.4815 35.8378C60.1596 36.3273 59.8277 36.8085 59.4859 37.2814C59.1872 37.6961 58.881 38.1018 58.5649 38.5052L53.3203 33.4559C53.6356 33.0556 53.9426 32.6484 54.2413 32.2344C54.5848 31.76 54.9167 31.2795 55.2369 30.7931L55.3415 30.6321C55.5531 30.3126 55.7646 29.9863 55.9638 29.6599Z" fill="#3BCAAB"/>
<path d="M53.319 33.4651L58.5636 38.5144C57.4824 39.8954 56.306 41.2125 55.0415 42.4577L49.7969 37.4107C51.0613 36.1646 52.2377 34.8467 53.319 33.4651Z" fill="#3AC8A7"/>
<path d="M49.797 37.4116L55.0416 42.4586C53.9332 43.5527 52.759 44.59 51.5244 45.5657L46.2773 40.5187C47.5134 39.5437 48.6884 38.5063 49.797 37.4116Z" fill="#39C5A5"/>
<path d="M46.277 40.519L51.524 45.566C50.2552 46.5683 48.9256 47.505 47.5414 48.3717L42.2969 43.3224C43.6816 42.4573 45.0113 41.5214 46.2795 40.519" fill="#38C2A3"/>
<path d="M42.2962 43.321L47.5408 48.3703C45.9902 49.3386 44.375 50.2181 42.7044 51.0037L42.2314 51.2303L36.9844 46.1765L37.4598 45.9499C39.1304 45.1635 40.7457 44.2833 42.2962 43.3142" fill="#38BFA1"/>
<path d="M36.9851 46.1772L42.2372 51.2242C41.8688 51.3919 41.4963 51.5559 41.1196 51.716L35.875 46.6713C36.2509 46.5081 36.6217 46.345 36.9901 46.1772" fill="#36BC9F"/>
<path d="M34.9102 39.9802L40.1572 45.0295L41.1081 51.7173L35.8635 46.6703L34.9102 39.9802Z" fill="#92A4B7"/>
<path d="M19.1672 49.4033C18.5847 49.324 18.0247 49.2152 17.4721 49.0928C17.3302 49.0656 17.1908 49.0339 17.0514 49.0022C16.6382 48.9025 16.235 48.7892 15.8442 48.6736L15.2144 48.4696C15.012 48.4016 14.8129 48.3261 14.6171 48.243C14.515 48.2045 14.4154 48.1614 14.3134 48.1206C12.5243 47.3951 10.9077 46.359 9.55418 45.0702C9.85039 45.3557 10.1491 45.6413 10.4453 45.9291L10.1292 45.6617C10.0694 45.6118 10.0072 45.5642 9.94746 45.5121C9.7782 45.3671 9.61641 45.2175 9.44964 45.0589L9.40234 45.0181L14.6494 50.0651L14.6992 50.1127C14.8585 50.2622 15.0178 50.4073 15.1821 50.5501C15.2518 50.6112 15.3265 50.6702 15.3986 50.7291C15.5131 50.8243 15.6276 50.9195 15.7471 51.0146C15.8268 51.0781 15.9139 51.137 15.996 51.2005L16.337 51.452L16.6133 51.6333C16.7278 51.7104 16.8423 51.7874 16.9618 51.86L17.2555 52.0345C17.375 52.1047 17.492 52.1772 17.614 52.2452C17.7359 52.3132 17.8206 52.3563 17.9251 52.4107C18.0296 52.4651 18.174 52.5421 18.296 52.6033C18.4179 52.6645 18.5125 52.7076 18.6221 52.7597C18.7316 52.8118 18.871 52.8798 19.0054 52.9342C19.1398 52.9886 19.2319 53.0316 19.3489 53.0792C19.4659 53.1268 19.5331 53.1608 19.6277 53.1971L19.7471 53.2447L19.8567 53.29C20.0533 53.3648 20.2549 53.4373 20.4565 53.5053C20.6582 53.5733 20.8722 53.6435 21.0813 53.7115C21.4746 53.8271 21.8778 53.9382 22.291 54.0401L22.7142 54.1331C23.2643 54.2532 23.8268 54.3597 24.4093 54.4413C29.6738 55.1619 35.5132 54.0945 41.1063 51.7081L35.8592 46.6611C30.2711 49.0566 24.4366 50.124 19.1672 49.4033Z" fill="#B1C8DF"/>
<path d="M55.3428 30.6411L60.5874 35.6904L60.4828 35.8468L55.2383 30.793L55.3428 30.6321" fill="#C8A756"/>
<path d="M55.3428 30.6411L60.5874 35.6904L60.4828 35.8468L55.2383 30.793L55.3428 30.6321" fill="#BBC5C9"/>
<path d="M55.9638 29.6599L61.2108 34.7069C61.0117 35.0355 60.7976 35.3596 60.5861 35.6814L60.4815 35.8378C60.1596 36.3273 59.8277 36.8085 59.4859 37.2814C59.1872 37.6961 58.881 38.1018 58.5649 38.5052L53.3203 33.4559C53.6356 33.0556 53.9426 32.6484 54.2413 32.2344C54.5848 31.76 54.9167 31.2795 55.2369 30.7931L55.3415 30.6321C55.5531 30.3126 55.7646 29.9863 55.9638 29.6599Z" fill="#0450CF"/>
<path d="M53.319 33.4651L58.5636 38.5144C57.4824 39.8954 56.306 41.2125 55.0415 42.4577L49.7969 37.4107C51.0613 36.1646 52.2377 34.8467 53.319 33.4651Z" fill="#0450CF"/>
<path d="M49.797 37.4116L55.0416 42.4586C53.9332 43.5527 52.759 44.59 51.5244 45.5657L46.2773 40.5187C47.5134 39.5437 48.6884 38.5063 49.797 37.4116Z" fill="#0450CF"/>
<path d="M46.277 40.519L51.524 45.566C50.2552 46.5683 48.9256 47.505 47.5414 48.3717L42.2969 43.3224C43.6816 42.4573 45.0113 41.5214 46.2795 40.519" fill="#0450CF"/>
<path d="M42.2962 43.321L47.5408 48.3703C45.9902 49.3386 44.375 50.2181 42.7044 51.0037L42.2314 51.2303L36.9844 46.1765L37.4598 45.9499C39.1304 45.1635 40.7457 44.2833 42.2962 43.3142" fill="#0450CF"/>
<path d="M36.9851 46.1772L42.2372 51.2242C41.8688 51.3919 41.4963 51.5559 41.1196 51.716L35.875 46.6713C36.2509 46.5081 36.6217 46.345 36.9901 46.1772" fill="#36BC9F"/>
<path d="M37.4609 45.9565L42.7055 51.0036C42.5462 51.0783 42.3868 51.1531 42.2251 51.2302L36.9805 46.1832C37.1423 46.1107 37.2991 46.0359 37.4609 45.9565Z" fill="#57606B"/>
<path d="M36.9805 46.1772L42.2375 51.2243C41.8692 51.395 41.4991 51.5581 41.1274 51.7138L35.8828 46.669C36.2545 46.5179 36.6246 46.354 36.993 46.1772" fill="#545D69"/>
<path d="M41.3024 51.6436L41.1157 51.723L35.8711 46.6782C36.4038 46.4516 36.9339 46.2136 37.4616 45.9644L42.7062 51.0114C42.3752 51.1609 41.9495 51.3581 41.3024 51.6436Z" fill="#0450CF"/>
<path d="M37.4609 45.9565L42.7055 51.0036C42.5462 51.0783 42.3868 51.1531 42.2251 51.2302L36.9805 46.1832C37.1423 46.1107 37.2991 46.0359 37.4609 45.9565Z" fill="#0450CF"/>
<path d="M36.9805 46.1772L42.2375 51.2243C41.8692 51.395 41.4991 51.5581 41.1274 51.7138L35.8828 46.669C36.2545 46.5179 36.6246 46.354 36.993 46.1772" fill="#0450CF"/>
<path d="M34.9102 39.9803C40.1172 37.7152 44.5531 34.2082 47.7466 29.8319C48.3395 29.015 48.8813 28.1683 49.3695 27.2959L56.7672 28.2999C56.5182 28.7531 56.2693 29.1769 55.998 29.6075L55.9632 29.6664C55.764 29.9928 55.5525 30.3191 55.3409 30.6387L55.2363 30.7996C54.9144 31.2861 54.5825 31.7665 54.2407 32.2409C50.0324 38.047 44.2541 42.7694 37.4615 45.9542C36.9363 46.2012 36.4086 46.4369 35.871 46.6681L34.9102 39.9803Z" fill="#0561FC"/>
<path d="M22.275 23.7743L22.2344 23.5623L22.275 23.7743Z" fill="#EC9568"/>
</g>
<defs>
<clipPath id="clip0">
<rect width="75" height="60" fill="white"/>
</clipPath>
</defs>
</svg>
