<svg width="14" height="14" viewBox="0 0 14 14" fill="none" xmlns="http://www.w3.org/2000/svg">
<path d="M6.1939 1.1013C6.52403 0.432381 7.47789 0.432377 7.80802 1.1013L9.32911 4.18335L12.7304 4.67758C13.4685 4.78485 13.7633 5.69202 13.2291 6.21271L10.768 8.61175L11.349 11.9993C11.4751 12.7345 10.7034 13.2951 10.0431 12.948L7.00096 11.3487L3.95879 12.948C3.29853 13.2951 2.52684 12.7345 2.65294 11.9993L3.23394 8.61175L0.772773 6.21271C0.238609 5.69203 0.533365 4.78485 1.27156 4.67758L4.67281 4.18335L6.1939 1.1013ZM7.00096 1.72556L5.54628 4.67306C5.41519 4.93869 5.16178 5.1228 4.86864 5.1654L1.61588 5.63805L3.9696 7.93236C4.18171 8.13913 4.27851 8.43703 4.22843 8.72898L3.6728 11.9686L6.58215 10.4391C6.84434 10.3012 7.15758 10.3012 7.41977 10.4391L10.3291 11.9686L9.77348 8.72898C9.72341 8.43702 9.8202 8.13912 10.0323 7.93236L12.386 5.63805L9.13328 5.1654C8.84014 5.1228 8.58673 4.93869 8.45564 4.67306L7.00096 1.72556Z" fill="#212121"/>
</svg>
