<svg xmlns="http://www.w3.org/2000/svg" width="16" height="16" fill="none" viewBox="0 0 16 16">
    <path fill="#212121" d="M14.255 3.125v4.318c-.235-.19-.492-.356-.766-.493V3.125c0-.207-.171-.375-.383-.375H9.66c-.634 0-1.148.504-1.148 1.125v3.919c-.314.325-.573.7-.766 1.11V3.875c0-.621-.515-1.125-1.15-1.125H3.15c-.212 0-.383.168-.383.375v8.25c0 .207.171.375.383.375h3.447c.33 0 .629-.137.839-.356.052.271.131.533.235.783-.306.204-.676.323-1.074.323H3.149C2.514 12.5 2 11.996 2 11.375v-8.25C2 2.504 2.514 2 3.149 2h3.447c.626 0 1.182.295 1.532.75.349-.455.905-.75 1.531-.75h3.447c.635 0 1.15.504 1.15 1.125z"/>
    <path fill="#212121" d="M10.433 10.25c.036-.846.191-1.592.414-2.137.128-.314.27-.542.41-.686.137-.143.245-.177.317-.177.072 0 .18.034.318.177.14.144.282.372.41.686.223.545.378 1.29.413 2.137h-2.282zM10.136 7.834c.049-.12.102-.235.159-.344-1.157.453-2.005 1.503-2.146 2.76h1.518c.036-.925.204-1.77.469-2.416zM13.013 7.834c-.049-.12-.102-.235-.16-.344 1.158.453 2.005 1.503 2.147 2.76h-1.518c-.036-.925-.205-1.77-.469-2.416zM13.482 11H15c-.142 1.258-.99 2.307-2.146 2.76.057-.11.11-.224.16-.344.263-.647.432-1.49.468-2.416zM11.892 13.823c-.138.143-.245.177-.318.177-.072 0-.18-.034-.318-.177-.139-.144-.281-.373-.41-.686-.222-.545-.377-1.29-.413-2.137h2.282c-.035.846-.19 1.592-.413 2.137-.128.313-.27.542-.41.686zM8.149 11c.141 1.258.989 2.307 2.146 2.76-.057-.11-.11-.224-.16-.344-.264-.647-.432-1.49-.468-2.416H8.149z"/>
</svg>
