<svg width="12" height="14" viewBox="0 0 12 14" fill="none" xmlns="http://www.w3.org/2000/svg">
<path d="M5.31299 1.26139C5.69849 0.896919 6.30151 0.896919 6.68701 1.26139L11.5305 5.84073C11.8302 6.12407 12 6.51829 12 6.9307V12.4999C12 13.3284 11.3284 13.9999 10.5 13.9999H8.5C7.67157 13.9999 7 13.3284 7 12.4999V9.99997C7 9.72383 6.77614 9.49997 6.5 9.49997H5.5C5.22386 9.49997 5 9.72383 5 9.99997V12.4999C5 13.3284 4.32843 13.9999 3.5 13.9999H1.5C0.671573 13.9999 0 13.3284 0 12.4999V6.9307C0 6.51829 0.169802 6.12407 0.46948 5.84073L5.31299 1.26139ZM6 1.98804L1.15649 6.56738C1.0566 6.66182 1 6.79323 1 6.9307V12.4999C1 12.7761 1.22386 12.9999 1.5 12.9999H3.5C3.77614 12.9999 4 12.7761 4 12.4999V9.99997C4 9.17155 4.67157 8.49997 5.5 8.49997H6.5C7.32843 8.49997 8 9.17154 8 9.99997V12.4999C8 12.7761 8.22386 12.9999 8.5 12.9999H10.5C10.7761 12.9999 11 12.7761 11 12.4999V6.9307C11 6.79323 10.9434 6.66182 10.8435 6.56738L6 1.98804Z" fill="#6264A7"/>
</svg>
