<svg width="12" height="13" viewBox="0 0 12 13" fill="none" xmlns="http://www.w3.org/2000/svg">
<path d="M6 5.30566C6.27614 5.30566 6.5 5.52952 6.5 5.80566V8.80566C6.5 9.08181 6.27614 9.30566 6 9.30566C5.72386 9.30566 5.5 9.08181 5.5 8.80566V5.80566C5.5 5.52952 5.72386 5.30566 6 5.30566ZM6.00001 4.55473C6.41369 4.55473 6.74905 4.21938 6.74905 3.80569C6.74905 3.39201 6.41369 3.05666 6.00001 3.05666C5.58633 3.05666 5.25098 3.39201 5.25098 3.80569C5.25098 4.21938 5.58633 4.55473 6.00001 4.55473ZM0 6.30566C0 2.99196 2.68629 0.305664 6 0.305664C9.31371 0.305664 12 2.99196 12 6.30566C12 9.61937 9.31371 12.3057 6 12.3057C2.68629 12.3057 0 9.61937 0 6.30566ZM6 1.30566C3.23858 1.30566 1 3.54424 1 6.30566C1 9.06709 3.23858 11.3057 6 11.3057C8.76142 11.3057 11 9.06709 11 6.30566C11 3.54424 8.76142 1.30566 6 1.30566Z" fill="#212121"/>
</svg>
