<svg width="14" height="14" viewBox="0 0 14 14" fill="none" xmlns="http://www.w3.org/2000/svg">
<path d="M10.3352 1.06544L10.4116 1.21801L10.9881 2.75099C11.0333 2.87171 11.1286 2.96697 11.2493 3.01226L12.7294 3.56753C13.3789 3.81121 13.7279 4.50524 13.5549 5.1619L13.5132 5.29259L12.8246 6.81541C12.7713 6.9328 12.7713 7.06751 12.8246 7.1849L13.4786 8.62411C13.7655 9.25568 13.5216 9.99324 12.9349 10.3352L12.7823 10.4116L11.2493 10.9881C11.1286 11.0333 11.0333 11.1286 10.9881 11.2493L10.4328 12.7294C10.1891 13.3789 9.49507 13.7279 8.83842 13.5549L8.70773 13.5132L7.1849 12.8246C7.06751 12.7713 6.9328 12.7713 6.81541 12.8246L5.3762 13.4786C4.74463 13.7655 4.00708 13.5216 3.66513 12.9349L3.58871 12.7823L3.01226 11.2493C2.96697 11.1286 2.87171 11.0333 2.75099 10.9881L1.27092 10.4328C0.621413 10.1891 0.27239 9.49507 0.445464 8.83842L0.487106 8.70773L1.17567 7.1849C1.22901 7.06751 1.22901 6.9328 1.17567 6.81541L0.521741 5.3762C0.234775 4.74463 0.478737 4.00708 1.06544 3.66513L1.21801 3.58871L2.75099 3.01226C2.87171 2.96697 2.96697 2.87171 3.01226 2.75099L3.56753 1.27092C3.81121 0.621413 4.50524 0.27239 5.1619 0.445464L5.29259 0.487106L6.81541 1.17567C6.9328 1.22901 7.06751 1.22901 7.1849 1.17567L8.62411 0.521741C9.25568 0.234775 9.99324 0.478737 10.3352 1.06544ZM4.40382 1.58466L3.84855 3.06474C3.71267 3.4269 3.4269 3.71267 3.06474 3.84855L1.58466 4.40382L1.48668 4.45513C1.31265 4.57574 1.24424 4.8071 1.33494 5.00671L1.98887 6.44592C2.14888 6.79809 2.14888 7.20223 1.98887 7.55439L1.32893 9.00744L1.30193 9.09916C1.26416 9.30751 1.37939 9.51948 1.58466 9.59649L3.06474 10.1518C3.4269 10.2876 3.71267 10.5734 3.84855 10.9356L4.40382 12.4157L4.45513 12.5136C4.57574 12.6877 4.8071 12.7561 5.00671 12.6654L6.44592 12.0114C6.79809 11.8514 7.20223 11.8514 7.55439 12.0114L9.00744 12.6714L9.09916 12.6984C9.30751 12.7362 9.51948 12.6209 9.59649 12.4157L10.1518 10.9356C10.2876 10.5734 10.5734 10.2876 10.9356 10.1518L12.4157 9.59649L12.5136 9.54519C12.6877 9.42458 12.7561 9.19321 12.6654 8.9936L12.0114 7.55439C11.8514 7.20223 11.8514 6.79809 12.0114 6.44592L12.6714 4.99287L12.6984 4.90115C12.7362 4.6928 12.6209 4.48083 12.4157 4.40382L10.9356 3.84855C10.5734 3.71267 10.2876 3.4269 10.1518 3.06474L9.59649 1.58466L9.54519 1.48668C9.42458 1.31265 9.19321 1.24424 8.9936 1.33494L7.55439 1.98887C7.20223 2.14888 6.79809 2.14888 6.44592 1.98887L5.00671 1.33494L4.97884 1.32339C4.7479 1.23675 4.49046 1.35373 4.40382 1.58466ZM5.9784 8.34681L9.16405 4.70607C9.32648 4.52044 9.60862 4.50163 9.79425 4.66405C9.95667 4.80617 9.99137 5.03996 9.8887 5.22054L9.83626 5.29425L6.33626 9.29425C6.1874 9.46437 5.9398 9.49326 5.75784 9.37544L5.68436 9.31595L4.18436 7.81595C4.00995 7.64154 4.00995 7.35877 4.18436 7.18436C4.33697 7.03175 4.57254 7.01268 4.74589 7.12713L4.81595 7.18436L5.9784 8.34681L9.16405 4.70607L5.9784 8.34681Z" fill="#212121"/>
</svg>
