<svg width="34" height="34" viewBox="0 0 34 34" fill="none" xmlns="http://www.w3.org/2000/svg">
<path d="M25.5 11.3333C27.0648 11.3333 28.3333 10.0648 28.3333 8.5C28.3333 6.93519 27.0648 5.66667 25.5 5.66667C23.9352 5.66667 22.6667 6.93519 22.6667 8.5C22.6667 10.0648 23.9352 11.3333 25.5 11.3333Z" fill="#979797"/>
<path d="M15.5833 28.3333V26.9167H18.4167C19.1991 26.9167 19.8333 26.2824 19.8333 25.5V22.6667H22.6667C28.9259 22.6667 34 17.5926 34 11.3333C34 5.07411 28.9259 0 22.6667 0C16.4074 0 11.3333 5.07411 11.3333 11.3333C11.3333 12.4443 11.4936 13.5198 11.7929 14.537L0.829864 25.5C0.29851 26.0314 0 26.752 0 27.5035V31.1667C0 32.7315 1.26853 34 2.83333 34H8.5C10.0648 34 11.3333 32.7315 11.3333 31.1667V29.75H14.1667C14.9491 29.75 15.5833 29.1157 15.5833 28.3333ZM14.1667 11.3333C14.1667 6.63891 17.9722 2.83333 22.6667 2.83333C27.3611 2.83333 31.1667 6.63891 31.1667 11.3333C31.1667 16.0278 27.3611 19.8333 22.6667 19.8333H18.4167C17.6343 19.8333 17 20.4676 17 21.25V24.0833H14.1667C13.3843 24.0833 12.75 24.7176 12.75 25.5V26.9167H9.91667C9.13426 26.9167 8.5 27.5509 8.5 28.3333V31.1667H2.83333L2.83333 27.5035L14.4188 15.918C14.8156 15.5212 14.9408 14.9275 14.7379 14.4043C14.3695 13.4537 14.1667 12.4189 14.1667 11.3333Z" fill="#979797"/>
</svg>
