<svg width="12" height="10" viewBox="0 0 12 10" fill="none" xmlns="http://www.w3.org/2000/svg">
<path d="M1.20062 0H1.80093C2.43354 0 2.95239 0.453554 2.99825 1.02823L3.00154 1.11111V8.88889C3.00154 9.47434 2.51145 9.95451 1.89049 9.99695L1.80093 10H1.20062C0.568001 10 0.0491559 9.54645 0.00329516 8.97177L0 8.88889V1.11111C0 0.525657 0.49009 0.0454913 1.11106 0.00304951L1.20062 0H1.80093H1.20062ZM4.80247 0H5.40278C6.0354 0 6.55424 0.453554 6.6001 1.02823L6.6034 1.11111V8.88889C6.6034 9.47434 6.11331 9.95451 5.49234 9.99695L5.40278 10H4.80247C4.16985 10 3.65101 9.54645 3.60515 8.97177L3.60185 8.88889V1.11111C3.60185 0.525657 4.09194 0.0454913 4.71291 0.00304951L4.80247 0H5.40278H4.80247ZM8.9892 1.11139C9.49318 1.11139 9.95462 1.40617 10.1238 1.85909L10.152 1.94583L11.9619 8.47139C12.1195 9.03828 11.7739 9.61631 11.1835 9.80009L11.0975 9.82361L10.5158 9.96194C10.4161 9.98528 10.3153 9.99694 10.2168 9.99694C9.71342 9.99694 9.25149 9.70167 9.08278 9.24869L9.05464 9.16195L7.24411 2.63694C7.0871 2.06952 7.43221 1.49197 8.0231 1.30825L8.10915 1.28472L8.69025 1.14639C8.7899 1.1225 8.89075 1.11139 8.9892 1.11139ZM1.80093 0.833333H1.20062C1.05334 0.833333 0.930731 0.932099 0.905302 1.06135L0.900463 1.11111V8.88889C0.900463 9.02469 1.00671 9.13855 1.14669 9.16217L1.20062 9.16667H1.80093C1.9482 9.16667 2.07081 9.0679 2.09624 8.93865L2.10108 8.88889V1.11111C2.10108 0.975309 1.99483 0.861454 1.85486 0.83783L1.80093 0.833333ZM5.40278 0.833333H4.80247C4.65519 0.833333 4.53258 0.932099 4.50715 1.06135L4.50232 1.11111V8.88889C4.50232 9.02469 4.60856 9.13855 4.74854 9.16217L4.80247 9.16667H5.40278C5.55006 9.16667 5.67267 9.0679 5.6981 8.93865L5.70293 8.88889V1.11111C5.70293 0.975309 5.59669 0.861454 5.45671 0.83783L5.40278 0.833333ZM8.98981 1.94472L8.95176 1.94688L8.91417 1.95361L8.33307 2.09139C8.22801 2.11639 8.17278 2.18194 8.14877 2.21972C8.13004 2.24906 8.10324 2.30399 8.10711 2.37457L8.11636 2.43028L9.92689 8.95472C9.96651 9.09806 10.1052 9.16361 10.2168 9.16361L10.2544 9.16146L10.2919 9.15472L10.8736 9.01639C11.0166 8.98281 11.1088 8.8588 11.0985 8.72787L11.0897 8.67861L9.27975 2.15306C9.23953 2.01028 9.10146 1.94472 8.98981 1.94472Z" fill="#212121"/>
</svg>
