<svg xmlns="http://www.w3.org/2000/svg" width="16" height="16" fill="none" viewBox="0 0 16 16">
    <path fill="#212121" d="M7.998 2.002c-1.229 0-2.35.481-3.168 1.31-.798.81-1.29 1.937-1.33 3.233l-.001.019v.02c.057 1.236.655 2.324 1.737 3.453l.702 2.942.007.022c.1.297.292.544.534.717.251.18.558.282.883.282l1.384-.004.021-.002c.315-.027.607-.15.84-.345.231-.194.406-.46.48-.774l.796-3.05c1.034-.994 1.618-2.144 1.618-3.437 0-1.214-.507-2.311-1.32-3.102-.816-.795-1.943-1.284-3.183-1.284zM5.543 4.014c.628-.637 1.493-1.012 2.455-1.012.974 0 1.852.383 2.486 1 .63.614 1.017 1.457 1.017 2.386 0 .991-.453 1.926-1.404 2.805l-.108.1L9.543 11H6.494l-.349-1.464-.097-.1C5 8.373 4.548 7.482 4.499 6.558c.038-1.048.434-1.925 1.044-2.543zM6.733 12h2.55l-.165.628-.003.012c-.022.094-.074.177-.15.24-.073.062-.165.103-.267.115L7.361 13c-.113 0-.217-.036-.3-.095-.075-.054-.131-.125-.162-.206L6.732 12z"/>
</svg>
