<svg width="9" height="12" viewBox="0 0 9 12" fill="none" xmlns="http://www.w3.org/2000/svg">
<path d="M2.5 3C2.77614 3 3 2.77614 3 2.5C3 2.22386 2.77614 2 2.5 2C2.22386 2 2 2.22386 2 2.5C2 2.77614 2.22386 3 2.5 3ZM3 5C3 5.27614 2.77614 5.5 2.5 5.5C2.22386 5.5 2 5.27614 2 5C2 4.72386 2.22386 4.5 2.5 4.5C2.77614 4.5 3 4.72386 3 5ZM2.5 8C2.77614 8 3 7.77614 3 7.5C3 7.22386 2.77614 7 2.5 7C2.22386 7 2 7.22386 2 7.5C2 7.77614 2.22386 8 2.5 8ZM5 2.5C5 2.77614 4.77614 3 4.5 3C4.22386 3 4 2.77614 4 2.5C4 2.22386 4.22386 2 4.5 2C4.77614 2 5 2.22386 5 2.5ZM4.5 5.5C4.77614 5.5 5 5.27614 5 5C5 4.72386 4.77614 4.5 4.5 4.5C4.22386 4.5 4 4.72386 4 5C4 5.27614 4.22386 5.5 4.5 5.5ZM5 7.5C5 7.77614 4.77614 8 4.5 8C4.22386 8 4 7.77614 4 7.5C4 7.22386 4.22386 7 4.5 7C4.77614 7 5 7.22386 5 7.5ZM6.5 8C6.77614 8 7 7.77614 7 7.5C7 7.22386 6.77614 7 6.5 7C6.22386 7 6 7.22386 6 7.5C6 7.77614 6.22386 8 6.5 8ZM1.5 0C0.671573 0 0 0.671573 0 1.5V11.5C0 11.7761 0.223858 12 0.5 12H8.5C8.77614 12 9 11.7761 9 11.5V6.5C9 5.67157 8.32843 5 7.5 5H7V1.5C7 0.671573 6.32843 0 5.5 0H1.5ZM1 1.5C1 1.22386 1.22386 1 1.5 1H5.5C5.77614 1 6 1.22386 6 1.5V5.5C6 5.77614 6.22386 6 6.5 6H7.5C7.77614 6 8 6.22386 8 6.5V11H7V9.5C7 9.22386 6.77614 9 6.5 9H2.5C2.22386 9 2 9.22386 2 9.5V11H1V1.5ZM6 10V11H5.00252V10H6ZM4.00252 10V11H3V10H4.00252Z" fill="#212121"/>
</svg>
