<svg width="10" height="8" viewBox="0 0 10 8" fill="none" xmlns="http://www.w3.org/2000/svg">
<path d="M3.33333 4.8C4.10993 4.8 4.76247 5.3099 4.94749 5.99998L9.58333 6C9.81345 6 10 6.17909 10 6.4C10 6.59637 9.8526 6.75969 9.65823 6.79356L9.58333 6.8L4.94727 6.80082C4.76196 7.49049 4.10963 8 3.33333 8C2.55704 8 1.90471 7.49049 1.71939 6.80082L0.416667 6.8C0.186548 6.8 0 6.62091 0 6.4C0 6.20363 0.147396 6.04031 0.34177 6.00644L0.416667 6L1.71918 5.99998C1.9042 5.3099 2.55674 4.8 3.33333 4.8ZM3.33333 5.6C2.8731 5.6 2.5 5.95817 2.5 6.4C2.5 6.84183 2.8731 7.2 3.33333 7.2C3.79357 7.2 4.16667 6.84183 4.16667 6.4C4.16667 5.95817 3.79357 5.6 3.33333 5.6ZM6.66667 0C7.44326 0 8.0958 0.509902 8.28082 1.19998L9.58333 1.2C9.81345 1.2 10 1.37909 10 1.6C10 1.79637 9.8526 1.95969 9.65823 1.99356L9.58333 2L8.28061 2.00082C8.09529 2.69049 7.44296 3.2 6.66667 3.2C5.89037 3.2 5.23804 2.69049 5.05273 2.00082L0.416667 2C0.186548 2 0 1.82091 0 1.6C0 1.40363 0.147396 1.24031 0.34177 1.20644L0.416667 1.2L5.05251 1.19998C5.23753 0.509902 5.89007 0 6.66667 0ZM6.66667 0.8C6.20643 0.8 5.83333 1.15817 5.83333 1.6C5.83333 2.04183 6.20643 2.4 6.66667 2.4C7.1269 2.4 7.5 2.04183 7.5 1.6C7.5 1.15817 7.1269 0.8 6.66667 0.8Z" fill="#6264A7"/>
</svg>
