<svg width="36" height="36" viewBox="0 0 36 36" fill="none" xmlns="http://www.w3.org/2000/svg">
<path d="M12.8544 23.412C13.28 23.8353 13.3181 24.4972 12.9692 24.9633L12.8528 25.0969L7.24783 30.6518C6.86766 31.0286 6.28849 31.1041 5.82841 30.8562L5.6799 30.7616L2.47991 28.378C1.94978 27.9831 1.84246 27.2363 2.24019 26.71C2.60176 26.2315 3.25627 26.1 3.77057 26.3767L3.92022 26.472L6.28806 28.236L11.1573 23.4105C11.6263 22.9456 12.3861 22.9463 12.8544 23.412ZM32.7801 26.2336C33.4429 26.2336 33.9801 26.767 33.9801 27.425C33.9801 28.0281 33.5287 28.5266 32.943 28.6055L32.7801 28.6164H15.9802C15.3174 28.6164 14.7802 28.083 14.7802 27.425C14.7802 26.8218 15.2316 26.3234 15.8173 26.2445L15.9802 26.2336H32.7801ZM32.8 16.7033C33.4627 16.7033 34 17.2367 34 17.8947C34 18.4978 33.5486 18.9963 32.9628 19.0752L32.8 19.0861H16C15.3373 19.0861 14.8 18.5527 14.8 17.8947C14.8 17.2915 15.2515 16.793 15.8372 16.7142L16 16.7033H32.8ZM12.8556 4.3509C13.2806 4.77485 13.3178 5.43682 12.9681 5.90243L12.8516 6.03578L7.23062 11.5907C6.84972 11.9671 6.27008 12.0417 5.8103 11.7928L5.66191 11.6978L2.47792 9.31586C1.94862 8.91988 1.84285 8.17288 2.24169 7.64738C2.60426 7.16965 3.25904 7.03944 3.77276 7.31721L3.92222 7.41284L6.27366 9.17209L11.1585 4.347C11.6282 3.88281 12.388 3.88456 12.8556 4.3509ZM32.7801 7.17296C33.4429 7.17296 33.9801 7.70636 33.9801 8.36435C33.9801 8.9675 33.5287 9.46598 32.943 9.54487L32.7801 9.55574H16.0253C15.3625 9.55574 14.8253 9.02234 14.8253 8.36435C14.8253 7.76119 15.2767 7.26272 15.8624 7.18383L16.0253 7.17296H32.7801Z" fill="#6264A7"/>
</svg>
