<svg width="218" height="34" viewBox="0 0 218 34" fill="none" xmlns="http://www.w3.org/2000/svg">
<path d="M8.87976 22.281C5.72841 17.8544 6.75409 11.708 11.1541 8.53759C14.5581 6.08501 19.1365 6.08501 22.5406 8.53759L27.1933 3.85676C20.2068 -1.8709 9.93517 -0.824073 4.24192 6.20465C-0.663486 12.2464 -0.663486 20.9201 4.24192 26.9618L8.87976 22.281Z" fill="white"/>
<path d="M24.8742 10.9601C27.9661 15.4316 26.8661 21.563 22.4364 24.6736C19.0769 27.0365 14.6026 27.0215 11.2431 24.6736L6.57556 29.3694C13.5621 35.0821 23.8485 34.0203 29.5269 26.9766C34.4026 20.9499 34.4026 12.3061 29.5269 6.2793L24.8742 10.9601Z" fill="white"/>
<path d="M68.7702 0.746094H61.9324V32.4501H68.7702V0.746094Z" fill="white"/>
<path d="M57.2796 25.9747H44.5107V0.746094H37.6729V32.4501H57.2796V25.9747Z" fill="white"/>
<path d="M80.8107 0.746094H73.5417L85.835 32.4501H93.1039L80.8107 0.746094Z" fill="white"/>
<path d="M130.46 7.07195V0.746094H116.591H109.753V32.4501H130.356L130.37 25.9747H116.501V19.619H129.241V13.2931H116.501V7.07195H130.46Z" fill="white"/>
<path d="M94.9026 27.8142L105.62 0.746094H98.3364L91.3053 18.5123L94.9026 27.8142Z" fill="white"/>
<path d="M191.607 25.9747H178.838V0.746094H172V32.4501H191.607V25.9747Z" fill="#00FFA6"/>
<path d="M215.707 7.07195V0.746094H201.838H195V32.4501H215.603L215.618 25.9747H201.749V19.619H214.488V13.2931H201.749V7.07195H215.707Z" fill="#00FFA6"/>
<path d="M145.269 0.746094H138L150.293 32.4501H157.562L145.269 0.746094Z" fill="#00FFA6"/>
<path d="M159.361 27.8142L170.079 0.746094H162.795L155.764 18.5123L159.361 27.8142Z" fill="#00FFA6"/>
</svg>
