<svg width="72" height="72" viewBox="0 0 72 72" fill="none" xmlns="http://www.w3.org/2000/svg">
<circle cx="36" cy="36" r="36" fill="#6264A7"/>
<path d="M29.1482 22.322L50.4713 33.4699C51.8618 34.1969 52.4025 35.9189 51.679 37.316C51.41 37.8355 50.9883 38.2592 50.4713 38.5295L29.1482 49.6774C27.7577 50.4044 26.044 49.8611 25.3204 48.464C25.1099 48.0574 25 47.6059 25 47.1477V24.8517C25 23.2768 26.2707 22 27.8382 22C28.2291 22 28.6151 22.0811 28.9722 22.2375L29.1482 22.322ZM28.1405 24.2679L28.044 24.227C27.9778 24.205 27.9083 24.1936 27.8382 24.1936C27.4765 24.1936 27.1832 24.4883 27.1832 24.8517V47.1477C27.1832 47.2534 27.2086 47.3576 27.2572 47.4514C27.4241 47.7739 27.8196 47.8992 28.1405 47.7315L49.4636 36.5835C49.5829 36.5211 49.6802 36.4234 49.7423 36.3035C49.9092 35.981 49.7844 35.5837 49.4636 35.4159L28.1405 24.2679Z" fill="white"/>
</svg>
