<svg width="8" height="8" viewBox="0 0 8 8" fill="none" xmlns="http://www.w3.org/2000/svg">
<path d="M3.91012 0.00805569L4 0C4.24546 0 4.44961 0.176875 4.49194 0.410124L4.5 0.5V3.5H7.5C7.74546 3.5 7.94961 3.67688 7.99194 3.91012L8 4C8 4.24546 7.82312 4.44961 7.58988 4.49194L7.5 4.5H4.5V7.5C4.5 7.74546 4.32312 7.94961 4.08988 7.99194L4 8C3.75454 8 3.55039 7.82312 3.50806 7.58988L3.5 7.5V4.5H0.5C0.25454 4.5 0.0503916 4.32312 0.00805569 4.08988L0 4C0 3.75454 0.176875 3.55039 0.410124 3.50806L0.5 3.5H3.5V0.5C3.5 0.25454 3.67688 0.0503916 3.91012 0.00805569Z" fill="#6264A7"/>
</svg>
