<svg width="12" height="11" viewBox="0 0 12 11" fill="none" xmlns="http://www.w3.org/2000/svg">
<path d="M11.3124 1.20312L11.3124 4.9893C10.9968 4.73589 10.6395 4.52997 10.2519 4.38277V1.20312C10.2519 1.1082 10.1727 1.03125 10.0751 1.03125L7.07025 1.03125C6.58215 1.03125 6.18647 1.416 6.18647 1.89063V5.14016C5.69971 5.5815 5.32958 6.14288 5.12593 6.7758V1.89063C5.12593 1.41601 4.73025 1.03125 4.24215 1.03125H1.23729C1.13967 1.03125 1.06054 1.1082 1.06054 1.20313V8.42188C1.06054 8.5168 1.13967 8.59375 1.23729 8.59375H4.24215C4.53987 8.59375 4.8032 8.4506 4.96333 8.23123C4.9979 8.62613 5.09489 9.00372 5.24466 9.35464C4.95192 9.52626 4.60889 9.625 4.24215 9.625H1.23729C0.553955 9.625 0 9.08634 0 8.42188V1.20313C0 0.538658 0.553955 0 1.23729 0H4.24215C4.79929 0 5.30171 0.227869 5.6562 0.592992C6.01069 0.227869 6.5131 0 7.07025 0H10.0751C10.7584 0 11.3124 0.538657 11.3124 1.20312Z" fill="#212121"/>
<path d="M7.78454 7.5625C7.81755 6.78682 7.96063 6.10284 8.16615 5.60324C8.28424 5.31617 8.41601 5.10693 8.54424 4.97508C8.67177 4.84395 8.77109 4.8125 8.83781 4.8125C8.90452 4.8125 9.00384 4.84395 9.13137 4.97508C9.25961 5.10693 9.39138 5.31617 9.50946 5.60324C9.71498 6.10284 9.85807 6.78682 9.89108 7.5625H7.78454Z" fill="#212121"/>
<path d="M7.5097 5.3479C7.55491 5.23799 7.60391 5.13247 7.65675 5.03267C6.58894 5.44801 5.80665 6.40983 5.67561 7.5625H7.07696C7.11027 6.71441 7.26588 5.9406 7.5097 5.3479Z" fill="#212121"/>
<path d="M10.1659 5.3479C10.1207 5.23799 10.0717 5.13247 10.0189 5.03267C11.0867 5.44801 11.869 6.40983 12 7.5625H10.5987C10.5653 6.71441 10.4097 5.9406 10.1659 5.3479Z" fill="#212121"/>
<path d="M10.5987 8.25H12C11.869 9.40267 11.0867 10.3645 10.0189 10.7798C10.0717 10.68 10.1207 10.5745 10.1659 10.4646C10.4097 9.8719 10.5653 9.09809 10.5987 8.25Z" fill="#212121"/>
<path d="M9.13137 10.8374C9.00384 10.9685 8.90452 11 8.83781 11C8.77109 11 8.67177 10.9685 8.54424 10.8374C8.41601 10.7056 8.28424 10.4963 8.16615 10.2093C7.96063 9.70966 7.81755 9.02567 7.78454 8.25H9.89108C9.85807 9.02567 9.71498 9.70966 9.50946 10.2093C9.39138 10.4963 9.25961 10.7056 9.13137 10.8374Z" fill="#212121"/>
<path d="M5.67561 8.25C5.80665 9.40267 6.58894 10.3645 7.65675 10.7798C7.60391 10.68 7.55491 10.5745 7.5097 10.4646C7.26588 9.8719 7.11027 9.09809 7.07696 8.25H5.67561Z" fill="#212121"/>
</svg>
