<svg xmlns="http://www.w3.org/2000/svg" width="16" height="16" fill="none" viewBox="0 0 16 16">
    <path fill="#212121" d="M11 6c.552 0 1-.448 1-1s-.448-1-1-1-1 .448-1 1 .448 1 1 1z"/>
    <path fill="#212121" d="M7.5 12v-.5h1c.276 0 .5-.224.5-.5v-1h1c2.21 0 4-1.79 4-4s-1.79-4-4-4-4 1.79-4 4c0 .392.057.772.162 1.13L2.292 11c-.187.188-.292.442-.292.707V13c0 .552.448 1 1 1h2c.552 0 1-.448 1-1v-.5h1c.276 0 .5-.224.5-.5zM7 6c0-1.657 1.343-3 3-3s3 1.343 3 3-1.343 3-3 3H8.5c-.276 0-.5.224-.5.5v1H7c-.276 0-.5.224-.5.5v.5h-1c-.276 0-.5.224-.5.5v1H3v-1.293l4.089-4.089c.14-.14.184-.35.113-.534C7.072 6.748 7 6.384 7 6z"/>
</svg>
