<svg xmlns="http://www.w3.org/2000/svg" x="0px" y="0px" viewBox="0 0 16 12">
    <path d="M15.8,7.7c-0.3-0.3-0.8-0.3-1.1,0L13,9.4V0.8C13,0.3,12.7,0,12.3,0c-0.4,0-0.8,0.3-0.8,0.8v8.7L9.8,7.7C9.5,7.4,9,7.4,8.7,7.7s-0.3,0.8,0,1.1l3,3c0.1,0.1,0.3,0.2,0.5,0.2c0.2,0,0.4-0.1,0.6-0.3l2.9-2.9C16.1,8.5,16.1,8,15.8,7.7z"/>
    <path d="M4.3,0.2C4.1,0.1,3.9,0,3.8,0C3.5,0,3.3,0.1,3.2,0.3L0.2,3.2c-0.3,0.3-0.3,0.8,0,1.1c0.3,0.3,0.8,0.3,1.1,0L3,2.6v8.7C3,11.7,3.3,12,3.8,12c0.4,0,0.8-0.3,0.8-0.8V2.6l1.7,1.7c0.3,0.3,0.8,0.3,1.1,0c0.3-0.3,0.3-0.8,0-1.1L4.3,0.2z"/>
</svg>
