<svg xmlns="http://www.w3.org/2000/svg" width="24" height="24" fill="none" viewBox="0 0 24 24">
    <path fill="url(#paint0_angular)" d="M1.623 11.34c-1.02-.067-1.808-.954-1.585-1.953.406-1.818 1.231-3.526 2.421-4.982C4.042 2.47 6.19 1.076 8.602.42c2.413-.656 4.971-.541 7.316.327 2.345.868 4.36 2.448 5.763 4.517 1.404 2.07 2.126 4.526 2.066 7.026-.06 2.5-.9 4.918-2.402 6.917-1.502 2-3.59 3.48-5.975 4.234-1.792.567-3.685.703-5.524.407-1.01-.162-1.543-1.222-1.227-2.195.315-.973 1.363-1.483 2.381-1.39 1.091.099 2.197-.019 3.253-.353 1.648-.521 3.093-1.545 4.13-2.927 1.04-1.382 1.62-3.055 1.661-4.783.042-1.728-.457-3.426-1.428-4.857-.97-1.43-2.363-2.523-3.984-3.123-1.622-.6-3.39-.68-5.058-.226-1.668.453-3.153 1.417-4.248 2.755-.7.858-1.219 1.842-1.53 2.892-.291.98-1.152 1.765-2.173 1.698z"/>
    <defs>
        <radialGradient id="paint0_angular" cx="0" cy="0" r="1" gradientTransform="matrix(0 12 -11.875 0 11.875 12)" gradientUnits="userSpaceOnUse">
            <stop stop-color="#6D71AC"/>
            <stop offset=".146" stop-color="#6D71AC" stop-opacity="0"/>
            <stop offset=".818" stop-color="#6D71AC"/>
        </radialGradient>
    </defs>
</svg>
