<svg width="28" height="25" viewBox="0 0 28 25" fill="none" xmlns="http://www.w3.org/2000/svg">
<path d="M12.3878 1.07369C13.048 -0.264144 14.9557 -0.264152 15.616 1.07369L18.6582 7.2378L25.4607 8.22626C26.9371 8.44079 27.5266 10.2551 26.4583 11.2965L21.5359 16.0946L22.6979 22.8696C22.9501 24.34 21.4068 25.4614 20.0862 24.7671L14.0019 21.5684L7.91755 24.7671C6.59703 25.4614 5.05364 24.34 5.30584 22.8696L6.46785 16.0946L1.54552 11.2965C0.477188 10.2551 1.0667 8.44079 2.5431 8.22626L9.3456 7.2378L12.3878 1.07369ZM14.0019 2.32222L11.0925 8.21722C10.8303 8.74848 10.3235 9.1167 9.73725 9.20189L3.23173 10.1472L7.93917 14.7358C8.3634 15.1493 8.55699 15.7451 8.45684 16.3291L7.34556 22.8083L13.1643 19.7492C13.6887 19.4735 14.3151 19.4735 14.8395 19.7492L20.6582 22.8083L19.5469 16.3291C19.4468 15.7451 19.6404 15.1493 20.0646 14.7358L24.7721 10.1472L18.2665 9.20189C17.6803 9.1167 17.1734 8.74848 16.9112 8.21722L14.0019 2.32222Z" fill="#1E1E1E"/>
<path d="M23.2928 6.57747C22.9022 6.18694 22.9022 5.55378 23.2928 5.16325L26.2928 2.16325C26.6833 1.77273 27.3165 1.77273 27.707 2.16325C28.0975 2.55378 28.0975 3.18694 27.707 3.57747L24.707 6.57747C24.3165 6.96799 23.6833 6.96799 23.2928 6.57747Z" fill="#1E1E1E"/>
<path d="M0.292771 20.1633C-0.0977531 20.5538 -0.0977531 21.1869 0.292771 21.5775C0.683295 21.968 1.31646 21.968 1.70698 21.5775L4.70698 18.5775C5.09751 18.1869 5.09751 17.5538 4.70698 17.1633C4.31646 16.7727 3.6833 16.7727 3.29277 17.1633L0.292771 20.1633Z" fill="#1E1E1E"/>
<path d="M0.292864 2.16325C0.683389 1.77273 1.31655 1.77273 1.70708 2.16325L4.70708 5.16325C5.0976 5.55378 5.0976 6.18694 4.70708 6.57747C4.31655 6.96799 3.68339 6.96799 3.29286 6.57747L0.292864 3.57747C-0.09766 3.18694 -0.09766 2.55378 0.292864 2.16325Z" fill="#1E1E1E"/>
<path d="M24.7071 17.1633C24.3166 16.7727 23.6834 16.7727 23.2929 17.1633C22.9023 17.5538 22.9023 18.1869 23.2929 18.5775L26.2929 21.5775C26.6834 21.968 27.3166 21.968 27.7071 21.5775C28.0976 21.1869 28.0976 20.5538 27.7071 20.1633L24.7071 17.1633Z" fill="#1E1E1E"/>
</svg>
