<svg width="14" height="13" viewBox="0 0 14 13" fill="none" xmlns="http://www.w3.org/2000/svg">
<path d="M8.36833 0.447153C7.53719 -0.0963028 6.4632 -0.096318 5.63206 0.447115L0.226379 3.98153C0.0863166 4.07311 0.00135374 4.22869 1.60299e-05 4.39602C-0.000131849 4.41452 0.000744339 4.43289 0.00260698 4.45106C0.00104403 4.46716 0.000244137 4.48348 0.000244137 4.49998L0.000243958 8.49998C0.000243839 8.77613 0.224102 8.99998 0.500244 8.99998C0.776386 8.99998 1.00024 8.77613 1.00024 8.49998L1.00024 5.34242L2.00024 6.01932V9.7C2.00024 9.81865 2.04303 9.93413 2.11988 10.0245L2.12063 10.0254L2.12261 10.0277L2.12848 10.0345L2.14777 10.0563C2.16397 10.0743 2.18685 10.0993 2.21627 10.1303C2.27509 10.1922 2.36021 10.2781 2.4705 10.3799C2.69075 10.5832 3.01336 10.8519 3.42924 11.1201C4.25989 11.656 5.47808 12.2 7.00034 12.2C8.52261 12.2 9.74075 11.656 10.5714 11.1201C10.9872 10.8518 11.3098 10.5832 11.53 10.3799C11.6403 10.2781 11.7254 10.1922 11.7842 10.1303C11.8137 10.0993 11.8365 10.0743 11.8527 10.0562L11.872 10.0345L11.8779 10.0277L11.8799 10.0254L11.8812 10.0238C11.9581 9.93341 12.0002 9.81864 12.0002 9.7V6.01906L13.7803 4.81407C13.9189 4.72027 14.0017 4.60538 14 4.39602C13.9986 4.22869 13.9137 4.07312 13.7736 3.98154L8.36833 0.447153ZM11.0002 6.696V9.50221C10.9603 9.54235 10.9107 9.59063 10.8517 9.6451C10.6657 9.8168 10.3883 10.0482 10.0292 10.2799C9.30988 10.744 8.27808 11.2 7.00034 11.2C5.7226 11.2 4.69075 10.744 3.97135 10.2798C3.6122 10.0481 3.33479 9.81679 3.14877 9.64509C3.08975 9.59062 3.04014 9.54234 3.00024 9.5022V6.69622L5.59878 8.45516C6.44521 9.02812 7.55518 9.0281 8.4016 8.45512L11.0002 6.696ZM2.50024 9.7L2.11988 10.0245C2.11988 10.0245 2.11928 10.0238 2.50024 9.7ZM6.1793 1.28409C6.67799 0.95803 7.32238 0.958039 7.82106 1.28411L12.5974 4.39998L7.84103 7.62702C7.33317 7.97081 6.66719 7.97082 6.15933 7.62704L1.40264 4.40724L6.1793 1.28409Z" fill="#fff"/>
</svg>
