<svg width="11" height="12" viewBox="0 0 11 12" fill="none" xmlns="http://www.w3.org/2000/svg">
<path d="M5.75 0C4.09315 0 2.75 1.34315 2.75 3C2.75 4.65685 4.09315 6 5.75 6C7.40685 6 8.75 4.65685 8.75 3C8.75 1.34315 7.40685 0 5.75 0ZM3.5 3C3.5 1.75736 4.50736 0.75 5.75 0.75C6.99264 0.75 8 1.75736 8 3C8 4.24264 6.99264 5.25 5.75 5.25C4.50736 5.25 3.5 4.24264 3.5 3ZM2.00654 6.75C1.17736 6.75 0.5 7.41515 0.5 8.25C0.5 9.5184 1.12461 10.4747 2.10125 11.0974C3.06273 11.7105 4.35894 12 5.75 12C7.14106 12 8.43727 11.7105 9.39875 11.0974C10.3754 10.4747 11 9.5184 11 8.25C11 7.42168 10.3284 6.75 9.50003 6.75L2.00654 6.75ZM1.25 8.25C1.25 7.83502 1.5859 7.5 2.00654 7.5L9.50003 7.5C9.91414 7.5 10.25 7.83587 10.25 8.25C10.25 9.2316 9.7833 9.96276 8.99554 10.4651C8.19261 10.977 7.05133 11.25 5.75 11.25C4.44867 11.25 3.30739 10.977 2.50446 10.4651C1.7167 9.96276 1.25 9.2316 1.25 8.25Z" fill="#242424"/>
</svg>
