<svg width="12" height="12" viewBox="0 0 12 12" fill="none" xmlns="http://www.w3.org/2000/svg">
<path d="M1.24423 1.92703C1.4383 1.09233 2.19744 0.5 3.07313 0.5H8.93014C9.80583 0.5 10.565 1.09233 10.759 1.92703L11.9526 7.06036C12.2193 8.20759 11.3272 9.3 10.1237 9.3H5.25149V8.56667H10.1237C10.8458 8.56667 11.3811 7.91122 11.221 7.22288L10.0275 2.08955C9.91104 1.58873 9.45555 1.23333 8.93014 1.23333H3.07313C2.54772 1.23333 2.09223 1.58873 1.97579 2.08955L1.66335 3.43333H1.1253C1.04585 3.43333 0.967552 3.43816 0.8907 3.44754L1.24423 1.92703ZM5.21397 10.7667H9.37769C9.58485 10.7667 9.7528 10.6025 9.7528 10.4C9.7528 10.1975 9.58485 10.0333 9.37769 10.0333H5.25149V10.4C5.25149 10.5256 5.23858 10.6482 5.21397 10.7667ZM2.25065 7.1C2.66499 7.1 3.00087 6.77168 3.00087 6.36667C3.00087 5.96166 2.66499 5.63333 2.25065 5.63333C1.83632 5.63333 1.50043 5.96166 1.50043 6.36667C1.50043 6.77168 1.83632 7.1 2.25065 7.1ZM0 5.26667C0 4.65915 0.503826 4.16667 1.12533 4.16667H3.37598C3.99748 4.16667 4.5013 4.65915 4.5013 5.26667V10.4C4.5013 11.0075 3.99748 11.5 3.37598 11.5H1.12533C0.503826 11.5 0 11.0075 0 10.4V5.26667ZM1.12533 4.9C0.918159 4.9 0.750217 5.06416 0.750217 5.26667V10.4C0.750217 10.6025 0.918159 10.7667 1.12533 10.7667H3.37598C3.58314 10.7667 3.75109 10.6025 3.75109 10.4V5.26667C3.75109 5.06416 3.58314 4.9 3.37598 4.9H1.12533Z" fill="#242424"/>
</svg>
