<svg width="16" height="11" viewBox="0 0 16 11" fill="none" xmlns="http://www.w3.org/2000/svg">
<path d="M15.9431 0.462912C15.9068 0.375106 15.853 0.2928 15.7819 0.221263L15.7803 0.21967L15.7787 0.218082C15.6431 0.0832921 15.4563 0 15.25 0H9.75C9.33579 0 9 0.335786 9 0.75C9 1.16421 9.33579 1.5 9.75 1.5H13.4393L8.5 6.43934L6.53033 4.46967C6.23744 4.17678 5.76256 4.17678 5.46967 4.46967L0.21967 9.71967C-0.0732233 10.0126 -0.0732233 10.4874 0.21967 10.7803C0.512563 11.0732 0.987437 11.0732 1.28033 10.7803L6 6.06066L7.96967 8.03033C8.26256 8.32322 8.73744 8.32322 9.03033 8.03033L14.5 2.56066V6.25C14.5 6.66421 14.8358 7 15.25 7C15.6642 7 16 6.66421 16 6.25V0.75C16 0.648308 15.9798 0.551342 15.9431 0.462912Z" fill="#212121"/>
</svg>
