<svg width="13" height="8" viewBox="0 0 13 8" fill="none" xmlns="http://www.w3.org/2000/svg">
<path d="M6.49602 0L11.544 0.00178862L11.6303 0.0167627L11.6926 0.0377922L11.7513 0.0667348L11.8131 0.108922L11.8706 0.162669L11.9113 0.21334L11.946 0.27081L11.9783 0.348801L11.9898 0.391914L12.0011 0.478317L12.0015 5.5C12.0015 5.77614 11.7777 6 11.5015 6C11.2561 6 11.0519 5.82312 11.0096 5.58988L11.0015 5.5L11.001 1.707L5.85782 6.85347C5.68439 7.02698 5.41516 7.04642 5.22027 6.91168L5.151 6.85392L3.50037 5.20674L0.853553 7.85355C0.658291 8.04882 0.341709 8.04882 0.146447 7.85355C-0.0271197 7.67999 -0.046405 7.41056 0.0885911 7.21569L0.146447 7.14645L3.14645 4.14645C3.31988 3.97301 3.58907 3.95361 3.78393 4.08833L3.85318 4.14608L5.50374 5.79318L10.293 1H6.49602C6.25056 1 6.04642 0.823125 6.00408 0.589876L5.99602 0.5C5.99602 0.223858 6.21988 0 6.49602 0Z" fill="#212121"/>
</svg>
