<svg xmlns="http://www.w3.org/2000/svg" width="24" height="24" fill="none" viewBox="0 0 24 24">
    <path fill="#6264A7" d="M6.25 4h11.5c1.733 0 3.15 1.356 3.245 3.066L21 7.25v9.5c0 1.733-1.357 3.15-3.066 3.245L17.75 20H6.25c-1.733 0-3.15-1.357-3.245-3.066L3 16.75v-9.5C3 5.517 4.356 4.1 6.066 4.005L6.25 4h11.5-11.5zm11.5 1.5H6.25c-.918 0-1.671.707-1.744 1.606L4.5 7.25v9.5c0 .918.707 1.671 1.606 1.744l.144.006h11.5c.918 0 1.671-.707 1.744-1.607l.006-.143v-9.5c0-.918-.707-1.671-1.607-1.744L17.75 5.5zm-7.697 4.085c.11-.22.36-.323.587-.256l.084.033 4.382 2.19c.096.05.175.128.223.224.11.22.043.482-.147.624l-.076.047-4.382 2.191c-.07.035-.146.053-.224.053-.245 0-.45-.177-.492-.41L10 14.19V9.809c0-.078.018-.154.053-.224z"/>
</svg>
