<svg width="16" height="14" viewBox="0 0 16 14" fill="none" xmlns="http://www.w3.org/2000/svg">
<path d="M6.76512 4.07608C6.61099 3.97969 6.41669 3.97454 6.25768 4.06264C6.09867 4.15075 6 4.31821 6 4.5V9.65001C6 9.83412 6.10118 10.0033 6.26337 10.0905C6.42557 10.1776 6.62252 10.1685 6.77603 10.0669L10.776 7.41847C10.9178 7.3246 11.0022 7.1651 11 6.99508C10.9978 6.82505 10.9093 6.6678 10.7651 6.57764L6.76512 4.07608ZM2.5 0C1.11929 0 0 1.11929 0 2.5V11.5C0 12.8807 1.11929 14 2.5 14H13.5C14.8807 14 16 12.8807 16 11.5V2.5C16 1.11929 14.8807 0 13.5 0H2.5ZM1 2.5C1 1.67157 1.67157 1 2.5 1H13.5C14.3284 1 15 1.67157 15 2.5V11.5C15 12.3284 14.3284 13 13.5 13H2.5C1.67157 13 1 12.3284 1 11.5V2.5Z" fill="#6264A7"/>
</svg>
