<svg xmlns="http://www.w3.org/2000/svg" width="41" height="40" viewBox="0 0 41 40">
    <g fill="none" fill-rule="evenodd" stroke="#4A4A4A" stroke-linecap="round" stroke-width="1.875">
        <path stroke-linejoin="round" d="M28.541 15.455c.356 1.014.55 2.11.55 3.252 0 5.233-4.07 9.475-9.09 9.475-5.022 0-9.092-4.242-9.092-9.475 0-1.053.165-2.067.47-3.013M2.727 39.091L2.727 32.627 10.909 27.273M29.091 27.273L37.273 32.627 37.273 39.091M33.636 7.273L33.636 11.818M10.91 8.182v4.331s9.59 2.66 18.18-.208V8.182M33.636 4.152L20.091 0 6.364 4.152 20.091 8.182 28.904 5.618M31.818 14.545c0-1.004.814-1.818 1.818-1.818s1.819.814 1.819 1.818"/>
        <path d="M14.091 30.455L17.727 38.636"/>
        <path d="M22.727 30.455L26.364 38.636" transform="matrix(-1 0 0 1 49.09 0)"/>
    </g>
</svg>
