<svg xmlns="http://www.w3.org/2000/svg" width="14" height="12" fill="none" viewBox="0 0 14 12">
    <path fill="#212121" d="M2 2.1C2 .94 2.922 0 4.059 0s2.059.94 2.059 2.1c0 .954-.624 1.759-1.477 2.015.404 1.352 1.637 2.335 3.094 2.335h.195C8.132 5.506 8.956 4.8 9.94 4.8 11.078 4.8 12 5.74 12 6.9 12 8.06 11.078 9 9.941 9c-.985 0-1.81-.706-2.011-1.65h-.195c-1.312 0-2.481-.626-3.235-1.602v2.1c.925.206 1.618 1.047 1.618 2.052 0 1.16-.922 2.1-2.06 2.1C2.923 12 2 11.06 2 9.9c0-1.005.693-1.846 1.618-2.052V4.152C2.693 3.946 2 3.105 2 2.1zM4.059.9c-.65 0-1.177.537-1.177 1.2 0 .663.527 1.2 1.177 1.2s1.176-.537 1.176-1.2c0-.663-.526-1.2-1.176-1.2zm0 7.8c-.65 0-1.177.537-1.177 1.2 0 .663.527 1.2 1.177 1.2s1.176-.537 1.176-1.2c0-.663-.526-1.2-1.176-1.2zm4.706-1.8c0 .663.526 1.2 1.176 1.2.65 0 1.177-.537 1.177-1.2 0-.663-.527-1.2-1.177-1.2s-1.176.537-1.176 1.2z"/>
</svg>
