<svg xmlns="http://www.w3.org/2000/svg" width="16" height="16" fill="none" viewBox="0 0 16 16">
    <path fill="#212121" d="M8.5 4.5C8.5 3.12 7.38 2 6 2S3.5 3.12 3.5 4.5C3.5 5.881 4.62 7 6 7s2.5-1.119 2.5-2.5zm-4 0C4.5 3.672 5.17 3 6 3s1.5.672 1.5 1.5C7.5 5.33 6.83 6 6 6s-1.5-.67-1.5-1.5zM9 5c0 .526.203 1.004.535 1.361C10.145 6.128 10.808 6 11.5 6c.397 0 .783.042 1.156.122.217-.32.344-.706.344-1.122 0-1.105-.895-2-2-2s-2 .895-2 2zm2-1c.552 0 1 .448 1 1s-.448 1-1 1-1-.448-1-1 .448-1 1-1zm-4.94 9h.147c-.091-.322-.154-.656-.185-1C3.917 11.995 3 11.415 3 10.276V9.5c0-.276.224-.5.5-.5h3.1c.183-.358.404-.693.657-1H3.5C2.672 8 2 8.672 2 9.5v.775C2 12.097 3.446 13 6.06 13zM16 11.5c0 2.485-2.015 4.5-4.5 4.5S7 13.985 7 11.5 9.015 7 11.5 7 16 9.015 16 11.5zm-2.404-2.803C13.012 8.259 12.286 8 11.5 8 9.567 8 8 9.567 8 11.5c0 .786.26 1.512.697 2.096l4.9-4.9zM15 11.5c0-.786-.26-1.512-.697-2.096l-4.9 4.9c.585.437 1.31.696 2.097.696 1.933 0 3.5-1.567 3.5-3.5z"/>
</svg>
