<svg xmlns="http://www.w3.org/2000/svg" width="16" height="16" fill="none" viewBox="0 0 16 16">
    <path fill="#212121" d="M6.033 8.892c.304 0 .55-.24.55-.535 0-.296-.246-.536-.55-.536-.303 0-.55.24-.55.536 0 .296.247.535.55.535zm1.834-5.535c0-.104-.047-.203-.128-.27-.081-.069-.189-.099-.294-.083l-5.134.764c-.179.027-.311.177-.311.353v7.757c0 .176.132.326.311.353l5.134.765c.105.016.213-.014.294-.082.081-.068.128-.167.128-.271V8h3.793l-.731.624c-.153.13-.168.355-.035.504.133.148.365.163.517.033l1.464-1.25c.08-.068.125-.165.125-.268 0-.103-.046-.201-.125-.27l-1.464-1.25c-.152-.129-.384-.114-.517.034-.133.149-.118.374.035.504l.73.624H7.868V3.357zm-.734.416v8.454l-4.4-.656V4.428l4.4-.655zm1.834 8.512H8.6V8.714h.733v3.214c0 .197-.164.357-.366.357zM8.6 6.571V3.714h.367c.202 0 .366.16.366.357v2.5H8.6z"/>
</svg>
