<svg width="10" height="10" viewBox="0 0 10 10" fill="none" xmlns="http://www.w3.org/2000/svg">
<path d="M5 0C7.76142 0 10 2.23858 10 5C10 7.76142 7.76142 10 5 10C2.23858 10 0 7.76142 0 5C0 2.23858 2.23858 0 5 0ZM5 0.833333C2.69881 0.833333 0.833333 2.69881 0.833333 5C0.833333 7.30119 2.69881 9.16667 5 9.16667C7.30119 9.16667 9.16667 7.30119 9.16667 5C9.16667 2.69881 7.30119 0.833333 5 0.833333ZM5 7.08333C5.34518 7.08333 5.625 7.36316 5.625 7.70833C5.625 8.05351 5.34518 8.33333 5 8.33333C4.65482 8.33333 4.375 8.05351 4.375 7.70833C4.375 7.36316 4.65482 7.08333 5 7.08333ZM5 2.08333C5.92047 2.08333 6.66667 2.82953 6.66667 3.75C6.66667 4.35878 6.49019 4.69974 6.03837 5.17326L5.8183 5.39788C5.50376 5.72585 5.41667 5.90258 5.41667 6.25C5.41667 6.48012 5.23012 6.66667 5 6.66667C4.76988 6.66667 4.58333 6.48012 4.58333 6.25C4.58333 5.64122 4.75981 5.30026 5.21163 4.82674L5.4317 4.60212C5.74624 4.27415 5.83333 4.09742 5.83333 3.75C5.83333 3.28976 5.46024 2.91667 5 2.91667C4.53976 2.91667 4.16667 3.28976 4.16667 3.75C4.16667 3.98012 3.98012 4.16667 3.75 4.16667C3.51988 4.16667 3.33333 3.98012 3.33333 3.75C3.33333 2.82953 4.07953 2.08333 5 2.08333Z" fill="#484644"/>
</svg>
