<?xml version="1.0" encoding="utf-8"?>
<!-- Generator: Adobe Illustrator 23.0.2, SVG Export Plug-In . SVG Version: 6.00 Build 0)  -->
<svg width="24pt" height="24pt" fill="#ffffff"  version="1.1" id="custom-calandar" xmlns="http://www.w3.org/2000/svg" xmlns:xlink="http://www.w3.org/1999/xlink" x="0px"
	 y="0px" viewBox="0 0 512 512" style="enable-background:new 0 0 512 512;" xml:space="preserve">
<g>
	<g>
		<g>
			<g>
				<path d="M432,40h-26V20c0-11.05-8.95-20-20-20s-20,8.95-20,20v20h-91V20c0-11.05-8.95-20-20-20c-11.05,0-20,8.95-20,20v20h-90
					V20c0-11.05-8.95-20-20-20s-20,8.95-20,20v20H80C35.89,40,0,75.89,0,120v312c0,44.11,35.89,80,80,80h253c11.05,0,20-8.95,20-20
					s-8.95-20-20-20H80c-22.06,0-40-17.94-40-40V120c0-22.06,17.94-40,40-40h25v20c0,11.05,8.95,20,20,20s20-8.95,20-20V80h90v20
					c0,11.05,8.95,20,20,20c11.05,0,20-8.95,20-20V80h91v20c0,11.05,8.95,20,20,20s20-8.95,20-20V80h26c22.06,0,40,17.94,40,40v214
					c0,11.05,8.95,20,20,20s20-8.95,20-20V120C512,75.89,476.11,40,432,40z"/>
			</g>
		</g>
	</g>
	<path d="M148,159.14v32.47c0,6.16,4.99,11.15,11.15,11.15c6.16,0,11.15-4.99,11.15-11.15v-21.33h21.33
		c6.16,0,11.15-4.99,11.15-11.15s-4.99-11.15-11.15-11.15h-32.47C152.99,147.99,148,152.98,148,159.14z"/>
	<path d="M344.29,159.14c0,6.16,4.99,11.15,11.15,11.15h21.33v21.33c0,6.16,4.99,11.15,11.15,11.15c6.16,0,11.15-4.99,11.15-11.15
		v-32.47c0-6.16-4.99-11.15-11.15-11.15h-32.47C349.28,147.99,344.29,152.98,344.29,159.14z"/>
	<path d="M202.77,387.9c0-6.16-4.99-11.15-11.15-11.15H170.3v-21.33c0-6.16-4.99-11.15-11.15-11.15c-6.16,0-11.15,4.99-11.15,11.15
		v32.47c0,6.16,4.99,11.15,11.15,11.15h32.47C197.78,399.05,202.77,394.06,202.77,387.9z"/>
	<path d="M311.49,337.79l168.78,168.78c7.25,7.25,19.01,7.25,26.26,0c7.25-7.25,7.25-19.01,0-26.26L337.75,311.52l-19.14,7.13
		L311.49,337.79z"/>
	<path d="M296.99,182.4l-38.21,24.67c-2.65,1.7-5.89,2.21-8.93,1.4l-43.56-11.69c-5.8-1.56-11.11,3.75-9.55,9.55l11.69,43.55
		c0.82,3.04,0.3,6.29-1.4,8.93l-24.67,38.21c-3.26,5.06,0.19,11.75,6.21,12.01l44.94,1.99c3.2,0.14,6.18,1.65,8.2,4.15l28.59,35.53
		c3.79,4.71,11.27,3.5,13.38-2.17l10.47-28.09c8.25-22.16,4.12-18.02,26.26-26.26l28.09-10.47c5.67-2.11,6.88-9.59,2.17-13.38
		l-35.53-28.59c-2.5-2.01-4-4.99-4.15-8.2l-1.99-44.94C308.74,182.59,302.05,179.14,296.99,182.4z"/>
</g>
</svg>
