<svg id="Capa_1" enable-background="new 0 0 512 512" height="512" viewBox="0 0 512 512" width="512" xmlns="http://www.w3.org/2000/svg"><g><path d="m115.792 138.734h195.166v30h-195.166z"/><path d="m115.792 198.734h195.166v30h-195.166z"/><path d="m115.792 258.734h195.166v30h-195.166z"/><path d="m384.126 301.741v-301.741h-272.715l-68.786 68.787v372.417h220.483c14.602 41.202 53.957 70.796 100.101 70.796 58.541 0 106.167-47.626 106.167-106.167-.001-51.382-36.693-94.351-85.25-104.092zm-262.767-269.262v46.256h-46.256zm-48.734 378.725v-302.47h78.734v-78.734h202.767v270.06c-54.304 4.624-97.084 50.293-97.084 105.773 0 1.801.046 3.592.135 5.371zm290.584 70.796c-41.999 0-76.167-34.168-76.167-76.167 0-41.998 34.168-76.166 76.167-76.166s76.167 34.168 76.167 76.166c-.001 41.999-34.169 76.167-76.167 76.167z"/><path d="m351.497 407.62-11.971-11.971-21.213 21.213 33.184 33.184 56.607-56.607-21.213-21.212z"/></g></svg>