<?xml version="1.0" encoding="utf-8"?>
<!-- Generator: Adobe Illustrator 23.0.2, SVG Export Plug-In . SVG Version: 6.00 Build 0)  -->
<svg version="1.1" id="Layer_1" xmlns="http://www.w3.org/2000/svg" xmlns:xlink="http://www.w3.org/1999/xlink" x="0px" y="0px"
	 viewBox="0 0 1280 1024" style="enable-background:new 0 0 1280 1024;" xml:space="preserve">
<style type="text/css">
	.st0{fill:#ED1C22;}
	.st1{fill:#F2F2F2;}
	.st2{fill:#3F3F41;}
	.st3{fill:#FFFFFF;}
</style>
<polygon class="st0" points="897,407.78 375.22,407.78 418.22,230.22 940,230.22 "/>
<g>
	<path class="st1" d="M453.93,384.56l27.58-131.71h27.04l-22.91,109.7h67.02l-4.58,22.01H453.93z"/>
	<path class="st1" d="M564.44,384.56l27.58-131.71h27.04l-27.49,131.71H564.44z"/>
	<path class="st1" d="M682.58,384.56h-28.93l-23.63-131.71h27.04l16.71,99.64l54.54-99.64h26.86L682.58,384.56z"/>
	<path class="st1" d="M739.46,384.56l27.49-131.71h97.66l-4.58,22.01H789.5l-6.29,29.92h68.19l-4.58,22.01h-68.19l-8.27,35.76H847
		l-4.67,22.01H739.46z"/>
</g>
<g>
	<polygon class="st2" points="867,520.78 275.22,520.78 305.22,408.22 897,408.22 	"/>
	<g>
		<path class="st3" d="M412.65,474.6l11.88,1.8c-2.32,6.43-5.79,11.35-10.43,14.75c-4.64,3.4-10.07,5.1-16.29,5.1
			c-7.01,0-12.48-2.11-16.43-6.33s-5.92-10.34-5.92-18.36c0-6.51,1.32-12.47,3.96-17.87c2.64-5.4,6.31-9.54,11-12.4
			c4.69-2.86,9.79-4.3,15.31-4.3c6.2,0,11.21,1.66,15.04,4.98s6.08,7.85,6.76,13.57l-11.29,1.09c-0.63-3.33-1.83-5.75-3.61-7.25
			c-1.78-1.5-4.16-2.25-7.13-2.25c-3.26,0-6.3,0.99-9.12,2.97c-2.83,1.98-5.08,5.07-6.78,9.28c-1.69,4.21-2.54,8.41-2.54,12.6
			c0,4.58,1.1,8.13,3.3,10.63c2.2,2.5,4.94,3.75,8.22,3.75c3.05,0,5.84-0.99,8.38-2.97C409.51,481.41,411.4,478.48,412.65,474.6z"/>
		<path class="st3" d="M429.26,495.22l11.99-57.27h11.76l-9.96,47.7h29.14l-1.99,9.57H429.26z"/>
		<path class="st3" d="M515.31,482.57h-22.7l-6.88,12.66h-12.11l32.38-57.27h13.09l9.3,57.27h-11.17L515.31,482.57z M513.87,473.03
			l-3.32-23.05l-13.83,23.05H513.87z"/>
		<path class="st3" d="M537.38,476.67l11.21-0.59c0.16,3.57,0.77,5.98,1.84,7.23c1.72,2.03,4.9,3.05,9.53,3.05
			c3.85,0,6.64-0.69,8.36-2.07c1.72-1.38,2.58-3.05,2.58-5c0-1.69-0.7-3.13-2.11-4.3c-0.99-0.86-3.71-2.25-8.14-4.18
			c-4.44-1.93-7.68-3.54-9.73-4.82c-2.04-1.29-3.65-2.96-4.82-5.02c-1.17-2.06-1.76-4.47-1.76-7.23c0-4.82,1.74-8.81,5.23-11.99
			c3.49-3.18,8.54-4.77,15.16-4.77c6.72,0,11.92,1.58,15.61,4.73c3.68,3.15,5.71,7.34,6.07,12.58l-11.29,0.51
			c-0.29-2.73-1.28-4.83-2.97-6.29c-1.69-1.46-4.19-2.19-7.5-2.19c-3.26,0-5.58,0.57-6.97,1.72c-1.39,1.15-2.09,2.59-2.09,4.34
			c0,1.64,0.64,3,1.91,4.06c1.28,1.09,4.1,2.59,8.48,4.49c6.59,2.84,10.78,5.14,12.58,6.91c2.68,2.6,4.02,5.95,4.02,10.04
			c0,5.05-2,9.37-6,12.95c-4,3.58-9.56,5.37-16.7,5.37c-4.92,0-9.19-0.83-12.79-2.48c-3.61-1.65-6.15-3.95-7.64-6.89
			C537.97,483.88,537.28,480.5,537.38,476.67z"/>
		<path class="st3" d="M590.74,476.67l11.21-0.59c0.16,3.57,0.77,5.98,1.84,7.23c1.72,2.03,4.9,3.05,9.53,3.05
			c3.85,0,6.64-0.69,8.36-2.07c1.72-1.38,2.58-3.05,2.58-5c0-1.69-0.7-3.13-2.11-4.3c-0.99-0.86-3.71-2.25-8.14-4.18
			c-4.44-1.93-7.68-3.54-9.73-4.82c-2.04-1.29-3.65-2.96-4.82-5.02c-1.17-2.06-1.76-4.47-1.76-7.23c0-4.82,1.74-8.81,5.23-11.99
			c3.49-3.18,8.54-4.77,15.16-4.77c6.72,0,11.92,1.58,15.61,4.73c3.68,3.15,5.71,7.34,6.07,12.58l-11.29,0.51
			c-0.29-2.73-1.28-4.83-2.97-6.29c-1.69-1.46-4.19-2.19-7.5-2.19c-3.26,0-5.58,0.57-6.97,1.72c-1.39,1.15-2.09,2.59-2.09,4.34
			c0,1.64,0.64,3,1.91,4.06c1.28,1.09,4.1,2.59,8.48,4.49c6.59,2.84,10.78,5.14,12.58,6.91c2.68,2.6,4.02,5.95,4.02,10.04
			c0,5.05-2,9.37-6,12.95c-4,3.58-9.56,5.37-16.7,5.37c-4.92,0-9.19-0.83-12.79-2.48c-3.61-1.65-6.15-3.95-7.64-6.89
			C591.33,483.88,590.64,480.5,590.74,476.67z"/>
	</g>
</g>
<g>
	<g>
		<circle class="st0" cx="849.22" cy="523.22" r="90.78"/>
		<path class="st2" d="M849.22,616.5c-51.43,0-93.28-41.84-93.28-93.28c0-51.43,41.84-93.28,93.28-93.28s93.28,41.84,93.28,93.28
			C942.5,574.66,900.66,616.5,849.22,616.5z M849.22,434.94c-48.68,0-88.28,39.6-88.28,88.28s39.6,88.28,88.28,88.28
			s88.28-39.6,88.28-88.28S897.9,434.94,849.22,434.94z"/>
	</g>
	<polygon class="st1" points="819.72,481.68 819.72,567.47 893.94,524.57 	"/>
</g>
</svg>
