<?xml version="1.0" encoding="UTF-8"?>
<svg width="60px" height="60px" viewBox="0 0 60 60" version="1.1" xmlns="http://www.w3.org/2000/svg" xmlns:xlink="http://www.w3.org/1999/xlink">
    <!-- Generator: sketchtool 53.2 (72643) - https://sketchapp.com -->
    <title>755D2C0B-36C5-4B94-8755-1AC853CE2092</title>
    <desc>Created with sketchtool.</desc>
    <defs>
        <linearGradient x1="100%" y1="100%" x2="0%" y2="0%" id="linearGradient-1">
            <stop stop-color="#FF0068" offset="0%"></stop>
            <stop stop-color="#FF4290" offset="100%"></stop>
        </linearGradient>
        <linearGradient x1="48.3081043%" y1="100%" x2="48.3081043%" y2="0%" id="linearGradient-2">
            <stop stop-color="#F3AE54" stop-opacity="0" offset="0%"></stop>
            <stop stop-color="#EE523C" offset="100%"></stop>
        </linearGradient>
        <circle id="path-3" cx="29" cy="29" r="29"></circle>
    </defs>
    <g id="Learner---Portfolio" stroke="none" stroke-width="1" fill="none" fill-rule="evenodd">
        <g id="Programme-w2" transform="translate(-1037.000000, -336.000000)" fill-rule="nonzero">
            <g id="Group-[24v]" transform="translate(144.000000, 210.000000)">
                <g id="Section" transform="translate(0.000000, 100.000000)">
                    <g id="Content-[0v]" transform="translate(16.000000, 8.000000)">
                        <g id="Section-/-Session">
                            <g id="icon-/-Portal-/-alt-2" transform="translate(878.000000, 19.000000)">
                                <g id="Oval-3">
                                    <use fill="#000000" xlink:href="#path-3"></use>
                                    <use fill="url(#linearGradient-1)" xlink:href="#path-3"></use>
                                    <use stroke="#FFFFFF" stroke-width="0.5" fill="url(#linearGradient-2)" xlink:href="#path-3"></use>
                                </g>
                                <path d="M20.9444444,38.6666667 C15.6056919,38.6666667 11.2777778,34.3387526 11.2777778,29 C11.2777778,23.6612474 15.6056919,19.3333333 20.9444444,19.3333333 C26.283197,19.3333333 30.6111111,23.6612474 30.6111111,29 C30.6111111,34.3387526 26.283197,38.6666667 20.9444444,38.6666667 Z" id="Path" fill="#FFFFFF"></path>
                                <path d="M20.9444444,35.4444444 C24.5036128,35.4444444 27.3888889,32.5591684 27.3888889,29 C27.3888889,25.4408316 24.5036128,22.5555556 20.9444444,22.5555556 C17.3852761,22.5555556 14.5,25.4408316 14.5,29 C14.5,32.5591684 17.3852761,35.4444444 20.9444444,35.4444444 Z" id="Path" fill="#FFFFFF"></path>
                                <path d="M37.0555556,38.6666667 C31.716803,38.6666667 27.3888889,34.3387526 27.3888889,29 C27.3888889,23.6612474 31.716803,19.3333333 37.0555556,19.3333333 C42.3943081,19.3333333 46.7222222,23.6612474 46.7222222,29 C46.7222222,34.3387526 42.3943081,38.6666667 37.0555556,38.6666667 Z M37.0555556,35.4444444 C40.6147239,35.4444444 43.5,32.5591684 43.5,29 C43.5,25.4408316 40.6147239,22.5555556 37.0555556,22.5555556 C33.4963872,22.5555556 30.6111111,25.4408316 30.6111111,29 C30.6111111,32.5591684 33.4963872,35.4444444 37.0555556,35.4444444 Z" id="Oval" fill="#FFFFFF"></path>
                            </g>
                        </g>
                    </g>
                </g>
            </g>
        </g>
    </g>
</svg>