<svg width="24pt" height="24pt" fill="#ffffff" id="Capa_1" enable-background="new 0 0 512 512" viewBox="0 0 512 512" xmlns="http://www.w3.org/2000/svg"><g><path d="m353.442 242.977-140-80c-4.642-2.653-10.346-2.634-14.971.05-4.625 2.683-7.471 7.626-7.471 12.973v160c0 5.347 2.846 10.29 7.471 12.974 2.328 1.351 4.928 2.026 7.529 2.026 2.567 0 5.136-.659 7.442-1.977l140-80c4.674-2.67 7.558-7.641 7.558-13.023s-2.884-10.353-7.558-13.023zm-132.442 67.175v-108.304l94.767 54.152z"/><path d="m496 0h-480c-8.284 0-15 6.716-15 15v482c0 8.284 6.716 15 15 15h480c8.284 0 15-6.716 15-15v-482c0-8.284-6.716-15-15-15zm-465 402v-292h450v292zm450-322h-50v-50h50zm-80 0h-50v-50h50zm-80 0h-50v-50h50zm-80 0h-50v-50h50zm-80 0h-50v-50h50zm-130-50h50v50h-50zm0 402h50v50h-50zm80 0h50v50h-50zm80 0h50v50h-50zm80 0h50v50h-50zm80 0h50v50h-50zm130 50h-50v-50h50z"/></g></svg>