<svg id="Layer_1" data-name="Layer 1" xmlns="http://www.w3.org/2000/svg" viewBox="0 0 911.91 265.03"><title>Artboard 4 copy 2</title><polygon points="269.68 196.37 269.54 238.87 400.86 239.28 401 196.79 315.71 196.52 269.68 196.37"/><rect x="824.74" y="172.78" width="42.49" height="93.34" transform="translate(623.84 1064.73) rotate(-89.82)"/><rect x="402.95" y="59.74" width="104.47" height="46.04" transform="translate(370.98 537.68) rotate(-89.82)"/><rect x="402.62" y="164.2" width="104.47" height="46.04" transform="translate(266.19 641.48) rotate(-89.82)"/><rect x="209.74" y="90.21" width="166.44" height="46.04" transform="matrix(0, -1, 1, 0, 178.8, 405.82)"/><polygon points="558.29 30.85 509.37 30.7 591 239.89 591 239.89 639.92 240.04 558.29 30.85"/><rect x="822.42" y="90.37" width="42.49" height="88.16" transform="matrix(0, -1, 1, 0, 706.53, 977.69)"/><rect x="825.26" y="6.35" width="42.49" height="93.34" transform="translate(790.81 899.35) rotate(-89.82)"/><polygon points="753.88 31.47 753.62 112.92 799.65 113.07 799.77 74.11 799.91 31.62 753.88 31.47"/><polygon points="753.21 240.4 799.25 240.55 799.38 198.06 799.52 155.56 799.65 113.07 753.62 112.92 753.21 240.4"/><polygon points="650.78 212.47 722.88 31.11 673.95 30.96 626.5 150.32 650.78 212.47"/><path d="M75.35,172.09a65.86,65.86,0,0,1,91.88-91.88L198.5,48.94A109.75,109.75,0,0,0,44.07,203.36Z"/><path d="M182.93,96.33A65.86,65.86,0,0,1,91.23,188L59.88,219.37A109.75,109.75,0,0,0,214.28,65Z"/></svg>