<?xml version="1.0" standalone="no"?>
<!DOCTYPE svg PUBLIC "-//W3C//DTD SVG 20010904//EN"
 "http://www.w3.org/TR/2001/REC-SVG-20010904/DTD/svg10.dtd">
<svg version="1.0" xmlns="http://www.w3.org/2000/svg"
 width="200.000000pt" height="200.000000pt" viewBox="0 0 200.000000 200.000000"
 preserveAspectRatio="xMidYMid meet">

<g transform="translate(0.000000,200.000000) scale(0.100000,-0.100000)"
fill="#000000" stroke="none">
<path d="M0 1000 l0 -1000 1000 0 1000 0 0 1000 0 1000 -1000 0 -1000 0 0
-1000z m1125 735 c97 -17 198 -56 276 -106 l51 -32 -107 -107 -107 -108 -54
24 c-271 120 -575 -45 -625 -338 -13 -81 0 -176 35 -254 l24 -52 -108 -107
-107 -107 -32 51 c-50 78 -89 179 -106 276 -19 109 -19 141 0 250 54 310 295
554 602 609 104 19 153 19 258 1z m545 -410 c53 -108 73 -197 73 -325 0 -120
-18 -207 -63 -306 -102 -226 -309 -386 -555 -429 -109 -19 -141 -19 -250 0
-97 17 -198 56 -276 106 l-51 32 107 107 107 108 54 -24 c280 -124 584 53 628
364 8 57 -9 160 -38 224 l-24 53 107 108 106 107 18 -22 c9 -13 35 -59 57
-103z"/>
</g>
</svg>
